<svg xmlns="http://www.w3.org/2000/svg" width="47" height="47" viewBox="0 0 47 47" fill="none">
  <path d="M27.0155 44.5521H31.0321C31.357 44.5524 31.6787 44.4886 31.9789 44.3643C32.2791 44.2401 32.5519 44.058 32.7816 43.8282C33.0113 43.5985 33.1935 43.3257 33.3177 43.0255C33.4419 42.7253 33.5057 42.4036 33.5054 42.0787L27.0155 44.5521ZM27.0155 44.5521C26.6907 44.5524 26.3689 44.4886 26.0687 44.3643M27.0155 44.5521L26.0687 44.3643M26.0687 44.3643C25.7685 44.2401 25.4957 44.058 25.266 43.8282M26.0687 44.3643L25.266 43.8282M25.266 43.8282C25.0363 43.5985 24.8541 43.3257 24.7299 43.0255M25.266 43.8282L24.7299 43.0255M24.7299 43.0255C24.6057 42.7253 24.5419 42.4036 24.5422 42.0787L24.7299 43.0255ZM40.0191 8.93652L40.0236 8.73657L39.8237 8.73203L36.2937 8.65185C35.9693 8.62827 35.6663 8.48122 35.447 8.24088C35.2268 7.99944 35.108 7.68242 35.1154 7.35568C35.1228 7.02895 35.2558 6.71764 35.4868 6.48642C35.7167 6.25627 36.0261 6.12311 36.3511 6.11424L41.3518 6.22967L41.3522 6.22968C41.5186 6.23319 41.6827 6.26951 41.835 6.33656C41.9873 6.4036 42.125 6.50006 42.2399 6.62039L42.3845 6.48221L42.2399 6.62039C42.3549 6.74072 42.445 6.88256 42.5051 7.03778C42.5652 7.19301 42.594 7.35856 42.59 7.52495L42.59 7.52527L42.4765 12.5259C42.4529 12.8503 42.3059 13.1534 42.0655 13.3726C41.8241 13.5929 41.5071 13.7116 41.1803 13.7042C40.8536 13.6968 40.5423 13.5638 40.3111 13.3329C40.0809 13.1029 39.9477 12.7935 39.9389 12.4684L40.0191 8.93652ZM4.92162 44.3521H4.92146C4.62287 44.3523 4.32716 44.2937 4.05126 44.1795C3.77535 44.0654 3.52466 43.898 3.31352 43.6868C3.10239 43.4757 2.93496 43.225 2.8208 42.9491L2.63599 43.0255L2.8208 42.9491C2.70664 42.6732 2.64801 42.3775 2.64824 42.0789V42.0787V18.3026C2.64824 17.048 3.66526 16.0292 4.92162 16.0292H8.93816C10.1945 16.0292 11.2115 17.048 11.2115 18.3026V42.0787C11.2115 43.3352 10.1946 44.3521 8.93816 44.3521H4.92162ZM5.38574 18.5667H5.18574V18.7667V41.6146V41.8146H5.38574H8.47404H8.67404V41.6146V18.7667V18.5667H8.47404H5.38574ZM33.3054 30.354V30.3542V42.0787V42.0789C33.3057 42.3775 33.2471 42.6732 33.1329 42.9491C33.0187 43.225 32.8513 43.4757 32.6402 43.6868C32.429 43.898 32.1783 44.0654 31.9024 44.1795C31.6265 44.2937 31.3308 44.3523 31.0322 44.3521H31.0321H27.0155H27.0154C26.7168 44.3523 26.4211 44.2937 26.1452 44.1795C25.8693 44.0654 25.6186 43.898 25.4074 43.6868C25.1963 43.4757 25.0289 43.225 24.9147 42.9491C24.8006 42.6732 24.7419 42.3775 24.7422 42.0789V42.0787V30.3542V30.354C24.7419 30.0554 24.8006 29.7597 24.9147 29.4838C25.0289 29.2079 25.1963 28.9572 25.4074 28.7461C25.6186 28.535 25.8693 28.3675 26.1452 28.2534C26.4211 28.1392 26.7168 28.0806 27.0154 28.0808H27.0155H31.0321H31.0322C31.3308 28.0806 31.6265 28.1392 31.9024 28.2534C32.1783 28.3675 32.429 28.535 32.6402 28.7461C32.8513 28.9572 33.0187 29.2079 33.1329 29.4838C33.2471 29.7597 33.3057 30.0554 33.3054 30.354ZM27.4797 30.6183H27.2797V30.8183V41.6146V41.8146H27.4797H30.568H30.768V41.6146V30.8183V30.6183H30.568H27.4797ZM15.9686 44.3521H15.9684C15.6698 44.3523 15.3741 44.2937 15.0982 44.1795C14.8223 44.0654 14.5716 43.898 14.3605 43.6868C14.1493 43.4757 13.9819 43.225 13.8678 42.9491C13.7536 42.6732 13.695 42.3775 13.6952 42.0789V42.0787V24.3284V24.3282C13.695 24.0296 13.7536 23.7339 13.8678 23.458C13.9819 23.1821 14.1493 22.9314 14.3605 22.7203C14.5716 22.5092 14.8223 22.3417 15.0982 22.2276C15.3741 22.1134 15.6698 22.0548 15.9684 22.055H15.9686H19.9851C21.2415 22.055 22.2585 23.0738 22.2585 24.3284V42.0787C22.2585 43.3352 21.2416 44.3521 19.9851 44.3521H15.9686ZM16.4327 24.5925H16.2327V24.7925V41.6146V41.8146H16.4327H19.521H19.721V41.6146V24.7925V24.5925H19.521H16.4327ZM38.0625 44.3521H38.0623C37.7637 44.3523 37.468 44.2937 37.1921 44.1795C36.9162 44.0654 36.6655 43.898 36.4544 43.6868C36.2433 43.4757 36.0758 43.225 35.9617 42.9491C35.8475 42.6732 35.7889 42.3775 35.7891 42.0789V42.0787V24.3284V24.3282C35.7889 24.0296 35.8475 23.7339 35.9617 23.458C36.0758 23.1821 36.2433 22.9314 36.4544 22.7203C36.6655 22.5092 36.9162 22.3417 37.1921 22.2276C37.468 22.1134 37.7637 22.0548 38.0623 22.055H38.0625H42.079C43.3354 22.055 44.3524 23.0738 44.3524 24.3284V42.0787C44.3524 43.3352 43.3355 44.3521 42.079 44.3521H38.0625ZM38.5266 24.5925H38.3266V24.7925V41.6146V41.8146H38.5266H41.6149H41.8149V41.6146V24.7925V24.5925H41.6149H38.5266Z" fill="#E7B412" stroke="white" stroke-width="0.4"/>
  <path d="M4.91845 4.93163L4.91844 4.93163C4.64925 4.72974 4.47128 4.42917 4.4237 4.09606C4.37611 3.76295 4.4628 3.42458 4.66469 3.15538C4.86659 2.88619 5.16715 2.70822 5.50026 2.66063C5.83338 2.61305 6.17175 2.69974 6.44094 2.90163L18.0989 11.6456L18.1522 11.6856H18.2189H23.7551C23.9474 11.6856 24.1371 11.7293 24.3101 11.8134C24.483 11.8975 24.6345 12.0198 24.7532 12.1711L24.7533 12.1712L29.232 17.8719L29.3743 18.053L29.5336 17.8867L39.9128 7.05517C40.0281 6.93489 40.166 6.83848 40.3185 6.77146L40.2381 6.58835L40.3185 6.77146C40.4711 6.70445 40.6353 6.66814 40.8019 6.6646C40.9685 6.66107 41.1342 6.69038 41.2894 6.75087C41.4447 6.81135 41.5865 6.90183 41.7068 7.01713C41.8271 7.13242 41.9235 7.27029 41.9905 7.42285C42.0576 7.5754 42.0939 7.73967 42.0974 7.90626C42.1009 8.07285 42.0716 8.23851 42.0111 8.39377C41.9507 8.54903 41.8602 8.69086 41.7449 8.81116L41.8893 8.94955L41.7449 8.81116L30.1946 20.8627L30.1941 20.8633C30.0688 20.9951 29.9167 21.0982 29.7479 21.1657C29.5792 21.2332 29.3979 21.2635 29.2163 21.2546C29.0348 21.2456 28.8574 21.1975 28.6961 21.1136C28.5349 21.0298 28.3936 20.9121 28.282 20.7687L28.2814 20.7679L23.1995 14.2995L23.1395 14.2231H23.0423H17.7293H17.7291C17.4546 14.2235 17.1876 14.1344 16.9683 13.9695L16.9681 13.9693L4.91845 4.93163Z" fill="#E7B412" stroke="white" stroke-width="0.4"/>
</svg>