<svg xmlns="http://www.w3.org/2000/svg" width="45" height="45" viewBox="0 0 45 45" fill="none">
  <path fill-rule="evenodd" clip-rule="evenodd" d="M35.625 2.8125C35.3764 2.8125 35.1379 2.91127 34.9621 3.08709C34.7863 3.2629 34.6875 3.50136 34.6875 3.75C34.6875 3.99864 34.7863 4.2371 34.9621 4.41291C35.1379 4.58873 35.3764 4.6875 35.625 4.6875H35.8097L31.9941 7.23094L30.6628 5.89969C30.5152 5.7516 30.3223 5.65727 30.1147 5.63178C29.9072 5.60629 29.6972 5.6511 29.5181 5.75906L24.8306 8.57156C24.6175 8.69936 24.464 8.90658 24.4036 9.14762C24.3433 9.38866 24.3813 9.64379 24.5091 9.85687C24.6369 10.07 24.8441 10.2235 25.0851 10.2839C25.3262 10.3442 25.5813 10.3062 25.7944 10.1784L29.8556 7.74375L31.2122 9.10031C31.3654 9.25361 31.5671 9.34907 31.7828 9.37044C31.9985 9.3918 32.215 9.33776 32.3953 9.2175L37.5 5.81344V6.5625C37.5 6.81114 37.5988 7.0496 37.7746 7.22541C37.9504 7.40123 38.1889 7.5 38.4375 7.5C38.6861 7.5 38.9246 7.40123 39.1004 7.22541C39.2762 7.0496 39.375 6.81114 39.375 6.5625V3.75C39.375 3.50136 39.2762 3.2629 39.1004 3.08709C38.9246 2.91127 38.6861 2.8125 38.4375 2.8125H35.625ZM15 7.5C9.82594 7.5 5.625 11.7009 5.625 16.875C5.6243 18.4165 6.00411 19.9343 6.73072 21.2939C7.45733 22.6534 8.50828 23.8125 9.79031 24.6684C9.99682 24.8056 10.2492 24.8553 10.4924 24.8069C10.7355 24.7584 10.9495 24.6155 11.0876 24.4097C11.2256 24.2038 11.2766 23.9516 11.2292 23.7083C11.1818 23.4649 11.0399 23.2503 10.8347 23.1112C9.80857 22.4265 8.96734 21.499 8.38563 20.4111C7.80392 19.3233 7.49971 18.1086 7.5 16.875C7.5 12.7359 10.8609 9.375 15 9.375C19.1391 9.375 22.5 12.7359 22.5 16.875C22.5022 18.59 21.9139 20.2535 20.8341 21.5859C20.7529 21.6812 20.6917 21.7917 20.6539 21.9109C20.6162 22.0302 20.6027 22.1558 20.6142 22.2803C20.6257 22.4049 20.6621 22.5259 20.7211 22.6362C20.7801 22.7465 20.8606 22.8439 20.9578 22.9226C21.055 23.0013 21.167 23.0597 21.2872 23.0945C21.4074 23.1293 21.5333 23.1396 21.6575 23.125C21.7818 23.1103 21.9018 23.0709 22.0106 23.0092C22.1194 22.9474 22.2147 22.8645 22.2909 22.7653C23.6417 21.0996 24.3776 19.0196 24.375 16.875C24.375 11.7009 20.1741 7.5 15 7.5ZM35.625 8.4375C35.3764 8.4375 35.1379 8.53627 34.9621 8.71209C34.7863 8.8879 34.6875 9.12636 34.6875 9.375V18.75C34.6875 18.9986 34.7863 19.2371 34.9621 19.4129C35.1379 19.5887 35.3764 19.6875 35.625 19.6875C35.8736 19.6875 36.1121 19.5887 36.2879 19.4129C36.4637 19.2371 36.5625 18.9986 36.5625 18.75V9.375C36.5625 9.12636 36.4637 8.8879 36.2879 8.71209C36.1121 8.53627 35.8736 8.4375 35.625 8.4375ZM15 10.3125C14.7514 10.3125 14.5129 10.4113 14.3371 10.5871C14.1613 10.7629 14.0625 11.0014 14.0625 11.25V12.1875C13.5652 12.1875 13.0883 12.385 12.7367 12.7367C12.385 13.0883 12.1875 13.5652 12.1875 14.0625V15.9375C12.1875 16.4348 12.385 16.9117 12.7367 17.2633C13.0883 17.615 13.5652 17.8125 14.0625 17.8125H15.9375V19.6875H13.125C12.8764 19.6875 12.6379 19.7863 12.4621 19.9621C12.2863 20.1379 12.1875 20.3764 12.1875 20.625C12.1875 20.8736 12.2863 21.1121 12.4621 21.2879C12.6379 21.4637 12.8764 21.5625 13.125 21.5625H14.0625V22.5C14.0625 22.7486 14.1613 22.9871 14.3371 23.1629C14.5129 23.3387 14.7514 23.4375 15 23.4375C15.2486 23.4375 15.4871 23.3387 15.6629 23.1629C15.8387 22.9871 15.9375 22.7486 15.9375 22.5V21.5625C16.4348 21.5625 16.9117 21.365 17.2633 21.0133C17.615 20.6617 17.8125 20.1848 17.8125 19.6875V17.8125C17.8125 17.3152 17.615 16.8383 17.2633 16.4867C16.9117 16.135 16.4348 15.9375 15.9375 15.9375H14.0625V14.0625H16.875C17.1236 14.0625 17.3621 13.9637 17.5379 13.7879C17.7137 13.6121 17.8125 13.3736 17.8125 13.125C17.8125 12.8764 17.7137 12.6379 17.5379 12.4621C17.3621 12.2863 17.1236 12.1875 16.875 12.1875H15.9375V11.25C15.9375 11.0014 15.8387 10.7629 15.6629 10.5871C15.4871 10.4113 15.2486 10.3125 15 10.3125ZM31.875 11.25C31.6264 11.25 31.3879 11.3488 31.2121 11.5246C31.0363 11.7004 30.9375 11.9389 30.9375 12.1875V18.75C30.9375 18.9986 31.0363 19.2371 31.2121 19.4129C31.3879 19.5887 31.6264 19.6875 31.875 19.6875C32.1236 19.6875 32.3621 19.5887 32.5379 19.4129C32.7137 19.2371 32.8125 18.9986 32.8125 18.75V12.1875C32.8125 11.9389 32.7137 11.7004 32.5379 11.5246C32.3621 11.3488 32.1236 11.25 31.875 11.25ZM28.125 13.125C27.8764 13.125 27.6379 13.2238 27.4621 13.3996C27.2863 13.5754 27.1875 13.8139 27.1875 14.0625V18.75C27.1875 18.9986 27.2863 19.2371 27.4621 19.4129C27.6379 19.5887 27.8764 19.6875 28.125 19.6875C28.3736 19.6875 28.6121 19.5887 28.7879 19.4129C28.9637 19.2371 29.0625 18.9986 29.0625 18.75V14.0625C29.0625 13.8139 28.9637 13.5754 28.7879 13.3996C28.6121 13.2238 28.3736 13.125 28.125 13.125ZM16.3988 24.375C16.1795 24.375 15.9671 24.452 15.7987 24.5925L10.1953 29.2678C9.84844 28.0603 8.76562 27.1875 7.5 27.1875C5.96063 27.1875 4.6875 28.4775 4.6875 30.0937V39.2812C4.6875 40.8975 5.96063 42.1875 7.5 42.1875C8.6925 42.1875 9.72094 41.4122 10.1259 40.3125H24.6112C26.2181 40.311 27.7842 39.8065 29.0897 38.8697L39.1903 31.65C39.225 31.6237 39.2588 31.5966 39.2906 31.5675C40.5825 30.3384 40.6575 28.2656 39.4556 26.9438C38.8919 26.3175 38.1033 25.9399 37.262 25.8933C36.4208 25.8468 35.5953 26.1351 34.9659 26.6953L24.2325 32.8125H18.4903C18.0525 32.8125 17.8697 32.3231 17.8697 31.875C17.8697 31.6406 17.9503 31.3781 18.0984 31.1756C18.1922 31.0481 18.3169 30.9375 18.4903 30.9375H23.3372C25.1119 30.9375 26.565 29.4731 26.565 27.6562C26.565 25.8403 25.1119 24.375 23.3372 24.375H16.3988ZM16.7381 26.25H23.3372C24.09 26.25 24.69 26.8866 24.69 27.6562C24.69 28.4259 24.09 29.0625 23.3372 29.0625H18.4903C16.9716 29.0625 15.9947 30.5766 15.9947 31.875C15.9947 33.3731 17.0259 34.6875 18.4903 34.6875H24.4809C24.644 34.6877 24.8043 34.6454 24.9459 34.5647L35.9878 28.2694C36.0534 28.2309 36.1134 28.1869 36.1688 28.1344C36.2967 28.0117 36.448 27.9161 36.6137 27.8531C36.7793 27.7901 36.956 27.761 37.1331 27.7677C37.3102 27.7743 37.4841 27.8165 37.6446 27.8918C37.8051 27.967 37.9488 28.0737 38.0672 28.2056C38.3112 28.475 38.4442 28.8268 38.4395 29.1903C38.4348 29.5538 38.2928 29.902 38.0419 30.165L28.0003 37.3462C27.0121 38.0546 25.8271 38.4361 24.6112 38.4375H10.3125V31.6097L16.7381 26.25ZM7.5 29.0625C8.03062 29.0625 8.4375 29.5359 8.4375 30.0937V39.2812C8.4375 39.8381 8.03062 40.3125 7.5 40.3125C6.96938 40.3125 6.5625 39.8381 6.5625 39.2812V30.0937C6.5625 29.5369 6.96938 29.0625 7.5 29.0625Z" fill="#E6AE00"/>
</svg>