<svg xmlns="http://www.w3.org/2000/svg" width="40" height="40" viewBox="0 0 40 40" fill="none">
  <mask id="mask0_725_9873" style="mask-type:luminance" maskUnits="userSpaceOnUse" x="5" y="23" width="9" height="3">
    <path d="M5 23.1562H13.7148V25.6829H5V23.1562Z" fill="white"/>
  </mask>
  <g mask="url(#mask0_725_9873)">
    <path fill-rule="evenodd" clip-rule="evenodd" d="M9.04791 25.6575C7.5246 25.6575 6.00128 25.2331 5.16676 24.3843C5.02051 24.235 5.00478 23.9759 5.13164 23.8038C5.25849 23.6324 5.48023 23.6138 5.62596 23.7625C6.27282 24.4201 7.58436 24.8291 9.04791 24.8291C10.512 24.8291 11.823 24.4201 12.4699 23.7625C12.6612 23.5682 12.8656 23.4091 13.1146 23.2635C13.2876 23.1611 13.4978 23.2425 13.5848 23.4454C13.6719 23.6484 13.6016 23.8964 13.4292 23.9982C13.231 24.1147 13.0764 24.2344 12.9285 24.3843C12.9285 24.3843 12.9285 24.3843 12.928 24.3849C12.094 25.2331 10.5712 25.6575 9.04791 25.6575Z" fill="#E6AE00"/>
  </g>
  <mask id="mask1_725_9873" style="mask-type:luminance" maskUnits="userSpaceOnUse" x="25" y="22" width="11" height="4">
    <path d="M25.9346 22.3667H35.0006V25.2092H25.9346V22.3667Z" fill="white"/>
  </mask>
  <g mask="url(#mask1_725_9873)">
    <path fill-rule="evenodd" clip-rule="evenodd" d="M26.3302 25.1389C26.1892 25.1389 26.055 25.0377 26.0026 24.873C25.9334 24.6602 26.0251 24.4233 26.2065 24.3431C26.5687 24.1821 26.8549 23.9928 27.0814 23.7621C27.0819 23.7621 27.0819 23.7614 27.0819 23.7614C28.7504 22.0644 33.1757 22.0644 34.8437 23.7621C34.9899 23.9107 35.0057 24.171 34.8788 24.3425C34.7519 24.5134 34.5313 24.5325 34.3845 24.3832C33.7376 23.7257 32.4266 23.3167 30.9625 23.3167C29.4984 23.3167 28.1879 23.7257 27.5411 24.3832C27.5411 24.3832 27.5411 24.3832 27.5406 24.3832C27.2512 24.6781 26.8953 24.9168 26.4544 25.113C26.4135 25.1309 26.3711 25.1389 26.3302 25.1389Z" fill="#E6AE00"/>
  </g>
  <mask id="mask2_725_9873" style="mask-type:luminance" maskUnits="userSpaceOnUse" x="5" y="26" width="30" height="5">
    <path d="M5 26.9473H34.9924V30.2635H5V26.9473Z" fill="white"/>
  </mask>
  <g mask="url(#mask2_725_9873)">
    <path fill-rule="evenodd" clip-rule="evenodd" d="M9.04791 30.263C7.5246 30.263 6.00128 29.8386 5.16676 28.9892C5.02051 28.8405 5.00478 28.5814 5.13164 28.4093C5.25849 28.2379 5.48023 28.2193 5.62596 28.368C6.27282 29.0256 7.58436 29.4346 9.04791 29.4346C10.5115 29.4346 11.8225 29.0256 12.4693 28.3686C12.4693 28.368 12.4693 28.368 12.4699 28.368C14.1384 26.6704 18.5626 26.6704 20.2317 28.3674C20.2317 28.3674 20.2322 28.3674 20.2322 28.368C20.879 29.0256 22.1901 29.4346 23.6536 29.4346C25.1182 29.4346 26.4292 29.0256 27.0761 28.368C27.0761 28.3674 27.0766 28.3674 27.0766 28.3674C28.7462 26.6704 33.1699 26.6704 34.8379 28.368C34.9841 28.5167 34.9999 28.777 34.873 28.9479C34.7461 29.1206 34.5249 29.1379 34.3787 28.9892C33.7323 28.3316 32.4208 27.9226 30.9567 27.9226C29.4926 27.9226 28.1816 28.3316 27.5353 28.9892C27.5348 28.9898 27.5342 28.9898 27.5342 28.9904C25.8652 30.6868 21.4425 30.6868 19.774 28.9904C19.7735 28.9904 19.7735 28.9898 19.773 28.9892C19.1261 28.3316 17.8146 27.9226 16.351 27.9226C14.8875 27.9226 13.5759 28.3316 12.9296 28.9892C12.0951 29.8386 10.5712 30.263 9.04791 30.263Z" fill="#E6AE00"/>
  </g>
  <mask id="mask3_725_9873" style="mask-type:luminance" maskUnits="userSpaceOnUse" x="5" y="31" width="30" height="4">
    <path d="M5 31.6836H34.9924V34.9999H5V31.6836Z" fill="white"/>
  </mask>
  <g mask="url(#mask3_725_9873)">
    <path fill-rule="evenodd" clip-rule="evenodd" d="M9.04791 34.8665C7.5246 34.8665 6.00128 34.4427 5.16676 33.5933C5.02051 33.4446 5.00478 33.1843 5.13164 33.0134C5.25849 32.8407 5.48023 32.8234 5.62596 32.9721C6.27282 33.6297 7.58436 34.0387 9.04791 34.0387C10.512 34.0387 11.823 33.6297 12.4699 32.9721C12.4699 32.9715 12.4704 32.9709 12.4704 32.9709C14.14 31.2745 18.5637 31.2745 20.2322 32.9721C20.2322 32.9721 20.2322 32.9721 20.2327 32.9721C20.879 33.6297 22.1901 34.0387 23.6536 34.0387C25.1182 34.0387 26.4292 33.6297 27.0761 32.9721C28.7441 31.2745 33.1694 31.2745 34.8379 32.9721C34.9841 33.1208 34.9999 33.3798 34.873 33.5519C34.7461 33.7234 34.5249 33.7419 34.3787 33.5933C33.7318 32.9357 32.4208 32.5267 30.9567 32.5267C29.4926 32.5267 28.1816 32.9357 27.5348 33.5933C25.8662 35.2909 21.442 35.2909 19.7735 33.5939L19.773 33.5933C19.1261 32.9357 17.8146 32.5267 16.351 32.5267C14.8875 32.5267 13.577 32.9357 12.9301 33.5927C12.9296 33.5933 12.9296 33.5933 12.9285 33.5933C12.0951 34.4415 10.5712 34.8665 9.04791 34.8665Z" fill="#E6AE00"/>
  </g>
  <path fill-rule="evenodd" clip-rule="evenodd" d="M19.9962 23.0233C18.8556 23.0233 17.9277 22.143 17.9277 21.0617C17.9277 20.8334 18.0839 20.6496 18.2779 20.6496C18.4713 20.6496 18.6286 20.8334 18.6286 21.0617C18.6286 21.6785 19.2545 22.2004 19.9962 22.2004C20.7374 22.2004 21.3633 21.6785 21.3633 21.0617C21.3633 20.4436 20.7374 19.9217 19.9962 19.9217C18.8556 19.9217 17.9277 19.0414 17.9277 17.9594C17.9277 16.8768 18.8556 15.9966 19.9962 15.9966C21.1363 15.9966 22.0647 16.8768 22.0647 17.9594C22.0647 18.1864 21.9074 18.3709 21.714 18.3709C21.5206 18.3709 21.3633 18.1864 21.3633 17.9594C21.3633 17.3413 20.7369 16.8195 19.9962 16.8195C19.2545 16.8195 18.6286 17.3413 18.6286 17.9594C18.6286 18.5763 19.2545 19.0982 19.9962 19.0982C21.1363 19.0982 22.0647 19.9791 22.0647 21.0617C22.0647 22.143 21.1363 23.0233 19.9962 23.0233Z" fill="#E6AE00"/>
  <path fill-rule="evenodd" clip-rule="evenodd" d="M19.9962 23.954C19.8028 23.954 19.6455 23.7695 19.6455 23.5425V15.4764C19.6455 15.2488 19.8028 15.0649 19.9962 15.0649C20.1896 15.0649 20.3464 15.2488 20.3464 15.4764V23.5425C20.3464 23.7695 20.1896 23.954 19.9962 23.954Z" fill="#E6AE00"/>
  <path fill-rule="evenodd" clip-rule="evenodd" d="M19.9996 26.5844C19.9965 26.5844 19.9933 26.5844 19.9907 26.5844C18.3652 26.5708 16.7873 26.54 16.3423 26.5313C14.1826 26.4869 13.346 25.189 13.0241 24.1071C12.567 22.5698 12.8134 20.3972 13.7187 17.9909C14.5406 15.8059 15.794 13.7641 17.0714 12.5285C17.2203 12.3842 17.4415 12.4095 17.5647 12.584C17.6879 12.7598 17.6669 13.0189 17.517 13.1639C16.3203 14.3217 15.1398 16.2501 14.3603 18.3227C13.5394 20.5064 13.2936 22.5155 13.6862 23.8356C14.0468 25.0496 14.9453 25.6801 16.3543 25.7078C17.2717 25.7269 18.7117 25.751 20.0017 25.7615C20.0022 25.7615 20.0027 25.7615 20.0033 25.7615C21.2938 25.7504 22.7291 25.7269 23.6443 25.7078C25.0544 25.6801 25.9519 25.0496 26.313 23.8356C26.7057 22.5155 26.4593 20.5064 25.6384 18.3227C24.8589 16.2501 23.6789 14.3217 22.4822 13.1639C22.3323 13.0189 22.3108 12.7598 22.434 12.584C22.5577 12.4088 22.7784 12.3842 22.9278 12.5285C24.2052 13.7641 25.4581 15.8059 26.28 17.9909C27.1853 20.3972 27.4322 22.5698 26.9751 24.1071C26.6527 25.189 25.8161 26.4869 23.6564 26.5313C22.7385 26.5498 21.2965 26.5733 20.0017 26.5844C20.0012 26.5844 20.0001 26.5844 19.9996 26.5844Z" fill="#E6AE00"/>
  <path fill-rule="evenodd" clip-rule="evenodd" d="M22.7707 13.2585H17.2194C16.3891 13.2585 15.7129 12.4653 15.7129 11.49C15.7129 10.5141 16.3891 9.72021 17.2194 9.72021H22.7707C23.6015 9.72021 24.2777 10.5147 24.2777 11.49C24.2777 12.4653 23.6015 13.2585 22.7707 13.2585ZM17.2194 10.5437C16.7754 10.5437 16.4143 10.9681 16.4143 11.4894C16.4143 12.0112 16.7754 12.4357 17.2194 12.4357H22.7707C23.2157 12.4357 23.5764 12.0112 23.5764 11.49C23.5764 10.9681 23.2157 10.5437 22.7707 10.5437H17.2194Z" fill="#E6AE00"/>
  <path fill-rule="evenodd" clip-rule="evenodd" d="M17.5141 10.5438C17.3594 10.5438 17.2174 10.4222 17.176 10.2384L16.0977 5.51755C16.0699 5.39418 16.0919 5.26155 16.1585 5.16038C16.2245 5.0586 16.3273 5 16.4368 5C16.8546 5 17.2043 5.32262 17.5429 5.63537C17.7756 5.85066 18.0398 6.09555 18.2154 6.09555C18.39 6.09555 18.6542 5.85066 18.8875 5.63537C19.2256 5.32262 19.5757 5 19.9935 5C20.4118 5 20.7609 5.32262 21.0996 5.63537C21.3323 5.85066 21.5965 6.09555 21.7721 6.09555C21.9467 6.09555 22.2114 5.85066 22.4447 5.63537C22.7828 5.32262 23.1324 5 23.5507 5C23.6592 5 23.762 5.05922 23.8285 5.16038C23.8946 5.26155 23.9176 5.39418 23.8888 5.51755L22.8116 10.2384C22.7613 10.458 22.5689 10.5882 22.3818 10.529C22.1951 10.471 22.084 10.2452 22.1343 10.0256L23.0176 6.15415C22.9709 6.19672 22.9238 6.2399 22.8782 6.28246C22.5395 6.59521 22.1899 6.91783 21.7721 6.91783C21.3543 6.91783 21.0042 6.59521 20.6661 6.28246C20.4328 6.06717 20.1686 5.8229 19.9935 5.8229C19.8184 5.8229 19.5542 6.06717 19.3215 6.28246C18.9823 6.59521 18.6332 6.91906 18.2154 6.91906C17.7971 6.91906 17.4475 6.59521 17.1094 6.28246C17.0632 6.2399 17.0161 6.19672 16.9689 6.15415L17.8532 10.0256C17.9025 10.2452 17.7919 10.471 17.6047 10.5296C17.5743 10.5388 17.5439 10.5438 17.5141 10.5438Z" fill="#E6AE00"/>
</svg>