<svg xmlns="http://www.w3.org/2000/svg" width="40" height="40" viewBox="0 0 40 40" fill="none">
  <path d="M20.9152 6.02928C12.4756 5.48991 5.48991 12.4756 6.02928 20.9152C6.47521 27.8906 12.1094 33.5248 19.0848 33.9707C27.5237 34.5101 34.5101 27.5244 33.9707 19.0855C33.5248 12.1094 27.8899 6.47521 20.9152 6.02928ZM26.3385 26.9465C26.8895 25.055 27.2179 22.8789 27.2619 20.5387H32.9092C32.7855 23.5392 31.6332 26.278 29.7966 28.4135C28.9542 27.8233 27.7759 27.3244 26.3385 26.9465ZM10.2034 28.4135C8.36609 26.278 7.21383 23.5392 7.09016 20.5387H12.7374C12.7814 22.8789 13.1105 25.055 13.6609 26.9465C12.2228 27.3244 11.0451 27.8233 10.2034 28.4135ZM13.6581 13.0631C13.1091 14.9526 12.7814 17.1252 12.7374 19.4613H7.09016C7.21383 16.4745 8.3551 13.7481 10.1766 11.6167C11.0334 12.1973 12.22 12.6893 13.6581 13.0631ZM19.4613 19.4613H13.8141C13.8608 17.2331 14.192 15.1299 14.7334 13.3104C16.1887 13.6038 17.8027 13.7708 19.4613 13.801V19.4613ZM19.4613 20.5387V26.199C17.7992 26.2292 16.1859 26.3989 14.7355 26.6964C14.1927 24.8749 13.8608 22.7697 13.8141 20.5387H19.4613ZM20.538 20.5387H26.1852C26.1392 22.7697 25.8066 24.8749 25.2645 26.6964C23.8134 26.3989 22.2001 26.2292 20.538 26.199V20.5387ZM20.538 19.4613V13.801C22.1966 13.7708 23.8106 13.6031 25.2659 13.3097C25.8073 15.1299 26.1392 17.2331 26.1852 19.4613H20.538ZM20.538 12.7243V7.13138C22.3066 7.46737 23.889 9.43109 24.9265 12.2812C23.5736 12.545 22.0771 12.6955 20.538 12.7243ZM19.4613 7.13138V12.7243C17.9229 12.6955 16.4257 12.545 15.0728 12.2812C16.1104 9.43109 17.6927 7.46669 19.4613 7.13138ZM19.4613 27.2763V32.8686C17.6941 32.5333 16.1124 30.5717 15.0749 27.725C16.4237 27.4571 17.9195 27.3052 19.4613 27.2763ZM20.538 32.8686V27.2763C22.0798 27.3052 23.5756 27.4571 24.9244 27.725C23.8869 30.5717 22.3059 32.5333 20.538 32.8686ZM27.2619 19.4613C27.2186 17.1252 26.8909 14.9526 26.3419 13.0631C27.78 12.6893 28.9659 12.1973 29.8227 11.6167C31.6442 13.7474 32.7862 16.4745 32.9092 19.4613H27.2619ZM29.0786 10.8135C28.3249 11.2911 27.2695 11.7122 26.0128 12.0352C25.3367 10.1244 24.4194 8.57016 23.3393 7.51684C25.5366 8.105 27.5051 9.25932 29.0786 10.8135ZM13.9872 12.0352C12.7298 11.7129 11.6751 11.2917 10.9214 10.8142C12.4942 9.25932 14.4634 8.10568 16.6607 7.51684C15.5799 8.57016 14.6626 10.1251 13.9872 12.0352ZM10.9489 29.2126C11.6861 28.7282 12.7333 28.3008 13.99 27.9737C14.6654 29.8804 15.582 31.4312 16.6607 32.4832C14.4757 31.8978 12.5168 30.7537 10.9489 29.2126ZM26.0093 27.9737C27.266 28.3008 28.3132 28.7282 29.0511 29.2126C27.4825 30.7537 25.5243 31.8984 23.3386 32.4832C24.418 31.4312 25.3339 29.8804 26.0093 27.9737Z" fill="#E6AE00"/>
</svg>