<svg xmlns="http://www.w3.org/2000/svg" width="40" height="40" viewBox="0 0 40 40" fill="none">
  <mask id="mask0_725_9778" style="mask-type:luminance" maskUnits="userSpaceOnUse" x="5" y="23" width="15" height="12">
    <path d="M5 23.6382H19.1407V35H5V23.6382Z" fill="white"/>
  </mask>
  <g mask="url(#mask0_725_9778)">
    <path d="M6.00044 30.0001C6.00044 29.2107 7.15034 29.0006 7.828 29.0006H12.4037L15.345 29.9749C15.4501 30.0104 15.5545 30.0104 15.6596 29.9749L18.0024 29.1943V29.6911L15.431 30.9765L13.1011 30.5105C13.065 30.503 13.0281 30.4996 12.9913 30.5003C12.9544 30.501 12.9176 30.5057 12.8814 30.5146C12.8459 30.5235 12.8111 30.5364 12.7777 30.5528C12.7449 30.5692 12.7135 30.5897 12.6849 30.6129C12.6562 30.6361 12.6303 30.6627 12.6077 30.692C12.5845 30.7213 12.5654 30.7527 12.5497 30.7862C12.5334 30.8196 12.5218 30.8544 12.5136 30.8906C12.5054 30.9267 12.5013 30.9636 12.5013 31.0004V35.0001H13.5017V31.6104L15.4016 31.9904C15.5135 32.0123 15.6207 31.998 15.723 31.9481L18.7237 30.4477C18.809 30.4054 18.8766 30.3447 18.9271 30.2635C18.9769 30.183 19.0021 30.095 19.0021 30.0001V28.5004C19.0028 28.4199 18.9844 28.3442 18.9475 28.2725C18.9107 28.2009 18.8602 28.1415 18.7947 28.0944C18.7298 28.0474 18.6575 28.0173 18.5783 28.0057C18.4985 27.9935 18.4207 28.0003 18.3449 28.0262L15.5019 28.9733L12.6412 28.0255C12.59 28.0092 12.5381 28.0003 12.4842 28.0003H11.0102C11.0846 27.9628 11.1576 27.9211 11.2279 27.8754C11.2982 27.8297 11.365 27.7806 11.4299 27.7274C11.4947 27.6741 11.5561 27.6175 11.6148 27.5575C11.6728 27.4974 11.7281 27.4347 11.7793 27.3685C11.8305 27.3023 11.8782 27.2334 11.9212 27.1617C11.9649 27.0901 12.0045 27.0164 12.04 26.9407C12.0754 26.8649 12.1068 26.7871 12.1335 26.708C12.1601 26.6288 12.1826 26.5483 12.2003 26.4665C12.2181 26.3846 12.231 26.302 12.2392 26.2188C12.2481 26.1355 12.2522 26.0516 12.2508 25.9677C12.2501 25.8844 12.2447 25.8005 12.2345 25.718C12.2249 25.6347 12.2099 25.5522 12.1908 25.471C12.1717 25.3891 12.1478 25.3093 12.1191 25.2301C12.0911 25.1516 12.0584 25.0745 12.0215 24.9995C11.9847 24.9244 11.9437 24.8514 11.8987 24.7805C11.8543 24.7102 11.8052 24.642 11.7527 24.5771C11.7001 24.5116 11.6442 24.4495 11.5848 24.3909C11.5254 24.3315 11.4626 24.2762 11.3971 24.2244C11.3309 24.1725 11.2627 24.1241 11.1917 24.0804C11.1207 24.0361 11.047 23.9958 10.972 23.9596C10.8962 23.9235 10.8191 23.8914 10.7399 23.8641C10.6608 23.8368 10.5802 23.8136 10.4983 23.7952C10.4171 23.7768 10.3346 23.7625 10.2513 23.7536C10.1681 23.744 10.0848 23.7393 10.0009 23.7393C9.91692 23.7393 9.83366 23.744 9.7504 23.7536C9.66715 23.7625 9.58457 23.7768 9.50336 23.7952C9.42147 23.8136 9.34094 23.8368 9.26178 23.8641C9.18262 23.8914 9.10551 23.9235 9.02976 23.9596C8.95469 23.9958 8.88099 24.0361 8.81001 24.0804C8.73904 24.1241 8.6708 24.1725 8.6046 24.2244C8.53909 24.2762 8.4763 24.3315 8.41693 24.3909C8.35756 24.4495 8.3016 24.5116 8.24905 24.5771C8.19651 24.642 8.14737 24.7102 8.10301 24.7805C8.05797 24.8514 8.01703 24.9244 7.98018 24.9995C7.94333 25.0745 7.91057 25.1516 7.88259 25.2301C7.85393 25.3093 7.83004 25.3891 7.81093 25.471C7.79183 25.5522 7.77681 25.6347 7.76726 25.718C7.75702 25.8005 7.75156 25.8844 7.75088 25.9677C7.74952 26.0516 7.75361 26.1355 7.76248 26.2188C7.77067 26.302 7.78364 26.3846 7.80138 26.4665C7.81912 26.5483 7.84164 26.6288 7.86826 26.708C7.89487 26.7871 7.92627 26.8649 7.96175 26.9407C7.99724 27.0164 8.03682 27.0901 8.08049 27.1617C8.12349 27.2334 8.17126 27.3023 8.22244 27.3685C8.27362 27.4347 8.3289 27.4974 8.38691 27.5575C8.4456 27.6175 8.50701 27.6741 8.57185 27.7274C8.63668 27.7806 8.70355 27.8297 8.77384 27.8754C8.84414 27.9211 8.91716 27.9628 8.99154 28.0003H7.828C6.13625 28.0003 5 28.8041 5 30.0001V35.0001H6.00044V30.0001ZM10.0009 24.7504C10.0827 24.7504 10.164 24.7586 10.2445 24.7743C10.325 24.7907 10.4035 24.8139 10.4792 24.8453C10.555 24.8767 10.6273 24.9156 10.6956 24.9613C10.7638 25.0063 10.8266 25.0582 10.8846 25.1162C10.9426 25.1742 10.9945 25.2376 11.0402 25.3058C11.0859 25.3741 11.1248 25.4464 11.1562 25.5221C11.1876 25.5979 11.2108 25.6757 11.2272 25.7562C11.2429 25.8367 11.2511 25.9186 11.2511 26.0004C11.2511 26.0823 11.2429 26.1635 11.2272 26.244C11.2108 26.3245 11.1876 26.403 11.1562 26.4787C11.1248 26.5545 11.0859 26.6268 11.0402 26.695C10.9945 26.7633 10.9426 26.826 10.8846 26.884C10.8266 26.942 10.7638 26.9939 10.6956 27.0396C10.6273 27.0853 10.555 27.1235 10.4792 27.1549C10.4035 27.1863 10.325 27.2102 10.2445 27.2266C10.164 27.2422 10.0827 27.2504 10.0009 27.2504C9.91896 27.2504 9.83776 27.2422 9.75723 27.2266C9.6767 27.2102 9.59822 27.1863 9.52247 27.1549C9.44672 27.1235 9.37438 27.0853 9.30614 27.0396C9.2379 26.9939 9.17511 26.942 9.11711 26.884C9.0591 26.826 9.00724 26.7633 8.96151 26.695C8.91579 26.6268 8.87689 26.5545 8.8455 26.4787C8.81411 26.403 8.79091 26.3245 8.77453 26.244C8.75883 26.1635 8.75064 26.0823 8.75064 26.0004C8.75064 25.9186 8.75883 25.8367 8.77453 25.7562C8.79091 25.6757 8.81411 25.5979 8.8455 25.5221C8.87689 25.4464 8.91579 25.3741 8.96151 25.3058C9.00724 25.2376 9.0591 25.1742 9.11711 25.1162C9.17511 25.0582 9.2379 25.0063 9.30614 24.9613C9.37438 24.9156 9.44672 24.8767 9.52247 24.8453C9.59822 24.8139 9.6767 24.7907 9.75723 24.7743C9.83776 24.7586 9.91896 24.7504 10.0009 24.7504Z" fill="#E6AE00"/>
  </g>
  <mask id="mask1_725_9778" style="mask-type:luminance" maskUnits="userSpaceOnUse" x="6" y="30" width="3" height="5">
    <path d="M6.90918 30.9736H8.1321V34.9993H6.90918V30.9736Z" fill="white"/>
  </mask>
  <g mask="url(#mask1_725_9778)">
    <path d="M7 30.9995H8.00044V34.9992H7V30.9995Z" fill="#E6AE00"/>
  </g>
  <path d="M14.2991 25.8883L16.7995 26.9595C16.9312 27.0162 17.0623 27.0162 17.194 26.9595L19.6944 25.8883C19.7865 25.8487 19.8595 25.7873 19.9148 25.7041C19.9701 25.6202 19.9974 25.5287 19.9974 25.4284V22.5716C19.9974 22.4713 19.9701 22.3799 19.9148 22.2966C19.8595 22.2127 19.7865 22.1513 19.6944 22.1124L17.194 21.0405C17.0623 20.9845 16.9312 20.9845 16.7995 21.0405L14.2991 22.1124C14.2076 22.1513 14.1339 22.2127 14.0787 22.2966C14.0241 22.3799 13.9961 22.4713 13.9961 22.5716V25.4284C13.9961 25.5287 14.0241 25.6202 14.0787 25.7041C14.1339 25.7873 14.2076 25.8487 14.2991 25.8883ZM14.9965 23.3297L16.4965 23.9724V25.7423L14.9965 25.1002V23.3297ZM17.497 25.7423V23.9724L18.9969 23.3297V25.1002L17.497 25.7423ZM16.9967 22.0421L18.2278 22.5696L16.9967 23.1004L15.7656 22.573L16.9967 22.0421Z" fill="#E6AE00"/>
  <mask id="mask2_725_9778" style="mask-type:luminance" maskUnits="userSpaceOnUse" x="20" y="9" width="15" height="12">
    <path d="M20.8828 9.14209H35.0003V20.6704H20.8828V9.14209Z" fill="white"/>
  </mask>
  <g mask="url(#mask2_725_9778)">
    <path d="M32.1732 13.5013H31.0096C31.084 13.4637 31.157 13.4221 31.2273 13.3764C31.2976 13.3307 31.3645 13.2816 31.4293 13.2283C31.4941 13.1751 31.5556 13.1185 31.6142 13.0584C31.6722 12.9984 31.7275 12.9349 31.7787 12.8688C31.8299 12.8026 31.8777 12.7343 31.9207 12.6627C31.9643 12.5911 32.0039 12.5174 32.0394 12.4416C32.0749 12.3659 32.1063 12.2881 32.1329 12.209C32.1595 12.1291 32.182 12.0486 32.1998 11.9667C32.2175 11.8849 32.2305 11.8023 32.2387 11.7191C32.2475 11.6358 32.2516 11.5526 32.2503 11.4687C32.2496 11.3854 32.2441 11.3015 32.2339 11.2183C32.2243 11.1357 32.2093 11.0531 32.1902 10.9719C32.1711 10.8901 32.1472 10.8102 32.1186 10.7311C32.0906 10.6526 32.0578 10.5755 32.021 10.5005C31.9841 10.4247 31.9432 10.3524 31.8981 10.2814C31.8538 10.2112 31.8046 10.1429 31.7521 10.0774C31.6995 10.0126 31.6436 9.95052 31.5842 9.89184C31.5248 9.83248 31.4621 9.77721 31.3965 9.72536C31.3303 9.6735 31.2621 9.62506 31.1911 9.58071C31.1202 9.53636 31.0465 9.4961 30.9714 9.46062C30.8956 9.42446 30.8185 9.39239 30.7394 9.3651C30.6602 9.33712 30.5797 9.31461 30.4978 9.29618C30.4166 9.27708 30.334 9.26343 30.2507 9.25388C30.1675 9.24501 30.0842 9.24023 30.0003 9.24023C29.9164 9.24023 29.8331 9.24501 29.7498 9.25388C29.6666 9.26343 29.584 9.27708 29.5028 9.29618C29.4209 9.31461 29.3404 9.33712 29.2612 9.3651C29.1821 9.39239 29.1049 9.42446 29.0292 9.46062C28.9541 9.4961 28.8804 9.53636 28.8094 9.58071C28.7385 9.62506 28.6702 9.6735 28.604 9.72536C28.5385 9.77721 28.4757 9.83248 28.4164 9.89184C28.357 9.95052 28.301 10.0126 28.2485 10.0774C28.1959 10.1429 28.1468 10.2112 28.1024 10.2814C28.0574 10.3524 28.0165 10.4247 27.9796 10.5005C27.9428 10.5755 27.91 10.6526 27.882 10.7311C27.8534 10.8102 27.8295 10.8901 27.8104 10.9719C27.7913 11.0531 27.7762 11.1357 27.7667 11.2183C27.7565 11.3015 27.751 11.3854 27.7503 11.4687C27.749 11.5526 27.753 11.6358 27.7619 11.7191C27.7701 11.8023 27.7831 11.8849 27.8008 11.9667C27.8186 12.0486 27.8411 12.1291 27.8677 12.209C27.8943 12.2881 27.9257 12.3659 27.9612 12.4416C27.9967 12.5174 28.0363 12.5911 28.0799 12.6627C28.1229 12.7343 28.1707 12.8026 28.2219 12.8688C28.2731 12.9349 28.3283 12.9984 28.3863 13.0584C28.445 13.1185 28.5064 13.1751 28.5713 13.2283C28.6361 13.2816 28.703 13.3307 28.7733 13.3764C28.8436 13.4221 28.9166 13.4637 28.991 13.5013H27.5169C27.463 13.5013 27.4111 13.5101 27.36 13.5265L24.4992 14.4742L21.6562 13.5272C21.6187 13.5149 21.5805 13.5067 21.5409 13.5033C21.5013 13.4999 21.4624 13.5013 21.4228 13.5074C21.3839 13.5135 21.3464 13.5238 21.3095 13.5388C21.2727 13.5538 21.2386 13.5729 21.2065 13.5961C21.1744 13.6193 21.1451 13.6459 21.1198 13.6759C21.0939 13.706 21.072 13.7387 21.0536 13.7735C21.0359 13.809 21.0222 13.8458 21.0127 13.884C21.0038 13.9223 20.999 13.9618 20.999 14.0014V15.5011C20.999 15.596 21.0236 15.6833 21.0734 15.7645C21.1232 15.845 21.1908 15.9064 21.2754 15.9487L24.2761 17.4484C24.3784 17.4989 24.4856 17.5133 24.5975 17.4914L26.4974 17.1114V20.5011H27.4978V16.5014C27.4978 16.4639 27.4937 16.4277 27.4855 16.3915C27.4773 16.3554 27.4657 16.3206 27.4494 16.2865C27.4337 16.253 27.4146 16.2216 27.3914 16.193C27.3688 16.1636 27.3429 16.137 27.3142 16.1138C27.2856 16.0906 27.2542 16.0702 27.2214 16.0538C27.188 16.0374 27.1532 16.0245 27.1177 16.0156C27.0815 16.0067 27.0447 16.0019 27.0078 16.0013C26.971 16.0006 26.9341 16.004 26.898 16.0115L24.5661 16.4768L21.9988 15.192V14.6953L24.3416 15.4752C24.4467 15.5107 24.5511 15.5107 24.6562 15.4752L27.6002 14.5009H32.1759C32.8508 14.5009 34.0007 14.7117 34.0007 15.5011V20.5011H35.0011V15.5011C35.0011 14.3043 33.8649 13.5013 32.1732 13.5013ZM30.0003 10.2514C30.0822 10.2514 30.1634 10.2589 30.2439 10.2753C30.3244 10.291 30.4029 10.3149 30.4787 10.3463C30.5544 10.3776 30.6268 10.4165 30.695 10.4616C30.7632 10.5073 30.826 10.5591 30.884 10.6171C30.942 10.6751 30.9939 10.7386 31.0396 10.8068C31.0854 10.8751 31.1243 10.9467 31.1556 11.0231C31.187 11.0988 31.2102 11.1766 31.2266 11.2571C31.2423 11.3377 31.2505 11.4189 31.2505 11.5014C31.2505 11.5833 31.2423 11.6645 31.2266 11.745C31.2102 11.8255 31.187 11.904 31.1556 11.9797C31.1243 12.0555 31.0854 12.1271 31.0396 12.1953C30.9939 12.2636 30.942 12.327 30.884 12.385C30.826 12.443 30.7632 12.4949 30.695 12.5406C30.6268 12.5863 30.5544 12.6245 30.4787 12.6559C30.4029 12.6873 30.3244 12.7112 30.2439 12.7268C30.1634 12.7432 30.0822 12.7514 30.0003 12.7514C29.9184 12.7514 29.8372 12.7432 29.7567 12.7268C29.6761 12.7112 29.5977 12.6873 29.5219 12.6559C29.4462 12.6245 29.3738 12.5863 29.3056 12.5406C29.2373 12.4949 29.1745 12.443 29.1165 12.385C29.0585 12.327 29.0067 12.2636 28.9609 12.1953C28.9152 12.1271 28.8763 12.0555 28.8449 11.9797C28.8135 11.904 28.7903 11.8255 28.774 11.745C28.7583 11.6645 28.7501 11.5833 28.7501 11.5014C28.7501 11.4189 28.7583 11.3377 28.774 11.2571C28.7903 11.1766 28.8135 11.0988 28.8449 11.0231C28.8763 10.9467 28.9152 10.8751 28.9609 10.8068C29.0067 10.7386 29.0585 10.6751 29.1165 10.6171C29.1745 10.5591 29.2373 10.5073 29.3056 10.4616C29.3738 10.4165 29.4462 10.3776 29.5219 10.3463C29.5977 10.3149 29.6761 10.291 29.7567 10.2753C29.8372 10.2589 29.9184 10.2514 30.0003 10.2514Z" fill="#E6AE00"/>
  </g>
  <path d="M32.0049 16.501H33.0053V20.5007H32.0049V16.501Z" fill="#E6AE00"/>
  <mask id="mask3_725_9778" style="mask-type:luminance" maskUnits="userSpaceOnUse" x="20" y="5" width="7" height="9">
    <path d="M20.8828 5H26.1239V13.1577H20.8828V5Z" fill="white"/>
  </mask>
  <g mask="url(#mask3_725_9778)">
    <path d="M24.9994 7.7504H25.9999C25.991 7.62758 25.9699 7.50613 25.9378 7.38741C25.905 7.26868 25.8613 7.15406 25.8061 7.0442C25.7515 6.93367 25.6866 6.82996 25.6109 6.73239C25.5358 6.63482 25.4519 6.54543 25.3591 6.46424C25.2663 6.38304 25.1666 6.3114 25.0602 6.24999C24.953 6.18859 24.8418 6.13741 24.7251 6.09784C24.6084 6.05826 24.489 6.03029 24.3668 6.01323C24.2447 5.99686 24.1225 5.99276 23.999 6.00027V5H22.9992V6.00027C22.8764 5.99276 22.7536 5.99686 22.6314 6.01323C22.5092 6.03029 22.3898 6.05826 22.2731 6.09784C22.1564 6.13741 22.0452 6.18859 21.938 6.24999C21.8316 6.3114 21.732 6.38304 21.6391 6.46424C21.5463 6.54543 21.4624 6.63482 21.3873 6.73239C21.3123 6.82996 21.2467 6.93367 21.1922 7.0442C21.1369 7.15406 21.0932 7.26868 21.0611 7.38741C21.0284 7.50613 21.0079 7.62758 20.999 7.7504C21.0079 7.87321 21.0284 7.99398 21.0611 8.1127C21.0932 8.23143 21.1369 8.34605 21.1922 8.45659C21.2467 8.56644 21.3123 8.67083 21.3873 8.7684C21.4624 8.86597 21.5463 8.95536 21.6391 9.03587C21.732 9.11707 21.8316 9.18871 21.938 9.25012C22.0452 9.31221 22.1564 9.3627 22.2731 9.40227C22.3898 9.44253 22.5092 9.4705 22.6314 9.48688C22.7536 9.50325 22.8764 9.50735 22.9992 9.49984V11.0002C22.4567 11.0002 21.9988 10.6564 21.9988 10.2504H20.999C21.0079 10.3732 21.0284 10.494 21.0611 10.6127C21.0932 10.7314 21.1369 10.846 21.1922 10.9566C21.2467 11.0664 21.3123 11.1708 21.3873 11.2684C21.4624 11.366 21.5463 11.4553 21.6391 11.5359C21.732 11.6171 21.8316 11.6887 21.938 11.7501C22.0452 11.8122 22.1564 11.8627 22.2731 11.9023C22.3898 11.9425 22.5092 11.9705 22.6314 11.9869C22.7536 12.0032 22.8764 12.0073 22.9992 11.9998V13.0001H23.999V11.9998C24.1225 12.0073 24.2447 12.0032 24.3668 11.9869C24.489 11.9705 24.6084 11.9425 24.7251 11.9023C24.8418 11.8627 24.953 11.8122 25.0602 11.7501C25.1666 11.6887 25.2663 11.6171 25.3591 11.5359C25.4519 11.4553 25.5358 11.366 25.6109 11.2684C25.6866 11.1708 25.7515 11.0664 25.8061 10.9566C25.8613 10.846 25.905 10.7314 25.9378 10.6127C25.9699 10.494 25.991 10.3732 25.9999 10.2504C25.991 10.1276 25.9699 10.0061 25.9378 9.88739C25.905 9.76867 25.8613 9.65404 25.8061 9.54419C25.7515 9.43366 25.6866 9.32995 25.6109 9.23238C25.5358 9.13481 25.4519 9.04542 25.3591 8.96423C25.2663 8.88303 25.1666 8.81139 25.0602 8.74998C24.953 8.68857 24.8418 8.6374 24.7251 8.59783C24.6084 8.55825 24.489 8.53028 24.3668 8.51322C24.2447 8.49684 24.1225 8.49275 23.999 8.50026V6.99985C24.5415 6.99985 24.9994 7.34374 24.9994 7.7504ZM24.9994 10.2504C24.9994 10.6564 24.5415 11.0002 23.999 11.0002V9.49984C24.5415 9.49984 24.9994 9.84373 24.9994 10.2504ZM22.9992 8.50026C22.4567 8.50026 21.9988 8.15637 21.9988 7.7504C21.9988 7.34374 22.4567 6.99985 22.9992 6.99985V8.50026Z" fill="#E6AE00"/>
  </g>
  <path d="M9.00074 19.9998C9.00142 19.6395 9.01916 19.2807 9.05533 18.9224C9.09082 18.5635 9.14405 18.2081 9.21434 17.8546C9.28531 17.5019 9.37266 17.1525 9.47776 16.808C9.58217 16.4634 9.70364 16.125 9.84149 15.7927C9.98003 15.4597 10.1336 15.1349 10.3035 14.817C10.4734 14.4997 10.659 14.1913 10.859 13.8918C11.059 13.5922 11.2739 13.3036 11.5018 13.0252C11.7305 12.7468 11.972 12.4801 12.2273 12.2256C12.4818 11.9711 12.7487 11.7295 13.0264 11.5009C13.3048 11.2724 13.5942 11.0581 13.8938 10.8575C14.1927 10.6576 14.5018 10.4727 14.8191 10.3028C15.1365 10.1329 15.462 9.9787 15.7943 9.84088C16.1274 9.70237 16.4659 9.5816 16.8105 9.47652C17.1551 9.37145 17.5038 9.28411 17.8573 9.21315C18.2108 9.14287 18.5664 9.08965 18.9247 9.05417C19.2836 9.01869 19.6426 9.00027 20.0029 9.00027V8C19.8064 8 19.6105 8.00546 19.414 8.01501C19.2181 8.02525 19.0222 8.03957 18.8271 8.05936C18.6312 8.07847 18.4367 8.10303 18.2422 8.13169C18.0484 8.16103 17.8546 8.19446 17.6622 8.23267C17.4697 8.27156 17.2786 8.31455 17.0882 8.36231C16.8971 8.41007 16.7081 8.46261 16.5204 8.51992C16.3328 8.57724 16.1465 8.63864 15.9615 8.70483C15.7766 8.77101 15.5937 8.84197 15.4122 8.91703C15.2307 8.99276 15.0512 9.07191 14.8737 9.15584C14.6963 9.24044 14.5209 9.32846 14.3483 9.42125C14.1749 9.51405 14.0043 9.61025 13.8358 9.71124C13.6672 9.81222 13.5014 9.91729 13.3383 10.0265C13.1752 10.1356 13.0148 10.2489 12.8572 10.3656C12.6988 10.4829 12.5446 10.6037 12.3924 10.7279C12.2409 10.8527 12.0922 10.981 11.9468 11.1127C11.8014 11.2444 11.6588 11.3802 11.5203 11.5187C11.3817 11.6579 11.2459 11.7998 11.1142 11.9451C10.9825 12.0905 10.8542 12.2392 10.7293 12.3914C10.6051 12.5428 10.4843 12.6977 10.367 12.8553C10.2503 13.0129 10.137 13.1733 10.0278 13.3364C9.91861 13.4994 9.81351 13.6652 9.71251 13.8338C9.61151 14.0023 9.51461 14.1729 9.42248 14.3462C9.32967 14.5188 9.24095 14.6942 9.15701 14.8716C9.07308 15.049 8.99323 15.2284 8.91816 15.4099C8.8431 15.5914 8.77212 15.7743 8.70593 15.9592C8.63973 16.1441 8.57763 16.3303 8.52099 16.518C8.46366 16.7063 8.41112 16.8953 8.36335 17.0857C8.31558 17.276 8.27258 17.4671 8.23369 17.6602C8.19547 17.8526 8.16135 18.0457 8.13269 18.2401C8.10334 18.4339 8.07946 18.629 8.05967 18.8242C8.04056 19.0193 8.02554 19.2151 8.01599 19.4117C8.00644 19.6075 8.00098 19.804 8.00098 19.9998H9.00074Z" fill="#E6AE00"/>
  <path d="M31.9042 21.564L30.912 21.4351C30.869 21.7626 30.8103 22.0867 30.738 22.4087C30.6649 22.7308 30.5776 23.0494 30.4766 23.3633C30.3749 23.6771 30.2596 23.9862 30.1306 24.2905C30.0016 24.5942 29.859 24.8916 29.7034 25.1823C29.5471 25.4737 29.3786 25.7568 29.197 26.0332C29.0155 26.3088 28.8224 26.5756 28.617 26.8342C28.4116 27.0928 28.1952 27.3418 27.9673 27.5806C27.7394 27.8194 27.5019 28.048 27.2535 28.2657C27.0051 28.4833 26.7478 28.6894 26.481 28.8838C26.2141 29.0783 25.9391 29.2605 25.6559 29.4304C25.3727 29.6003 25.0827 29.7565 24.7851 29.9005C24.4883 30.0445 24.1846 30.1741 23.8761 30.2908C23.567 30.4074 23.2537 30.5098 22.935 30.5978C22.617 30.6865 22.2956 30.7602 21.9708 30.8196C21.6459 30.8789 21.319 30.924 20.9901 30.954C20.6619 30.984 20.3322 30.999 20.002 30.9997V31.9993C20.3623 31.9993 20.7219 31.9822 21.0802 31.9495C21.4392 31.9167 21.7954 31.8683 22.1502 31.8035C22.5044 31.738 22.8552 31.6574 23.2019 31.5612C23.5492 31.465 23.8911 31.3531 24.2282 31.2262C24.5654 31.0993 24.8963 30.9574 25.2205 30.8005C25.5447 30.6435 25.8613 30.4723 26.1704 30.2874C26.4789 30.1018 26.7792 29.9032 27.0699 29.691C27.3613 29.4788 27.6418 29.2537 27.9127 29.0162C28.1836 28.7788 28.4436 28.5297 28.692 28.2691C28.9404 28.0084 29.1766 27.7369 29.4004 27.4551C29.6242 27.1726 29.8358 26.8813 30.0337 26.5804C30.2309 26.2795 30.4152 25.9704 30.5851 25.6524C30.755 25.3351 30.9106 25.0104 31.0519 24.6794C31.1925 24.3478 31.318 24.0108 31.4286 23.6676C31.5391 23.3251 31.634 22.9778 31.7138 22.6264C31.793 22.275 31.8565 21.9209 31.9042 21.564Z" fill="#E6AE00"/>
</svg>