<svg xmlns="http://www.w3.org/2000/svg" width="40" height="40" viewBox="0 0 40 40" fill="none">
  <path d="M15.249 15.208H16.4161V16.2286H15.249V15.208Z" fill="#E6AE00"/>
  <path d="M15.249 17.2505H16.4161V18.2711H15.249V17.2505Z" fill="#E6AE00"/>
  <path d="M15.249 19.292H16.4161V20.3126H15.249V19.292Z" fill="#E6AE00"/>
  <path d="M15.249 21.3335H16.4161V22.3547H15.249V21.3335Z" fill="#E6AE00"/>
  <path d="M17.5811 15.208H18.7482V16.2286H17.5811V15.208Z" fill="#E6AE00"/>
  <path d="M17.5811 17.2505H18.7482V18.2711H17.5811V17.2505Z" fill="#E6AE00"/>
  <path d="M17.5811 19.292H18.7482V20.3126H17.5811V19.292Z" fill="#E6AE00"/>
  <path d="M17.5811 21.3335H18.7482V22.3547H17.5811V21.3335Z" fill="#E6AE00"/>
  <path d="M19.9131 15.208H21.0795V16.2286H19.9131V15.208Z" fill="#E6AE00"/>
  <path d="M19.9131 17.2505H21.0795V18.2711H19.9131V17.2505Z" fill="#E6AE00"/>
  <path d="M19.9131 19.292H21.0795V20.3126H19.9131V19.292Z" fill="#E6AE00"/>
  <path d="M19.9131 21.3335H21.0795V22.3547H19.9131V21.3335Z" fill="#E6AE00"/>
  <path d="M22.252 15.208H23.4183V16.2286H22.252V15.208Z" fill="#E6AE00"/>
  <path d="M17.5811 13.167H18.7482V14.1882H17.5811V13.167Z" fill="#E6AE00"/>
  <path d="M19.9131 13.167H21.0795V14.1882H19.9131V13.167Z" fill="#E6AE00"/>
  <path d="M22.252 13.167H23.4183V14.1882H22.252V13.167Z" fill="#E6AE00"/>
  <path d="M22.252 17.2505H23.4183V18.2711H22.252V17.2505Z" fill="#E6AE00"/>
  <path d="M22.252 19.292H23.4183V20.3126H22.252V19.292Z" fill="#E6AE00"/>
  <path d="M22.252 21.3335H23.4183V22.3547H22.252V21.3335Z" fill="#E6AE00"/>
  <path d="M24.5928 15.208H25.7591V16.2286H24.5928V15.208Z" fill="#E6AE00"/>
  <path d="M24.5928 17.2505H25.7591V18.2711H24.5928V17.2505Z" fill="#E6AE00"/>
  <path d="M24.5928 19.292H25.7591V20.3126H24.5928V19.292Z" fill="#E6AE00"/>
  <path d="M24.5928 21.3335H25.7591V22.3547H24.5928V21.3335Z" fill="#E6AE00"/>
  <mask id="mask0_725_9691" style="mask-type:luminance" maskUnits="userSpaceOnUse" x="3" y="5" width="35" height="31">
    <path d="M3 5H38V35.625H3V5Z" fill="white"/>
  </mask>
  <g mask="url(#mask0_725_9691)">
    <path d="M37.4168 12.6562H28.6668V5.51029C28.6668 5.22824 28.406 5 28.0836 5H12.9171C12.594 5 12.3332 5.22824 12.3332 5.51029V12.6562H3.58319C3.26084 12.6562 3 12.8845 3 13.1665V31.5414C3 31.8241 3.26084 32.0523 3.58319 32.0523H4.80291C4.7703 32.2183 4.7503 32.3882 4.7503 32.5626V35.1147C4.7503 35.3968 5.01114 35.625 5.33348 35.625H35.6665C35.9896 35.625 36.2504 35.3968 36.2504 35.1147V32.5626C36.2504 32.3882 36.2297 32.2183 36.1978 32.0523H37.4168C37.7392 32.0523 38 31.8241 38 31.5414V13.1665C38 12.8845 37.7392 12.6562 37.4168 12.6562ZM28.0836 26.9482C28.0836 27.511 27.5605 27.9688 26.9165 27.9688C26.2733 27.9688 25.7501 27.511 25.7501 26.9482C25.7501 26.3847 26.2733 25.927 26.9165 25.927C27.5605 25.927 28.0836 26.3847 28.0836 26.9482ZM14.0835 25.927C14.7267 25.927 15.2499 26.3847 15.2499 26.9482C15.2499 27.511 14.7267 27.9688 14.0835 27.9688C13.4403 27.9688 12.9171 27.511 12.9171 26.9482C12.9171 26.3847 13.4403 25.927 14.0835 25.927ZM10.5836 34.6044H5.91667V32.5626C5.91667 31.4364 6.96299 30.5208 8.25015 30.5208C9.53731 30.5208 10.5836 31.4364 10.5836 32.5626V34.6044ZM7.08378 28.479C7.08378 27.9162 7.60694 27.4585 8.25015 27.4585C8.89336 27.4585 9.41652 27.9162 9.41652 28.479C9.41652 29.0418 8.89336 29.5003 8.25015 29.5003C7.60694 29.5003 7.08378 29.0418 7.08378 28.479ZM10.6718 30.3568C10.4532 30.172 10.2064 30.0112 9.9382 29.8815C10.3354 29.5145 10.5836 29.023 10.5836 28.479C10.5836 27.3534 9.53731 26.4372 8.25015 26.4372C6.96299 26.4372 5.91667 27.3534 5.91667 28.479C5.91667 29.023 6.16491 29.5145 6.56284 29.8815C6.00559 30.1506 5.54319 30.55 5.22381 31.0311H4.16711V13.6768H12.3332V25.6118C11.9745 25.9704 11.75 26.4346 11.75 26.9482C11.75 27.4922 11.9982 27.9837 12.3962 28.35C11.5336 28.7669 10.8949 29.4931 10.6718 30.3568ZM16.417 34.6044H11.75V31.0311C11.75 29.9055 12.7963 28.9893 14.0835 28.9893C15.3706 28.9893 16.417 29.9055 16.417 31.0311V34.6044ZM23.4167 34.6044H17.5833V31.0311C17.5833 29.6241 18.892 28.479 20.5 28.479C22.1088 28.479 23.4167 29.6241 23.4167 31.0311V34.6044ZM18.7504 25.927C18.7504 25.0827 19.5352 24.3961 20.5 24.3961C21.4648 24.3961 22.2503 25.0827 22.2503 25.927C22.2503 26.7712 21.4648 27.4585 20.5 27.4585C19.5352 27.4585 18.7504 26.7712 18.7504 25.927ZM24.0525 29.2766C23.6627 28.6749 23.081 28.1827 22.3792 27.8624C23.0084 27.3943 23.4167 26.705 23.4167 25.927C23.4167 24.5199 22.1088 23.3749 20.5 23.3749C18.892 23.3749 17.5833 24.5199 17.5833 25.927C17.5833 26.705 17.9916 27.3943 18.6215 27.8624C17.9198 28.1827 17.3373 28.6749 16.9475 29.2766C16.6415 28.8953 16.2399 28.5769 15.7715 28.35C16.1687 27.9837 16.417 27.4922 16.417 26.9482C16.417 25.8219 15.3706 24.9064 14.0835 24.9064C13.8812 24.9064 13.6878 24.9356 13.5003 24.979V6.02057H27.5004V24.979C27.3122 24.9356 27.1196 24.9064 26.9165 24.9064C25.6301 24.9064 24.5838 25.8219 24.5838 26.9482C24.5838 27.4922 24.8313 27.9837 25.2292 28.35C24.7609 28.5769 24.3592 28.8953 24.0525 29.2766ZM29.25 32.5626V34.6044H24.5838V31.0311C24.5838 29.9055 25.6301 28.9893 26.9165 28.9893C28.2037 28.9893 29.25 29.9055 29.25 31.0311V32.5626ZM35.0833 34.6044H30.4171V32.5626C30.4171 31.4364 31.4634 30.5208 32.7499 30.5208C34.037 30.5208 35.0833 31.4364 35.0833 32.5626V34.6044ZM31.5835 28.479C31.5835 27.9162 32.1066 27.4585 32.7499 27.4585C33.3938 27.4585 33.917 27.9162 33.917 28.479C33.917 29.0418 33.3938 29.5003 32.7499 29.5003C32.1066 29.5003 31.5835 29.0418 31.5835 28.479ZM36.8336 31.0311H35.7762C35.4576 30.55 34.9952 30.1506 34.4379 29.8815C34.8358 29.5145 35.0833 29.023 35.0833 28.479C35.0833 27.3534 34.037 26.4372 32.7499 26.4372C31.4634 26.4372 30.4171 27.3534 30.4171 28.479C30.4171 29.023 30.6646 29.5145 31.0625 29.8815C30.7943 30.0112 30.5483 30.172 30.3289 30.3568C30.1059 29.4931 29.4671 28.7669 28.6053 28.35C29.0025 27.9837 29.25 27.4922 29.25 26.9482C29.25 26.4346 29.0255 25.9704 28.6668 25.6118V13.6768H36.8336V31.0311Z" fill="#E6AE00"/>
  </g>
  <path d="M30.4141 16.7397H31.5804V24.9063H30.4141V16.7397Z" fill="#E6AE00"/>
  <path d="M33.9199 16.7397H35.0863V24.9063H33.9199V16.7397Z" fill="#E6AE00"/>
  <path d="M5.91406 16.7397H7.08117V24.9063H5.91406V16.7397Z" fill="#E6AE00"/>
  <path d="M9.41895 16.7397H10.5861V24.9063H9.41895V16.7397Z" fill="#E6AE00"/>
  <path d="M16.9972 12.1462H23.997C24.32 12.1462 24.5809 11.9179 24.5809 11.6359V7.55228C24.5809 7.27023 24.32 7.04199 23.997 7.04199H16.9972C16.6749 7.04199 16.4141 7.27023 16.4141 7.55228V11.6359C16.4141 11.9179 16.6749 12.1462 16.9972 12.1462ZM17.5804 8.06257H23.4138V11.1249H17.5804V8.06257Z" fill="#E6AE00"/>
</svg>