<svg xmlns="http://www.w3.org/2000/svg" width="40" height="40" viewBox="0 0 40 40" fill="none">
  <path fill-rule="evenodd" clip-rule="evenodd" d="M16.3134 25.2517C16.5958 25.2517 16.7832 25.4415 16.7832 25.7282C16.7832 26.0149 16.5958 26.2047 16.3134 26.2047H8.19094C7.90852 26.2047 7.72119 26.0149 7.72119 25.7282C7.72119 25.4415 7.90852 25.2517 8.19094 25.2517H16.3134ZM5.46975 21.2495H13.5922C13.8747 21.2495 14.062 21.4393 14.062 21.726C14.062 21.9967 13.8949 22.1808 13.6384 22.2008L13.5922 22.2025H5.46975C5.18734 22.2025 5 22.0127 5 21.726C5 21.4553 5.16709 21.2706 5.42362 21.2512L5.46975 21.2495ZM8.19094 17.2467H16.3134C16.5958 17.2467 16.7832 17.4365 16.7832 17.7232C16.7832 17.9945 16.6161 18.1786 16.3596 18.1985L16.3134 18.2002H8.19094C7.91021 18.2002 7.72119 18.0082 7.72119 17.7232C7.72119 17.4524 7.88827 17.2684 8.14481 17.2484L8.19094 17.2467ZM33.7263 16.512C34.5449 18.1358 35 19.9751 35 21.9158C35 28.541 29.6943 33.9271 23.1673 33.9231C20.0219 33.9231 17.0633 32.6851 14.8097 30.3973C14.6223 30.2075 14.6223 29.9208 14.8097 29.731C14.9964 29.5407 15.2789 29.5407 15.4662 29.731C17.5308 31.8291 20.2543 32.9718 23.1651 32.9718C29.1751 32.9718 34.0571 28.0166 34.0571 21.9158C34.0571 20.2515 33.6892 18.6676 33.0299 17.2484L33.7263 16.512ZM32.2867 18.0338C32.7936 19.2398 33.0743 20.5678 33.0743 21.962C33.0743 27.4911 28.662 31.9704 23.2146 31.9704C21.1977 31.9704 19.272 31.3503 17.6287 30.2075C17.3941 30.0662 17.3463 29.7795 17.4875 29.5407C17.6287 29.3509 17.9111 29.3024 18.1919 29.4421C19.6456 30.4902 21.3845 31.0152 23.2146 31.0152C28.1444 31.0152 32.1354 26.9645 32.1354 21.9602C32.1354 20.8437 31.9368 19.775 31.5733 18.7879L32.2867 18.0338ZM32.164 13.8714C32.582 13.8133 32.9905 14.0338 33.175 14.4186C33.3606 14.805 33.2808 15.2672 32.9781 15.5653C29.5244 19.0785 27.0288 21.9283 23.5347 25.482C23.1769 25.8496 22.6008 25.877 22.2115 25.5436L17.9787 21.9078C17.7789 21.7385 17.6541 21.4957 17.6327 21.2324C17.6096 20.9691 17.6912 20.708 17.8588 20.5068C18.027 20.3039 18.2673 20.1791 18.5255 20.1569C18.7848 20.1352 19.0419 20.219 19.2405 20.3894L22.7814 23.4262C25.8924 20.2253 28.3335 17.4878 31.5936 14.1706C31.7449 14.0093 31.9463 13.9039 32.1635 13.8714H32.164ZM23.2146 11.9535C25.7023 11.9535 27.974 12.8877 29.7084 14.4294L29.0597 15.1173C27.4947 13.7386 25.4514 12.9048 23.2146 12.9048C21.3367 12.9048 19.5044 13.4781 18.0023 14.6215C17.7677 14.7645 17.487 14.7167 17.3458 14.5263C17.2046 14.3365 17.2524 14.0036 17.4391 13.86C19.1303 12.6203 21.1499 11.9535 23.2146 11.9535ZM25.3276 7C25.61 7 25.7974 7.1898 25.7974 7.47648C25.7974 7.74721 25.6303 7.93188 25.3737 7.95126L25.3276 7.95297H23.6365V9.95409C26.3965 10.0476 28.8865 11.1014 30.8403 12.8016L30.9618 12.9087L31.0541 13.0022L30.3992 13.6976C28.4555 11.9626 25.9194 10.9053 23.1651 10.9053C20.1615 10.9053 17.3441 12.1456 15.2316 14.3849C15.0443 14.5747 14.7618 14.5747 14.5751 14.3849C14.3877 14.1951 14.3877 13.9085 14.5751 13.7187C16.6965 11.4263 19.4942 10.145 22.5288 9.96321L22.6976 9.95409V7.95297H21.0543C20.7719 7.95297 20.5851 7.76317 20.5851 7.47648C20.5851 7.20575 20.7516 7.02109 21.0081 7.00171L21.0543 7H25.3276Z" fill="#E6AE00"/>
</svg>