<svg xmlns="http://www.w3.org/2000/svg" width="144" height="29" viewBox="0 0 144 29" fill="none">
  <path d="M23.9849 15.7106C23.5873 15.9475 23.1235 15.9906 22.7701 15.7968C22.3284 15.5383 22.0634 14.9568 22.0634 14.1598V11.726C22.0634 10.5629 21.5996 9.72292 20.8045 9.50754C19.4573 9.11985 18.4413 10.7352 18.0658 11.3383L15.6806 15.0645V10.4768C15.6585 9.42139 15.3051 8.79677 14.6425 8.60293C14.2008 8.4737 13.5382 8.53831 12.8977 9.48601L7.57505 17.7998C6.8683 16.486 6.49284 15.0214 6.49284 13.5352C6.49284 8.51677 10.6229 4.446 15.6806 4.446C20.7382 4.446 24.8683 8.51677 24.8683 13.5352V13.5568V13.5783C24.9125 14.5475 24.6033 15.3229 23.9849 15.7106ZM26.9002 13.5352V13.5137V13.4922C26.8781 7.39677 21.8425 2.42139 15.6806 2.42139C9.49652 2.42139 4.46094 7.39677 4.46094 13.5352C4.46094 19.6522 9.49652 24.6491 15.6806 24.6491C18.5297 24.6491 21.2241 23.5937 23.3002 21.6768C23.7198 21.2891 23.7419 20.6645 23.3444 20.2552C22.9689 19.846 22.3284 19.8245 21.9088 20.1906C21.9088 20.1906 21.9088 20.1906 21.8867 20.2122C20.2082 21.7629 17.9554 22.646 15.6364 22.646C12.9198 22.646 10.4904 21.4829 8.81186 19.6306L13.6045 12.1352V15.6029C13.6045 17.2614 14.2671 17.7998 14.8192 17.9506C15.3714 18.1014 16.2106 17.9937 17.1162 16.5937L19.7444 12.4368C19.8327 12.3075 19.899 12.1783 19.9873 12.0922V14.2029C19.9873 15.7537 20.6278 17.0029 21.7321 17.606C22.726 18.166 23.9849 18.1014 25.0229 17.4768C26.3039 16.6583 26.9885 15.2368 26.9002 13.5352ZM42.537 9.74446C42.802 9.89523 43.045 10.2614 43.045 10.5845C43.045 11.1014 42.6033 11.5322 42.0953 11.5322C41.9628 11.5322 41.8524 11.4891 41.7419 11.4675C41.1456 11.0368 40.3947 10.7568 39.5996 10.7568C37.7223 10.7568 36.4413 12.2429 36.4413 14.0952C36.4413 15.9475 37.7444 17.4122 39.5996 17.4122C40.5272 17.4122 41.3665 17.046 41.9849 16.4645C42.1395 16.3568 42.3382 16.2922 42.537 16.2922C43.045 16.2922 43.4425 16.6798 43.4425 17.1752C43.4425 17.4983 43.2438 17.7783 43.0008 17.9291C42.0953 18.6829 40.8806 19.1783 39.6217 19.1783C36.7505 19.1783 34.4094 16.8737 34.4094 14.0306C34.4094 11.1875 36.7505 8.88293 39.6217 8.88293C40.6818 8.86139 41.6978 9.18446 42.537 9.74446ZM47.7935 11.8983C49.7591 11.8983 51.3935 13.5137 51.3935 15.5168C51.3935 17.4983 49.737 19.1998 47.7935 19.1998C45.7395 19.1998 44.0389 17.5199 44.0389 15.5168C44.0389 13.5137 45.7395 11.8983 47.7935 11.8983ZM47.7714 17.4122C48.6327 17.4122 49.3616 16.6152 49.3616 15.5383C49.3616 14.4614 48.6327 13.7722 47.7714 13.7722C46.8438 13.7722 46.0708 14.4398 46.0708 15.5383C46.0708 16.5937 46.8438 17.4122 47.7714 17.4122ZM52.6303 18.0799V12.9968C52.6303 12.4368 53.072 11.9845 53.6462 11.9845C54.1984 11.9845 54.6622 12.4368 54.6622 12.9968V18.0799C54.6622 18.6399 54.1984 19.0922 53.6462 19.0922C53.0941 19.0922 52.6303 18.6183 52.6303 18.0799ZM52.4757 10.0675C52.4757 9.39985 53.0057 8.88293 53.6462 8.88293C54.3088 8.88293 54.8389 9.42139 54.8389 10.0675C54.8389 10.7137 54.3088 11.2306 53.6462 11.2306C52.9836 11.2091 52.4757 10.6922 52.4757 10.0675ZM58.5493 15.3229V18.0799C58.5493 18.6399 58.0855 19.0922 57.5333 19.0922C56.9812 19.0922 56.5174 18.6399 56.5174 18.0799V12.7598C56.5174 12.3291 56.8708 11.9845 57.3125 11.9845C57.7542 11.9845 58.0855 12.3506 58.0855 12.7598C58.9027 12.006 59.6315 11.8983 60.3162 11.8983C62.3481 11.8983 63.2536 13.3845 63.2536 15.086V18.0799C63.2536 18.6399 62.7898 19.0922 62.2376 19.0922C61.6855 19.0922 61.2217 18.6399 61.2217 18.0799V15.3229C61.2217 14.4614 61.1112 13.7291 59.8303 13.7291C58.9247 13.7291 58.5493 14.4614 58.5493 15.3229ZM69.8352 16.3783C69.5922 16.3783 69.4376 16.2706 69.3051 16.1199L66.9419 13.6214V18.0799C66.9419 18.6399 66.4781 19.0922 65.926 19.0922C65.3738 19.0922 64.91 18.6399 64.91 18.0799V9.24908C64.9763 9.09831 65.1309 8.99062 65.2855 8.99062C65.4622 8.99062 65.6168 9.14139 65.7272 9.24908L69.5039 13.3845C69.6143 13.5137 69.7468 13.5783 69.8352 13.5783C69.9014 13.5783 70.056 13.5137 70.1665 13.3845L73.9431 9.24908C74.0536 9.14139 74.1861 8.99062 74.3849 8.99062C74.5616 8.99062 74.7162 9.09831 74.7603 9.24908V18.0799C74.7603 18.6399 74.3186 19.0922 73.7444 19.0922C73.1922 19.0922 72.7284 18.6399 72.7284 18.0799V13.6214L70.3652 16.1199C70.1886 16.2706 70.034 16.3783 69.8352 16.3783ZM79.5971 17.4122C80.5027 17.4122 81.2757 16.6152 81.2757 15.5383C81.2757 14.4614 80.4806 13.7506 79.5971 13.7506C78.7137 13.7506 77.9849 14.4829 77.9849 15.5383C77.9849 16.5722 78.6916 17.4122 79.5971 17.4122ZM81.7616 18.3168L81.7174 18.0799C81.3198 18.8337 80.0609 19.1783 79.2658 19.1783C77.3665 19.1783 75.953 17.4983 75.953 15.4952C75.953 13.5137 77.3885 11.8768 79.3763 11.8768C79.7076 11.8768 80.856 11.9629 81.7395 12.9752L81.7836 12.7383C81.7836 12.3075 82.1149 11.9629 82.5566 11.9629C82.9984 11.9629 83.3517 12.3291 83.3517 12.7383V18.2952C83.3517 18.726 82.9984 19.0706 82.5566 19.0706C82.0928 19.0922 81.7616 18.726 81.7616 18.3168ZM88.9395 13.7291H88.7186C87.4376 13.7937 87.1947 14.5045 87.1947 15.3229V18.0799C87.1947 18.6399 86.7309 19.0922 86.1787 19.0922C85.6266 19.0922 85.1628 18.6399 85.1628 18.0799V12.7598C85.1628 12.3291 85.5162 11.9845 85.9579 11.9845C86.3996 11.9845 86.7309 12.3506 86.7309 12.7598C87.4818 12.0706 88.1002 11.9198 88.7186 11.8983H88.9174C89.4033 11.8983 89.845 12.3075 89.845 12.8245C89.8671 13.2983 89.4254 13.7291 88.9395 13.7291ZM96.78 17.606C96.8683 17.7568 96.9346 17.9075 96.9346 18.0799C96.9346 18.5968 96.4487 19.0706 95.9186 19.0706C95.5652 19.0706 95.256 18.8122 95.0131 18.5106L92.672 15.8614V18.0583C92.672 18.6183 92.2082 19.0706 91.656 19.0706C91.1039 19.0706 90.6401 18.6183 90.6401 18.0583V9.98139C90.6401 9.42139 91.0818 8.96908 91.656 8.96908C92.2303 8.96908 92.672 9.42139 92.672 9.98139V15.0214L95.0131 12.5014C95.256 12.2429 95.5432 11.9629 95.8965 11.9629C96.4045 11.9629 96.8683 12.4152 96.8683 12.9322C96.8683 13.0829 96.8241 13.2552 96.7358 13.3845L94.8806 15.366L96.78 17.606ZM100.755 13.7506C100.203 13.7506 99.2978 14.0306 99.2978 14.8706H102.235C102.213 14.0306 101.285 13.7506 100.755 13.7506ZM103.406 16.1414H99.2978C99.2978 17.326 100.468 17.5198 100.976 17.5198C101.352 17.5198 101.882 17.4552 102.301 17.2614C102.434 17.1752 102.633 17.1106 102.831 17.1106C103.273 17.1106 103.649 17.4768 103.649 17.9291C103.649 18.2306 103.45 18.4891 103.207 18.6399C102.589 19.0922 101.771 19.1998 100.998 19.1998C98.9444 19.1998 97.2438 18.1229 97.2438 15.6029C97.2438 13.6214 98.2818 11.8983 100.711 11.8983C102.677 11.8983 104.157 13.1475 104.201 15.366C104.201 15.7752 103.847 16.1414 103.406 16.1414ZM109.06 19.1783H108.508C106.962 19.1783 106.056 18.5106 106.056 16.1629V13.7291H105.526C105.04 13.7291 104.62 13.2983 104.62 12.8245C104.62 12.3075 105.062 11.8983 105.526 11.8983H106.056V10.0245C106.056 9.46447 106.498 9.01216 107.072 9.01216C107.624 9.01216 108.088 9.46447 108.088 10.0245V11.8983H108.927C109.413 11.8983 109.833 12.3075 109.833 12.8245C109.833 13.2983 109.391 13.7291 108.927 13.7291H108.088V15.7752C108.088 17.1322 108.154 17.4122 108.773 17.4122H109.06C109.546 17.4122 109.965 17.7999 109.965 18.2952C109.965 18.7691 109.546 19.1783 109.06 19.1783ZM118.888 9.74446C119.153 9.89523 119.396 10.2614 119.396 10.5845C119.396 11.1014 118.954 11.5322 118.446 11.5322C118.314 11.5322 118.203 11.4891 118.093 11.4675C117.497 11.0368 116.746 10.7568 115.951 10.7568C114.073 10.7568 112.792 12.2429 112.792 14.0952C112.792 15.9475 114.095 17.4122 115.951 17.4122C116.878 17.4122 117.717 17.046 118.336 16.4645C118.49 16.3568 118.689 16.2922 118.888 16.2922C119.396 16.2922 119.793 16.6798 119.793 17.1752C119.793 17.4983 119.595 17.7783 119.352 17.9291C118.446 18.6829 117.231 19.1783 115.973 19.1783C113.101 19.1783 110.76 16.8737 110.76 14.0306C110.76 11.1875 113.101 8.88293 115.973 8.88293C117.033 8.86139 118.071 9.18446 118.888 9.74446ZM124.034 17.4122C124.939 17.4122 125.712 16.6152 125.712 15.5383C125.712 14.4614 124.917 13.7506 124.034 13.7506C123.128 13.7506 122.422 14.4829 122.422 15.5383C122.422 16.5722 123.151 17.4122 124.034 17.4122ZM126.198 18.3168L126.154 18.0799C125.757 18.8337 124.498 19.1783 123.703 19.1783C121.803 19.1783 120.39 17.4983 120.39 15.4952C120.39 13.5137 121.825 11.8768 123.813 11.8768C124.144 11.8768 125.293 11.9629 126.176 12.9752L126.22 12.7383C126.22 12.3075 126.552 11.9629 126.993 11.9629C127.435 11.9629 127.789 12.3291 127.789 12.7383V18.2952C127.789 18.726 127.435 19.0706 126.993 19.0706C126.53 19.0922 126.198 18.726 126.198 18.3168ZM133.332 17.4122C134.238 17.4122 134.944 16.5722 134.944 15.5383C134.944 14.4614 134.216 13.7506 133.332 13.7506C132.427 13.7506 131.654 14.4614 131.654 15.5383C131.654 16.6152 132.427 17.4122 133.332 17.4122ZM131.654 18.5968V21.1168C131.654 21.6768 131.19 22.1291 130.638 22.1291C130.085 22.1291 129.622 21.6768 129.622 21.1168V12.7598C129.622 12.3291 129.975 11.9845 130.417 11.9845C130.858 11.9845 131.19 12.3506 131.19 12.846C131.941 12.0922 132.868 11.8983 133.575 11.8983C135.541 11.8983 136.998 13.5137 136.998 15.5168C136.998 17.4983 135.607 19.1998 133.685 19.1998C133.089 19.1783 132.206 19.006 131.654 18.5968Z" fill="#17181B"/>
</svg>