<svg xmlns="http://www.w3.org/2000/svg" width="100" height="19" viewBox="0 0 100 19" fill="none">
  <g clip-path="url(#clip0_808_9370)">
    <path d="M-0.321289 17.0971L1.17343 16.6357V2.96716C1.17343 2.00929 0.565585 1.16515 -0.321289 0.891394V0.776367H11.6789V5.48596H11.5678L11.3442 4.88628C10.3852 2.30143 8.75691 1.24552 5.72377 1.24552C5.72377 8.47611 5.55117 8.42796 5.51693 14.2582C5.50937 15.5448 6.30641 16.6901 7.48573 17.0971V17.2122H-0.321289V17.0971Z" fill="black"/>
    <path d="M9.97964 7.48535C9.46126 9.24177 6.82082 9.68823 5.56543 9.69196V10.0229C8.83765 9.89054 9.87169 11.4756 9.97964 12.2846H10.2024V7.48535H9.97964Z" fill="black"/>
    <path d="M12.8701 17.1L14.364 16.6383V1.36298L12.8701 0.901256V0.786133H20.4062V0.901256L18.9124 1.36298V16.6383L20.4062 17.1V17.2151H12.8701V17.1Z" fill="black"/>
    <path d="M23.0201 2.86969L23.0057 6.04729C23.2066 14.0773 25.0653 16.3154 28.2753 17.0309L28.5875 17.1002V17.2154H21.0742V17.1002L22.568 16.6385V2.44881L21.0742 0.879198V0.787598H27.2719L36.6067 10.7957L36.584 8.70251C36.5397 3.23362 35.0519 1.29512 32.8441 0.949758L32.5547 0.903955V0.788832H38.5514L39.519 1.37311L37.0576 1.36568V17.7946H36.9906L23.0201 2.86969Z" fill="black"/>
    <path d="M38.0059 17.3255L39.52 16.8576V1.37187L38.0059 0.903955V0.787598H45.396C50.2554 0.787598 51.7695 2.23838 51.7695 3.75848C51.7695 5.39618 49.9839 6.70953 47.6791 7.05988V7.1304C50.1202 7.4114 53.1939 8.67159 53.1939 12.1561C53.1939 15.1035 51.0244 17.4431 46.5716 17.4431H38.0059V17.3268V17.3255ZM45.1711 8.08113C46.5501 8.08113 47.7928 7.28887 47.7928 4.64603C47.7928 2.00318 46.5501 1.25798 45.1257 1.25798H44.0864V8.08113H45.1711ZM45.4642 16.9715C47.4304 16.9715 48.6503 15.8054 48.6503 13.0449C48.6503 9.95769 47.001 8.55395 45.2154 8.55395H44.0852V16.9715H45.4642Z" fill="black"/>
    <path d="M54.6611 9.39446C54.6611 4.08403 58.3676 0.436035 64.3347 0.436035C69.9614 0.436035 73.6906 3.64087 73.6906 8.81023C73.6906 13.9795 70.0073 17.7922 64.0173 17.7922C58.3676 17.7922 54.6611 14.5873 54.6611 9.39446ZM64.6744 17.2747C66.821 17.2747 68.6521 15.2669 68.6521 9.90945C68.6521 3.68667 66.1427 0.95346 63.68 0.95346C61.5334 0.95346 59.7023 2.98481 59.7023 8.29524C59.7023 14.5638 62.2117 17.2747 64.6744 17.2747Z" fill="black"/>
    <path d="M98.1704 17.4703L73.9834 17.4418V17.3255L75.4977 16.8576V1.37187L73.9834 0.903955V0.787598H81.8486V0.903955L80.1082 1.37187V16.0337L91.9741 16.0535H94.143L94.1263 17.4728L98.1704 17.4703Z" fill="black"/>
    <path d="M83.374 14.1283L84.8902 13.7782V1.21371L83.374 0.863609V0.776367H91.9287C96.1455 0.776367 98.9541 3.74934 98.9541 7.50749C98.9541 11.2656 96.438 14.2144 92.8343 14.2144H83.374V14.1272V14.1283ZM90.1858 13.8241C92.7219 13.8241 94.9299 12.2504 94.9299 7.68196C94.9299 3.11342 92.6088 1.16665 89.5082 1.16665V13.8241H90.1871H90.1858Z" fill="black"/>
    <path d="M99.2779 17.4853L93.1953 17.4613L93.2276 16.0536C94.0276 16.0536 96.1264 16.1784 97.8363 14.8582C99.2848 13.7405 99.6705 12.558 99.8779 12.0179C99.9357 11.8677 100.121 11.4233 100.121 11.4233H100.253L99.2779 17.4877V17.4853Z" fill="black"/>
  </g>
  <defs>
    <clipPath id="clip0_808_9370">
      <rect width="100" height="18" fill="white" transform="translate(0 0.0737305)"/>
    </clipPath>
  </defs>
</svg>