<svg xmlns="http://www.w3.org/2000/svg" width="46" height="46" viewBox="0 0 46 46" fill="none">
  <path d="M16.6719 38.2468H9.64062C8.89493 38.2461 8.17999 37.9495 7.65271 37.4222C7.12543 36.895 6.82887 36.18 6.82812 35.4343V15.7468C6.82887 15.0011 7.12543 14.2862 7.65271 13.7589C8.17999 13.2316 8.89493 12.9351 9.64062 12.9343H16.6719C17.4176 12.9351 18.1325 13.2316 18.6598 13.7589C19.1871 14.2862 19.4836 15.0011 19.4844 15.7468V35.4343C19.4836 36.18 19.1871 36.895 18.6598 37.4222C18.1325 37.9495 17.4176 38.2461 16.6719 38.2468ZM9.64062 15.7468V35.4343H16.6733L16.6719 15.7468H9.64062ZM36.3594 32.6218H29.3281C28.5824 32.6211 27.8675 32.3245 27.3402 31.7972C26.8129 31.27 26.5164 30.555 26.5156 29.8093V10.1218C26.5164 9.37613 26.8129 8.6612 27.3402 8.13391C27.8675 7.60663 28.5824 7.31007 29.3281 7.30933H36.3594C37.1051 7.31007 37.82 7.60663 38.3473 8.13391C38.8746 8.6612 39.1711 9.37613 39.1719 10.1218V29.8093C39.1711 30.555 38.8746 31.27 38.3473 31.7972C37.82 32.3245 37.1051 32.6211 36.3594 32.6218ZM29.3281 10.1218V29.8093H36.3608L36.3594 10.1218H29.3281Z" fill="#E6AE00"/>
  <path d="M13.1562 43.8718C12.7833 43.8718 12.4256 43.7237 12.1619 43.4599C11.8982 43.1962 11.75 42.8385 11.75 42.4656V36.8406C11.75 36.4676 11.8982 36.1099 12.1619 35.8462C12.4256 35.5825 12.7833 35.4343 13.1562 35.4343C13.5292 35.4343 13.8869 35.5825 14.1506 35.8462C14.4143 36.1099 14.5625 36.4676 14.5625 36.8406V42.4656C14.5625 42.8385 14.4143 43.1962 14.1506 43.4599C13.8869 43.7237 13.5292 43.8718 13.1562 43.8718ZM13.1562 15.7468C12.7833 15.7468 12.4256 15.5987 12.1619 15.3349C11.8982 15.0712 11.75 14.7135 11.75 14.3406V3.09058C11.75 2.71762 11.8982 2.35993 12.1619 2.09621C12.4256 1.83248 12.7833 1.68433 13.1562 1.68433C13.5292 1.68433 13.8869 1.83248 14.1506 2.09621C14.4143 2.35993 14.5625 2.71762 14.5625 3.09058V14.3406C14.5625 14.7135 14.4143 15.0712 14.1506 15.3349C13.8869 15.5987 13.5292 15.7468 13.1562 15.7468ZM32.8438 10.1218C32.4708 10.1218 32.1131 9.97367 31.8494 9.70994C31.5857 9.44622 31.4375 9.08854 31.4375 8.71558V3.09058C31.4375 2.71762 31.5857 2.35993 31.8494 2.09621C32.1131 1.83248 32.4708 1.68433 32.8438 1.68433C33.2167 1.68433 33.5744 1.83248 33.8381 2.09621C34.1018 2.35993 34.25 2.71762 34.25 3.09058V8.71558C34.25 9.08854 34.1018 9.44622 33.8381 9.70994C33.5744 9.97367 33.2167 10.1218 32.8438 10.1218ZM32.8438 43.8718C32.4708 43.8718 32.1131 43.7237 31.8494 43.4599C31.5857 43.1962 31.4375 42.8385 31.4375 42.4656V31.2156C31.4375 30.8426 31.5857 30.4849 31.8494 30.2212C32.1131 29.9575 32.4708 29.8093 32.8438 29.8093C33.2167 29.8093 33.5744 29.9575 33.8381 30.2212C34.1018 30.4849 34.25 30.8426 34.25 31.2156V42.4656C34.25 42.8385 34.1018 43.1962 33.8381 43.4599C33.5744 43.7237 33.2167 43.8718 32.8438 43.8718Z" fill="#E6AE00"/>
</svg>