<svg xmlns="http://www.w3.org/2000/svg" width="40" height="41" viewBox="0 0 40 41" fill="none">
  <path d="M20.4956 27.3417C20.4116 27.3436 20.3303 27.3294 20.2516 27.299C20.1728 27.2686 20.1032 27.2246 20.0427 27.1663C19.9822 27.1087 19.9347 27.0414 19.9009 26.9644C19.8664 26.8874 19.8488 26.8072 19.8469 26.7237C19.8449 26.6396 19.8592 26.5587 19.8898 26.4804C19.9204 26.4021 19.9646 26.3329 20.0225 26.2721C20.0811 26.2119 20.1488 26.1646 20.2256 26.1303C20.3023 26.0967 20.383 26.0792 20.4676 26.0773C20.8294 26.0617 21.1886 26.0184 21.5445 25.9479C24.3203 25.3946 26.0856 23.1414 27.0766 21.3522C28.0969 19.51 28.8367 17.3455 29.3377 14.7338C29.7438 12.6191 29.7086 10.4061 29.6748 8.26549C29.665 7.65787 29.6546 7.03019 29.6546 6.41028C29.6546 6.32681 29.6709 6.24592 29.7034 6.16827C29.7353 6.09127 29.7809 6.02268 29.8407 5.96314C29.8999 5.90426 29.9689 5.85832 30.0463 5.82661C30.1244 5.79425 30.2051 5.77808 30.2897 5.77808C30.3736 5.77808 30.4543 5.79425 30.5324 5.82661C30.6098 5.85832 30.6788 5.90426 30.738 5.96314C30.7979 6.02268 30.8434 6.09127 30.876 6.16827C30.9078 6.24592 30.9241 6.32681 30.9241 6.41028C30.9241 7.01984 30.9339 7.64299 30.9436 8.24543C30.9788 10.4501 31.0146 12.7298 30.5838 14.9719C30.0561 17.7156 29.2727 20.003 28.1867 21.9637C27.0662 23.9878 25.0465 26.538 21.7924 27.1883C21.3734 27.2712 20.9504 27.3223 20.5236 27.341L20.4956 27.3417Z" fill="#E6AE00"/>
  <path d="M25.9851 32.8071C25.8849 32.8071 25.7905 32.7851 25.7014 32.7404C24.0356 31.9102 22.8709 30.5545 22.3341 28.821C22.0836 28.0115 21.9788 27.1839 22.0192 26.3381C22.0179 26.3006 22.0205 26.263 22.0263 26.2255L22.0289 26.2022C22.0387 26.1194 22.0634 26.0404 22.1044 25.9673C22.1447 25.8942 22.1981 25.8314 22.2638 25.779C22.3295 25.7266 22.4031 25.6891 22.4837 25.6658C22.5644 25.6425 22.6471 25.6354 22.7304 25.6444C22.8143 25.6541 22.893 25.6787 22.9665 25.7195C23.0401 25.7596 23.1032 25.8127 23.1559 25.878C23.2086 25.944 23.2463 26.0165 23.2698 26.0974C23.2932 26.1776 23.3004 26.2598 23.2906 26.3433C23.26 26.7147 23.0798 30.0188 26.2688 31.6087C26.3332 31.6404 26.3898 31.6818 26.4399 31.7329C26.4894 31.784 26.5297 31.8416 26.5596 31.9063C26.5902 31.9704 26.6091 32.0383 26.6162 32.1089C26.6234 32.18 26.6188 32.2499 26.6026 32.3192C26.5863 32.389 26.559 32.4538 26.5206 32.5133C26.4822 32.5735 26.4347 32.6259 26.3787 32.6699C26.3228 32.7139 26.261 32.7482 26.1933 32.7715C26.1263 32.7948 26.0567 32.8064 25.9851 32.8064V32.8071Z" fill="#E6AE00"/>
  <path d="M20.5391 27.3416H20.5098C20.0836 27.3228 19.6613 27.2717 19.2429 27.1889C15.9882 26.5386 13.9678 23.9871 12.8486 21.9643C11.7626 20.0036 10.9786 17.7161 10.4515 14.9718C10.0208 12.7297 10.0565 10.45 10.0917 8.24533C10.1014 7.64354 10.1112 7.02039 10.1112 6.41083C10.1112 6.32671 10.1275 6.24647 10.16 6.16882C10.1919 6.09117 10.2381 6.02323 10.2973 5.96369C10.3565 5.90416 10.4255 5.85886 10.5029 5.82651C10.581 5.7948 10.6617 5.77863 10.7463 5.77863H30.2935C30.3774 5.77863 30.4588 5.7948 30.5362 5.82651C30.6143 5.85886 30.6826 5.90416 30.7425 5.96369C30.8017 6.02323 30.8479 6.09117 30.8798 6.16882C30.9123 6.24647 30.9279 6.32671 30.9279 6.41083C30.9279 6.49495 30.9123 6.57519 30.8798 6.65284C30.8479 6.73049 30.8017 6.79844 30.7425 6.85797C30.6826 6.9175 30.6143 6.9628 30.5362 6.99515C30.4588 7.02751 30.3774 7.04304 30.2935 7.04304H11.3774C11.3735 7.45394 11.367 7.86484 11.3605 8.26539C11.3267 10.4066 11.2915 12.6197 11.6976 14.7343C12.1999 17.346 12.9397 19.5105 13.9587 21.3528C14.951 23.1413 16.7157 25.3945 19.4921 25.9478C19.8474 26.0183 20.2059 26.0617 20.5677 26.0772C20.6516 26.0791 20.7323 26.0972 20.8091 26.1309C20.8865 26.1645 20.9542 26.2118 21.0121 26.2726C21.07 26.3334 21.1143 26.4027 21.1449 26.481C21.1754 26.5593 21.1898 26.6402 21.1878 26.7243C21.1859 26.8077 21.1683 26.888 21.1338 26.965C21.1 27.0413 21.0525 27.1093 20.992 27.1669C20.9308 27.2251 20.8612 27.2691 20.7831 27.2995C20.7044 27.3299 20.623 27.3442 20.5391 27.3422V27.3416Z" fill="#E6AE00"/>
  <path d="M15.055 32.8071C14.9834 32.8071 14.9138 32.7955 14.8468 32.7722C14.7791 32.7489 14.7173 32.7153 14.6614 32.6713C14.6047 32.6266 14.5579 32.5748 14.5195 32.5147C14.4811 32.4545 14.4538 32.3898 14.4369 32.3205C14.4206 32.2513 14.416 32.1808 14.4232 32.1102C14.4304 32.039 14.4492 31.9718 14.4798 31.907C14.5097 31.8423 14.5501 31.7847 14.6002 31.7336C14.6496 31.6825 14.7069 31.6411 14.7707 31.6094C17.9681 30.0162 17.7423 26.7226 17.7053 26.3524C17.6948 26.2696 17.7014 26.1874 17.7235 26.1065C17.7456 26.0256 17.7827 25.9525 17.8341 25.8859C17.8861 25.8199 17.948 25.7662 18.0215 25.7247C18.0944 25.6833 18.1724 25.6574 18.2564 25.6464C18.3397 25.6361 18.4217 25.6419 18.503 25.6639C18.5843 25.6866 18.6579 25.7228 18.7242 25.7746C18.7912 25.8257 18.8453 25.8878 18.8869 25.9609C18.9285 26.0334 18.9546 26.1117 18.965 26.1945L18.9689 26.2191C18.9747 26.256 18.9773 26.2929 18.9773 26.3304C19.0314 27.1212 19.0808 30.8756 15.3381 32.7405C15.2489 32.7851 15.1546 32.8071 15.055 32.8071Z" fill="#E6AE00"/>
  <mask id="mask0_725_9157" style="mask-type:luminance" maskUnits="userSpaceOnUse" x="13" y="31" width="15" height="6">
    <path d="M13.585 31.4539H27.5773V36.7128H13.585V31.4539Z" fill="white"/>
  </mask>
  <g mask="url(#mask0_725_9157)">
    <path d="M26.788 36.71H14.2526C14.1686 36.71 14.0873 36.6945 14.0099 36.6621C13.9318 36.6298 13.8635 36.5845 13.8043 36.5249C13.7444 36.4661 13.6988 36.3975 13.6663 36.3198C13.6344 36.2422 13.6182 36.1619 13.6182 36.0778V33.1801C13.6182 33.0727 13.6292 32.9666 13.65 32.8611C13.6715 32.7557 13.7028 32.6528 13.7444 32.5538C13.7854 32.4541 13.8361 32.3603 13.8967 32.2703C13.9565 32.181 14.0248 32.0982 14.101 32.0225C14.1771 31.9468 14.2604 31.8788 14.3502 31.8187C14.44 31.7591 14.5343 31.7087 14.6345 31.6672C14.7341 31.6265 14.8369 31.5948 14.9423 31.5741C15.0484 31.5527 15.1551 31.5424 15.2631 31.5424H25.7769C25.8849 31.5424 25.9916 31.5527 26.0976 31.5741C26.2037 31.5948 26.3065 31.6258 26.4061 31.6672C26.5056 31.7087 26.6006 31.7591 26.6904 31.8187C26.7802 31.8782 26.8629 31.9461 26.9396 32.0225C27.0158 32.0982 27.0841 32.181 27.1439 32.2703C27.2038 32.3596 27.2546 32.4541 27.2962 32.5538C27.3379 32.6528 27.3691 32.7557 27.3906 32.8611C27.4114 32.9666 27.4224 33.0727 27.4224 33.1801V36.0765C27.4224 36.1606 27.4068 36.2415 27.3743 36.3192C27.3424 36.3968 27.2962 36.4654 27.237 36.5243C27.1778 36.5838 27.1088 36.6298 27.0307 36.6621C26.9533 36.6945 26.872 36.71 26.788 36.71ZM14.887 35.4456H26.1536V33.1801C26.153 33.131 26.1438 33.0831 26.1243 33.0371C26.1055 32.9912 26.0781 32.9504 26.043 32.9155C26.0072 32.8805 25.9669 32.8534 25.9207 32.8346C25.8745 32.8152 25.827 32.8055 25.7769 32.8055H15.2631C15.2136 32.8055 15.1655 32.8152 15.1193 32.8346C15.0731 32.8534 15.0328 32.8805 14.9976 32.9155C14.9618 32.9504 14.9352 32.9912 14.9156 33.0371C14.8968 33.0831 14.887 33.131 14.887 33.1801V35.4456Z" fill="#E6AE00"/>
  </g>
  <path d="M29.2021 18.5802C29.1272 18.5802 29.0544 18.5673 28.9841 18.5414C28.9138 18.5162 28.85 18.4793 28.7928 18.4307C28.7355 18.3829 28.6887 18.3266 28.6516 18.2619C28.6138 18.1971 28.5891 18.1279 28.5767 18.0541C28.5637 17.981 28.5644 17.9072 28.5781 17.8341C28.5911 17.7604 28.6171 17.6918 28.6548 17.6271C28.6926 17.563 28.7407 17.5073 28.7986 17.4595C28.8565 17.4122 28.9203 17.376 28.9912 17.3514C33.9299 15.6101 34.8611 13.6753 35.5632 11.3276C35.7935 10.5576 35.7896 9.93316 35.5514 9.52161C35.4057 9.27442 35.1962 9.10424 34.9242 9.01171L30.3186 8.99876C30.2347 8.99876 30.154 8.98259 30.0759 8.95088C29.9985 8.91852 29.9295 8.87258 29.8703 8.8137C29.8104 8.75416 29.7649 8.68557 29.7324 8.60857C29.7005 8.53092 29.6842 8.45003 29.6842 8.36656C29.6842 8.28244 29.7005 8.20155 29.7324 8.12455C29.7649 8.0469 29.8104 7.9783 29.8703 7.91942C29.9295 7.85989 29.9985 7.81394 30.0759 7.78224C30.154 7.74988 30.2347 7.7337 30.3186 7.7337L35.0094 7.74729C35.0517 7.74729 35.094 7.75182 35.135 7.76023C35.4473 7.83659 35.733 7.96989 35.992 8.16014C36.2503 8.35038 36.4624 8.58269 36.6277 8.85705C37.0682 9.59215 37.1183 10.5447 36.7754 11.6894C36.398 12.9499 35.8878 14.2835 34.7199 15.4975C33.5525 16.7114 31.8679 17.6775 29.4103 18.5433C29.3426 18.5673 29.2736 18.5796 29.2021 18.5802Z" fill="#E6AE00"/>
  <path d="M11.85 18.5962C11.7778 18.5962 11.7081 18.5839 11.6398 18.5606C9.16266 17.6909 7.46307 16.7222 6.29054 15.5082C5.118 14.2937 4.60331 12.9535 4.22461 11.6891C3.8817 10.5425 3.9318 9.5919 4.37232 8.85681C4.53759 8.58244 4.74972 8.35014 5.00804 8.15989C5.26701 7.96965 5.55266 7.83635 5.86499 7.75999C5.90598 7.75158 5.94828 7.74705 5.99057 7.74705L10.725 7.73346H10.7269C10.8108 7.73346 10.8915 7.74964 10.9696 7.78199C11.047 7.8137 11.116 7.85964 11.1752 7.91917C11.2351 7.97806 11.2806 8.04665 11.3132 8.1243C11.3451 8.20131 11.3613 8.28219 11.3613 8.36631C11.3613 8.44979 11.3451 8.53067 11.3132 8.60832C11.2806 8.68533 11.2351 8.75392 11.1752 8.81345C11.116 8.87234 11.047 8.91828 10.9696 8.95064C10.8915 8.98234 10.8108 8.99852 10.7269 8.99852L6.07841 9.01146C5.80578 9.104 5.59691 9.27418 5.45115 9.52137C5.213 9.93292 5.20845 10.5574 5.43879 11.3274C6.14413 13.6822 7.07982 15.6228 12.0595 17.368C12.1298 17.3926 12.1942 17.4288 12.2521 17.476C12.31 17.5233 12.3582 17.5796 12.3959 17.6436C12.4343 17.7083 12.4603 17.7769 12.4733 17.8507C12.487 17.9238 12.4877 17.9976 12.4753 18.0714C12.4623 18.1451 12.4376 18.2144 12.4005 18.2791C12.3627 18.3438 12.3159 18.4001 12.2586 18.4486C12.2014 18.4965 12.1369 18.5334 12.0667 18.5586C11.9964 18.5845 11.9235 18.5974 11.8487 18.5974L11.85 18.5962Z" fill="#E6AE00"/>
  <path d="M23.5258 20.8792C23.4217 20.8792 23.3228 20.8553 23.2304 20.8068L20.4975 19.3748L17.7647 20.8068C17.6573 20.8624 17.5441 20.8864 17.423 20.8779C17.3027 20.8689 17.194 20.8294 17.0958 20.7589C16.9981 20.6877 16.9266 20.5965 16.881 20.4852C16.8355 20.3739 16.8231 20.2587 16.8433 20.1396L17.3645 17.1074L15.1541 14.9603C15.0676 14.8762 15.0103 14.7759 14.981 14.6588C14.9517 14.5423 14.9563 14.4265 14.9934 14.3119C15.0311 14.1974 15.0955 14.101 15.1879 14.0233C15.2803 13.9463 15.3864 13.8984 15.5061 13.8816L18.5617 13.439L19.9282 10.6798C19.9815 10.5717 20.0596 10.4857 20.1624 10.4223C20.2652 10.3589 20.3765 10.3271 20.4975 10.3271C20.6186 10.3271 20.7298 10.3589 20.8326 10.4223C20.9354 10.4857 21.0129 10.5717 21.0669 10.6798L22.4327 13.439L25.4889 13.8816C25.6087 13.8984 25.7147 13.9463 25.8071 14.0233C25.8995 14.101 25.9639 14.1974 26.0017 14.3119C26.0388 14.4265 26.0427 14.5423 26.014 14.6588C25.9848 14.7759 25.9275 14.8762 25.8403 14.9603L23.6306 17.1074L24.1524 20.1396C24.1602 20.1856 24.1635 20.2309 24.1609 20.2768C24.1589 20.3227 24.1518 20.368 24.1394 20.4127C24.1277 20.4573 24.1108 20.5 24.0893 20.5408C24.0678 20.5816 24.0425 20.6191 24.0125 20.6547C23.9826 20.6896 23.9494 20.7214 23.913 20.7492C23.8759 20.777 23.8368 20.8009 23.7945 20.8204C23.7529 20.8398 23.7093 20.8547 23.6644 20.8644C23.6189 20.8747 23.5733 20.8792 23.5271 20.8792H23.5258ZM20.4975 18.0282C20.6016 18.0282 20.7005 18.0521 20.7929 18.1006L22.6832 19.0907L22.3221 16.9935C22.3045 16.8906 22.3116 16.7903 22.3442 16.6913C22.3761 16.5923 22.4301 16.5062 22.5049 16.4337L24.034 14.948L21.9206 14.6439C21.8178 14.629 21.7241 14.5908 21.6401 14.5293C21.5555 14.4685 21.4905 14.3915 21.4443 14.2983L20.4975 12.3875L19.5521 14.2964C19.5065 14.3902 19.4408 14.4679 19.3569 14.5293C19.2723 14.5908 19.1779 14.629 19.0745 14.6439L16.9611 14.95L18.4902 16.4357C18.565 16.5081 18.6184 16.5936 18.6502 16.6919C18.6828 16.7909 18.6906 16.8912 18.673 16.9935L18.3119 19.0907L20.2021 18.1006C20.2945 18.0521 20.3928 18.0282 20.4975 18.0282Z" fill="#E6AE00"/>
</svg>