<svg xmlns="http://www.w3.org/2000/svg" width="40" height="41" viewBox="0 0 40 41" fill="none">
  <g clip-path="url(#clip0_614_4149)">
    <mask id="mask0_614_4149" style="mask-type:luminance" maskUnits="userSpaceOnUse" x="0" y="4" width="39" height="34">
      <path d="M0.669922 4.95825H38.7047V37.3582H0.669922V4.95825Z" fill="white"/>
    </mask>
    <g mask="url(#mask0_614_4149)">
      <path d="M1.30365 28.5053H18.4226L12.6282 36.2797C12.5558 36.376 12.5145 36.4833 12.5035 36.6035C12.4934 36.7236 12.5145 36.8373 12.5686 36.9446C12.6218 37.0519 12.6998 37.1382 12.8016 37.2014C12.9043 37.2647 13.0153 37.2959 13.1354 37.2959H26.2383C26.3584 37.2959 26.4694 37.2647 26.5712 37.2014C26.6739 37.1382 26.7519 37.0519 26.8051 36.9446C26.8592 36.8373 26.8803 36.7236 26.8693 36.6035C26.8592 36.4833 26.817 36.376 26.7455 36.2797L20.952 28.5053H38.071C38.1544 28.5053 38.2361 28.4888 38.3131 28.4567C38.3911 28.4246 38.4598 28.3787 38.5195 28.3191C38.5781 28.2595 38.624 28.1907 38.6561 28.1128C38.6882 28.0348 38.7047 27.9541 38.7047 27.8697V23.8904C38.7047 23.8069 38.6882 23.7253 38.6561 23.6473C38.624 23.5703 38.5781 23.5015 38.5195 23.4419C38.4598 23.3823 38.3911 23.3364 38.3131 23.3034C38.2361 23.2713 38.1544 23.2557 38.071 23.2557H36.8723C36.9237 23.1989 36.9759 23.1438 37.0245 23.0833C37.1805 22.8861 37.3125 22.6743 37.4198 22.4468C37.528 22.2194 37.6087 21.9828 37.6629 21.737C37.7161 21.4912 37.7417 21.2426 37.739 20.9913C37.7371 20.7391 37.706 20.4915 37.6464 20.2466L35.8323 12.6456C35.7919 12.4759 35.7387 12.3099 35.6718 12.1476C35.6048 11.9862 35.526 11.8312 35.4343 11.6817C35.3435 11.5322 35.2407 11.3919 35.127 11.2589C35.0133 11.1259 34.8904 11.003 34.7565 10.8902C34.6235 10.7765 34.4823 10.6747 34.3337 10.5839C34.1842 10.4931 34.0283 10.4151 33.8669 10.3491C33.7055 10.2831 33.5395 10.2299 33.3689 10.1904C33.1992 10.1501 33.0268 10.1244 32.8535 10.1125L33.6459 7.97834C33.6771 7.8958 33.7027 7.81234 33.7229 7.72613C33.744 7.64084 33.7587 7.55371 33.7688 7.46659C33.7798 7.37854 33.7844 7.29142 33.7834 7.20337C33.7834 7.11533 33.7779 7.02729 33.7669 6.93924C33.7559 6.85212 33.7394 6.76591 33.7183 6.68061C33.6972 6.59441 33.6706 6.51095 33.6385 6.42841C33.6074 6.34678 33.5716 6.26608 33.5303 6.18812C33.489 6.11017 33.4432 6.03496 33.3928 5.96343C33.3432 5.89097 33.2882 5.82127 33.2304 5.75616C33.1717 5.69013 33.1094 5.62776 33.0433 5.56998C32.9773 5.51129 32.9085 5.45718 32.8361 5.40765C32.7636 5.35721 32.6884 5.31227 32.6104 5.271C32.5325 5.23065 32.4527 5.19396 32.3702 5.1637C32.2876 5.13252 32.2042 5.10592 32.1189 5.08483C32.0336 5.06373 31.9465 5.04814 31.8593 5.03805C31.7722 5.02705 31.6842 5.02155 31.597 5.02155H27.5397C27.4517 5.02155 27.3645 5.02705 27.2765 5.03805C27.1894 5.04814 27.1031 5.06465 27.0179 5.08483C26.9326 5.10592 26.8491 5.13252 26.7666 5.1637C26.684 5.19488 26.6042 5.23065 26.5263 5.27192C26.4483 5.31227 26.3731 5.35721 26.3007 5.40765C26.2282 5.45718 26.1594 5.51129 26.0934 5.56998C26.0274 5.62776 25.965 5.69013 25.9072 5.75616C25.8485 5.82127 25.7944 5.89097 25.744 5.96343C25.6935 6.03588 25.6477 6.11017 25.6073 6.18812C25.5661 6.26608 25.5294 6.34587 25.4982 6.42841C25.467 6.51095 25.4404 6.59441 25.4184 6.6797C25.3973 6.76591 25.3808 6.85212 25.3698 6.93924C25.3588 7.02637 25.3533 7.11441 25.3533 7.20246C25.3524 7.2905 25.3569 7.37854 25.367 7.46567C25.3771 7.55371 25.3927 7.63992 25.4138 7.72613C25.434 7.81142 25.4597 7.8958 25.4899 7.97834L26.2805 10.1143C26.1062 10.1272 25.9338 10.1528 25.7642 10.1923C25.5936 10.2317 25.4285 10.2849 25.2662 10.3509C25.1047 10.417 24.9497 10.4949 24.8003 10.5857C24.6508 10.6765 24.5095 10.7783 24.3765 10.8911C24.2436 11.0039 24.1207 11.1268 24.0069 11.2598C23.8932 11.3928 23.7905 11.5331 23.6988 11.6826C23.608 11.8312 23.5282 11.9871 23.4622 12.1485C23.3952 12.3099 23.3411 12.4759 23.3008 12.6456L21.4876 20.2457C21.4289 20.4906 21.3977 20.7382 21.395 20.9904C21.3922 21.2417 21.4179 21.4903 21.472 21.736C21.5261 21.9818 21.6068 22.2185 21.7141 22.4459C21.8224 22.6733 21.9544 22.8852 22.1103 23.0824C22.158 23.1429 22.2112 23.1979 22.2626 23.2548H13.7829C14.0195 23.1016 14.247 22.9366 14.4652 22.7596C14.6844 22.5826 14.8926 22.3936 15.0916 22.1946C15.2897 21.9947 15.4777 21.7847 15.6538 21.5655C15.8299 21.3454 15.9941 21.117 16.1454 20.8795C16.2967 20.6419 16.4361 20.3971 16.5609 20.1448C16.6865 19.8926 16.7984 19.634 16.8965 19.3699C16.9947 19.1058 17.0781 18.837 17.1469 18.5637C17.2166 18.2904 17.2707 18.0144 17.3101 17.7356C17.3505 17.4568 17.3753 17.1761 17.3844 16.8946C17.3945 16.6121 17.389 16.3315 17.3688 16.0499C17.3487 15.7684 17.3129 15.4895 17.2625 15.2117C17.2129 14.9347 17.1478 14.6605 17.068 14.3908C16.9891 14.1203 16.8956 13.8543 16.7874 13.5939C16.6792 13.3343 16.5581 13.0803 16.4233 12.8327C16.2885 12.585 16.1399 12.3457 15.9794 12.1145C15.8189 11.8834 15.6465 11.6606 15.4621 11.4478C15.2778 11.235 15.0825 11.0323 14.877 10.8407C14.6707 10.649 14.4551 10.4683 14.2305 10.2996C14.0048 10.1308 13.771 9.97399 13.5289 9.83092C13.2877 9.68693 13.0382 9.5567 12.7823 9.43931C12.5264 9.32192 12.2651 9.2192 11.9982 9.13024C11.7313 9.04128 11.4608 8.96699 11.1856 8.90738C10.9105 8.84685 10.6335 8.80191 10.3538 8.77256C10.0741 8.7423 9.79343 8.72671 9.51279 8.72671C9.23123 8.72671 8.95059 8.7423 8.67087 8.77256C8.39115 8.80191 8.11418 8.84685 7.83905 8.90738C7.56391 8.96699 7.29336 9.04128 7.02648 9.13024C6.7596 9.2192 6.49822 9.32192 6.24234 9.43931C5.98646 9.5567 5.73793 9.68693 5.49581 9.83092C5.25369 9.97399 5.01982 10.1308 4.79513 10.2996C4.56951 10.4683 4.35399 10.649 4.14764 10.8407C3.9422 11.0323 3.74686 11.235 3.56252 11.4478C3.37818 11.6606 3.20576 11.8834 3.04526 12.1145C2.88477 12.3457 2.73711 12.585 2.60138 12.8327C2.46656 13.0803 2.3455 13.3343 2.23728 13.5939C2.12998 13.8543 2.03643 14.1203 1.95664 14.3908C1.87685 14.6605 1.81174 14.9347 1.76221 15.2117C1.71177 15.4895 1.676 15.7684 1.65583 16.0499C1.63565 16.3315 1.63015 16.6121 1.64023 16.8946C1.64941 17.1761 1.67417 17.4568 1.71452 17.7356C1.75396 18.0144 1.80807 18.2904 1.87777 18.5637C1.94655 18.837 2.03001 19.1058 2.12814 19.3699C2.22627 19.634 2.33816 19.8926 2.46381 20.1448C2.58945 20.3971 2.72794 20.6419 2.87926 20.8795C3.03151 21.117 3.19475 21.3454 3.37084 21.5655C3.54693 21.7847 3.73494 21.9947 3.93303 22.1946C4.13205 22.3936 4.34023 22.5826 4.55943 22.7596C4.7777 22.9366 5.00515 23.1016 5.24176 23.2548H1.30365C1.22019 23.2548 1.13857 23.2713 1.06153 23.3034C0.983577 23.3355 0.914793 23.3814 0.85518 23.441C0.796484 23.5006 0.750628 23.5694 0.718529 23.6473C0.68643 23.7253 0.669922 23.806 0.669922 23.8904V27.8697C0.669922 27.9541 0.68643 28.0348 0.718529 28.1128C0.750628 28.1907 0.796484 28.2595 0.85518 28.3191C0.914793 28.3787 0.983577 28.4246 1.06153 28.4567C1.13857 28.4888 1.22019 28.5053 1.30365 28.5053ZM14.4001 36.0257L19.6873 28.9309L24.9745 36.0257H14.4001ZM26.7831 6.6907C26.8674 6.56597 26.9775 6.46784 27.1105 6.39722C27.2444 6.32661 27.3865 6.29176 27.5379 6.29267H31.5952C31.6686 6.29267 31.7419 6.30184 31.8144 6.31927C31.8859 6.33669 31.9547 6.36329 32.0207 6.39722C32.0859 6.43208 32.1473 6.47335 32.2023 6.52287C32.2583 6.57148 32.3069 6.6265 32.3491 6.68795C32.3913 6.7494 32.4261 6.81451 32.4527 6.8833C32.4793 6.953 32.4967 7.02453 32.5059 7.0979C32.5151 7.17219 32.516 7.24556 32.5077 7.31985C32.4986 7.39322 32.4811 7.46475 32.4555 7.53445L31.5044 10.0914H27.6268L26.6758 7.53445C26.6226 7.39413 26.6061 7.24831 26.6244 7.09974C26.6437 6.95025 26.6959 6.8136 26.7831 6.6907ZM22.7202 20.541L24.5352 12.9427C24.5609 12.8308 24.5967 12.7226 24.6416 12.6162C24.6865 12.5107 24.7397 12.4089 24.8012 12.3126C24.8626 12.2154 24.9323 12.1246 25.0094 12.0393C25.0864 11.9541 25.1699 11.8761 25.2597 11.8046C25.3496 11.733 25.445 11.6707 25.5459 11.6147C25.6468 11.5597 25.7513 11.5138 25.8595 11.4762C25.9678 11.4386 26.0787 11.4111 26.1915 11.3919C26.3053 11.3735 26.419 11.3643 26.5336 11.3643H32.6031C32.7178 11.3643 32.8315 11.3735 32.9452 11.3919C33.058 11.4111 33.169 11.4395 33.2772 11.4762C33.3854 11.5138 33.49 11.5606 33.5909 11.6156C33.6908 11.6707 33.7862 11.7339 33.8761 11.8055C33.9669 11.8761 34.0503 11.9541 34.1264 12.0393C34.2035 12.1246 34.2732 12.2163 34.3346 12.3126C34.3961 12.4099 34.4493 12.5117 34.4942 12.6171C34.5382 12.7226 34.574 12.8317 34.6006 12.9436L36.4147 20.541C36.433 20.6172 36.4468 20.6933 36.4559 20.7703C36.4651 20.8464 36.4706 20.9244 36.4715 21.0014C36.4715 21.0794 36.4679 21.1564 36.4605 21.2335C36.4523 21.3105 36.4394 21.3866 36.4229 21.4627C36.4064 21.538 36.3853 21.6132 36.3605 21.6865C36.3358 21.7599 36.3064 21.8314 36.2734 21.9011C36.2404 21.9708 36.2037 22.0396 36.1625 22.1047C36.1221 22.1708 36.0781 22.234 36.0295 22.2955C35.9818 22.356 35.9304 22.4138 35.8763 22.4688C35.8222 22.5239 35.7644 22.5761 35.7039 22.6247C35.6443 22.6733 35.581 22.7183 35.5159 22.7596C35.4508 22.8008 35.3829 22.8384 35.3132 22.8724C35.2435 22.9063 35.1729 22.9356 35.0995 22.9622C35.0271 22.9879 34.9528 23.009 34.8776 23.0264C34.8014 23.0439 34.7253 23.0567 34.6492 23.0659C34.5722 23.0741 34.4951 23.0787 34.4172 23.0787H24.7186C24.6416 23.0787 24.5646 23.0741 24.4875 23.0659C24.4105 23.0567 24.3344 23.0439 24.2592 23.0264C24.184 23.009 24.1097 22.9879 24.0363 22.9622C23.9638 22.9366 23.8923 22.9063 23.8226 22.8724C23.7529 22.8384 23.686 22.8008 23.6199 22.7596C23.5548 22.7183 23.4924 22.6733 23.4319 22.6247C23.3714 22.5761 23.3145 22.5248 23.2595 22.4688C23.2054 22.4138 23.154 22.356 23.1063 22.2955C23.0586 22.235 23.0137 22.1708 22.9734 22.1056C22.9321 22.0396 22.8954 21.9718 22.8624 21.9011C22.8294 21.8314 22.8 21.7599 22.7753 21.6865C22.7496 21.6132 22.7294 21.5389 22.7129 21.4627C22.6955 21.3866 22.6835 21.3105 22.6753 21.2335C22.667 21.1564 22.6634 21.0794 22.6643 21.0014C22.6652 20.9244 22.6698 20.8464 22.6799 20.7703C22.689 20.6933 22.7028 20.6172 22.7202 20.541ZM2.90311 16.6314C2.90311 16.414 2.91411 16.1976 2.93521 15.982C2.9563 15.7656 2.9884 15.5519 3.03059 15.3391C3.07278 15.1264 3.12505 14.9163 3.18833 14.7082C3.2507 14.5009 3.32407 14.2964 3.40661 14.0964C3.48915 13.8956 3.58178 13.7002 3.68358 13.5086C3.78629 13.3178 3.89727 13.1316 4.01741 12.951C4.13755 12.7712 4.26687 12.597 4.40352 12.4291C4.54108 12.2613 4.68599 12.1008 4.83915 11.9476C4.99231 11.7945 5.1528 11.6487 5.31972 11.5111C5.48755 11.3735 5.66089 11.2442 5.84064 11.1241C6.02132 11.003 6.20657 10.892 6.39733 10.7902C6.5881 10.6875 6.78344 10.5949 6.98337 10.5123C7.18331 10.4289 7.38691 10.3555 7.59418 10.2931C7.80144 10.2299 8.01146 10.1776 8.22332 10.1354C8.43609 10.0923 8.64978 10.0611 8.8653 10.04C9.08083 10.0189 9.29635 10.0079 9.51279 10.0079C9.72923 10.0079 9.94567 10.0189 10.1603 10.04C10.3758 10.0611 10.5895 10.0932 10.8023 10.1354C11.0141 10.1776 11.2241 10.2299 11.4314 10.2931C11.6387 10.3564 11.8423 10.4289 12.0422 10.5123C12.2421 10.5949 12.4375 10.6875 12.6282 10.7902C12.819 10.892 13.0043 11.0039 13.1849 11.1241C13.3647 11.2451 13.538 11.3744 13.7059 11.512C13.8728 11.6496 14.0333 11.7945 14.1864 11.9485C14.3387 12.1017 14.4845 12.2622 14.6211 12.43C14.7587 12.5979 14.888 12.7712 15.0082 12.9519C15.1283 13.1326 15.2393 13.3178 15.3411 13.5095C15.4429 13.7012 15.5355 13.8965 15.619 14.0974C15.7015 14.2973 15.774 14.5018 15.8372 14.7091C15.8996 14.9163 15.9528 15.1273 15.995 15.3401C16.0372 15.5528 16.0684 15.7665 16.0895 15.983C16.1105 16.1985 16.1216 16.4149 16.1216 16.6323C16.1216 16.8487 16.1105 17.0652 16.0895 17.2807C16.0684 17.4971 16.0372 17.7117 15.995 17.9245C15.9519 18.1373 15.8996 18.3473 15.8372 18.5546C15.774 18.7618 15.7015 18.9663 15.6181 19.1663C15.5355 19.3671 15.4429 19.5625 15.3411 19.7542C15.2393 19.9458 15.1283 20.1311 15.0073 20.3118C14.8871 20.4924 14.7587 20.6658 14.6211 20.8336C14.4836 21.0014 14.3387 21.1619 14.1855 21.3151C14.0324 21.4692 13.8728 21.6141 13.7049 21.7516C13.538 21.8892 13.3638 22.0185 13.184 22.1396C13.0043 22.2597 12.819 22.3707 12.6282 22.4734C12.4366 22.5752 12.2412 22.6678 12.0413 22.7513C11.8414 22.8348 11.6378 22.9072 11.4305 22.9705C11.2241 23.0329 11.0141 23.0861 10.8013 23.1282C10.5895 23.1704 10.3758 23.2025 10.1603 23.2236C9.94475 23.2447 9.72923 23.2557 9.51279 23.2557C9.29635 23.2548 9.07991 23.2447 8.86439 23.2227C8.64978 23.2016 8.43609 23.1695 8.22332 23.1273C8.01146 23.0842 7.80144 23.0319 7.59418 22.9687C7.38782 22.9054 7.18422 22.832 6.98429 22.7495C6.78436 22.666 6.58901 22.5734 6.39825 22.4707C6.20749 22.3689 6.02223 22.257 5.84248 22.1368C5.6618 22.0158 5.48847 21.8874 5.32155 21.7498C5.15372 21.6122 4.99414 21.4664 4.84098 21.3133C4.68782 21.1592 4.54292 20.9987 4.40535 20.8318C4.26778 20.6639 4.13939 20.4897 4.01924 20.3099C3.8991 20.1293 3.78813 19.9431 3.68541 19.7523C3.58361 19.5606 3.49098 19.3653 3.40844 19.1644C3.32498 18.9645 3.25253 18.7609 3.18925 18.5527C3.12597 18.3455 3.07369 18.1354 3.03151 17.9227C2.98932 17.7099 2.95722 17.4962 2.93612 17.2798C2.91411 17.0642 2.90311 16.8478 2.90311 16.6314ZM1.93738 24.5259H37.4372V27.2351H1.93738V24.5259Z" fill="#E6AE00"/>
    </g>
    <path d="M9.51081 13.5035C9.59243 13.5035 9.67314 13.5117 9.75293 13.5273C9.83272 13.5429 9.91067 13.5668 9.98588 13.5979C10.062 13.63 10.1335 13.6686 10.2014 13.7135C10.2693 13.7594 10.3316 13.8107 10.3894 13.8685C10.4472 13.9263 10.4985 13.9896 10.5444 14.0574C10.5893 14.1253 10.6279 14.1968 10.659 14.2729C10.6902 14.3482 10.7141 14.4261 10.7297 14.5068C10.7462 14.5866 10.7544 14.6682 10.7544 14.7499C10.7544 14.8342 10.77 14.9149 10.8021 14.9929C10.8342 15.0708 10.8801 15.1396 10.9397 15.1992C10.9993 15.2589 11.0681 15.3047 11.1451 15.3368C11.2231 15.3689 11.3038 15.3854 11.3882 15.3854C11.4725 15.3854 11.5532 15.3689 11.6303 15.3368C11.7082 15.3047 11.777 15.2589 11.8366 15.1992C11.8953 15.1396 11.9412 15.0708 11.9742 14.9929C12.0063 14.9149 12.0219 14.8342 12.0219 14.7499C12.0219 14.6114 12.01 14.4747 11.987 14.339C11.9641 14.2032 11.9302 14.0693 11.8852 13.9391C11.8403 13.8089 11.7853 13.6832 11.7202 13.5613C11.655 13.4402 11.5798 13.3256 11.4955 13.2164C11.4111 13.1073 11.3185 13.0055 11.2176 12.9119C11.1167 12.8184 11.0085 12.734 10.8938 12.6579C10.7792 12.5818 10.6581 12.5157 10.5325 12.4598C10.4068 12.4039 10.2775 12.3589 10.1445 12.3241V11.9545C10.1445 11.871 10.128 11.7894 10.0959 11.7114C10.0638 11.6344 10.018 11.5656 9.95836 11.506C9.89967 11.4464 9.83089 11.4005 9.75293 11.3675C9.67497 11.3354 9.59427 11.3198 9.51081 11.3198C9.42644 11.3198 9.34573 11.3354 9.26777 11.3675C9.18982 11.4005 9.12195 11.4464 9.06234 11.506C9.00273 11.5656 8.95687 11.6344 8.92477 11.7114C8.89267 11.7894 8.87616 11.871 8.87616 11.9545V12.3241C8.73034 12.3617 8.58819 12.413 8.45062 12.4763C8.31305 12.5405 8.18282 12.6157 8.05901 12.7038C7.93612 12.7909 7.82056 12.889 7.71509 12.9972C7.6087 13.1055 7.51332 13.2219 7.42895 13.3476C7.34366 13.4732 7.2712 13.6062 7.20976 13.7447C7.14923 13.8832 7.10154 14.0262 7.06669 14.1739C7.03092 14.3216 7.00983 14.471 7.00157 14.6224C6.99332 14.7746 6.99974 14.925 7.019 15.0754C7.03826 15.2258 7.07035 15.3735 7.11621 15.5184C7.16298 15.6624 7.22076 15.8018 7.2923 15.9357C7.36292 16.0696 7.44546 16.1961 7.53992 16.3145C7.63347 16.4337 7.73802 16.5428 7.85174 16.6428C7.96546 16.7428 8.08652 16.8317 8.21675 16.9097C8.34699 16.9876 8.48272 17.0537 8.62396 17.1068C8.76611 17.16 8.91101 17.2004 9.05959 17.227C9.20908 17.2536 9.35949 17.2673 9.51081 17.2664C9.59243 17.2664 9.67314 17.2747 9.75293 17.2903C9.83272 17.3068 9.91067 17.3306 9.9868 17.3618C10.062 17.393 10.1335 17.4315 10.2014 17.4764C10.2693 17.5223 10.3325 17.5737 10.3903 17.6314C10.4472 17.6901 10.4995 17.7525 10.5444 17.8204C10.5903 17.8892 10.6279 17.9607 10.659 18.0359C10.6911 18.112 10.7141 18.19 10.7306 18.2698C10.7462 18.3505 10.7544 18.4312 10.7544 18.5137C10.7544 18.5953 10.7462 18.676 10.7306 18.7567C10.7141 18.8365 10.6911 18.9145 10.659 18.9906C10.6279 19.0658 10.5903 19.1374 10.5444 19.2061C10.4995 19.274 10.4472 19.3364 10.3903 19.3951C10.3325 19.4528 10.2693 19.5042 10.2014 19.5501C10.1335 19.595 10.062 19.6335 9.9868 19.6647C9.91067 19.6959 9.83272 19.7197 9.75293 19.7362C9.67314 19.7518 9.59243 19.7601 9.51081 19.7601C9.42919 19.7601 9.34756 19.7518 9.26777 19.7362C9.18798 19.7197 9.11003 19.6959 9.03483 19.6647C8.9587 19.6335 8.88717 19.595 8.8193 19.5501C8.75144 19.5042 8.68907 19.4528 8.63129 19.3951C8.57351 19.3364 8.52124 19.274 8.4763 19.2061C8.43136 19.1374 8.39284 19.0658 8.36166 18.9906C8.33048 18.9145 8.30663 18.8365 8.29104 18.7567C8.27453 18.676 8.26628 18.5953 8.26628 18.5137C8.26628 18.4293 8.25069 18.3477 8.21859 18.2698C8.18649 18.1927 8.14063 18.1239 8.08102 18.0643C8.02141 18.0047 7.95262 17.9589 7.87559 17.9268C7.79763 17.8937 7.71692 17.8781 7.63255 17.8781C7.54909 17.8781 7.46747 17.8937 7.39043 17.9268C7.31247 17.9589 7.24369 18.0047 7.18408 18.0643C7.12538 18.1239 7.07953 18.1927 7.04743 18.2698C7.01533 18.3477 6.99882 18.4293 6.99882 18.5137C6.99882 18.6513 7.01074 18.7879 7.03367 18.9237C7.0566 19.0603 7.09053 19.1933 7.13547 19.3235C7.18041 19.4538 7.23544 19.5803 7.30055 19.7014C7.36567 19.8224 7.44087 19.938 7.52525 20.0471C7.60962 20.1554 7.70225 20.2572 7.80313 20.3507C7.90402 20.4442 8.01224 20.5295 8.12688 20.6047C8.24243 20.6809 8.36258 20.7469 8.48822 20.8028C8.61387 20.8588 8.74318 20.9046 8.87616 20.9386V21.3082C8.87616 21.3925 8.89267 21.4733 8.92477 21.5512C8.95687 21.6292 9.00273 21.6979 9.06234 21.7576C9.12195 21.8172 9.18982 21.863 9.26777 21.8951C9.34573 21.9272 9.42644 21.9437 9.51081 21.9437C9.59427 21.9437 9.67497 21.9272 9.75293 21.8951C9.83089 21.863 9.89967 21.8172 9.95836 21.7576C10.018 21.6979 10.0638 21.6292 10.0959 21.5512C10.128 21.4733 10.1445 21.3925 10.1445 21.3082V20.9386C10.2913 20.901 10.4325 20.8496 10.5701 20.7863C10.7077 20.7221 10.8379 20.6469 10.9617 20.5598C11.0855 20.4718 11.2001 20.3745 11.3056 20.2663C11.412 20.1572 11.5074 20.0407 11.5918 19.9151C11.677 19.7894 11.7495 19.6574 11.8109 19.518C11.8715 19.3795 11.9192 19.2364 11.9549 19.0887C11.9898 18.9411 12.0109 18.7916 12.0191 18.6403C12.0274 18.4889 12.0219 18.3376 12.0017 18.1872C11.9824 18.0368 11.9503 17.8892 11.9045 17.7452C11.8586 17.6003 11.7999 17.4609 11.7284 17.327C11.6578 17.1931 11.5752 17.0674 11.4808 16.9482C11.3872 16.829 11.2836 16.7198 11.1699 16.6199C11.0562 16.5199 10.9342 16.4309 10.8039 16.353C10.6746 16.275 10.5389 16.209 10.3967 16.1558C10.2555 16.1026 10.1097 16.0632 9.96112 16.0357C9.81163 16.0091 9.66214 15.9962 9.51081 15.9962C9.42919 15.9962 9.34756 15.988 9.26777 15.9724C9.18798 15.9559 9.11003 15.932 9.03483 15.9008C8.95962 15.8697 8.88809 15.8311 8.82022 15.7853C8.75235 15.7403 8.68907 15.6881 8.63221 15.6303C8.57443 15.5725 8.52216 15.5101 8.47722 15.4414C8.43228 15.3735 8.39376 15.302 8.36258 15.2268C8.33139 15.1506 8.30755 15.0727 8.29196 14.9929C8.27545 14.9122 8.26811 14.8315 8.26811 14.7499C8.26811 14.6682 8.27545 14.5866 8.29196 14.5068C8.30755 14.4261 8.33139 14.3482 8.36258 14.2729C8.39376 14.1977 8.43228 14.1253 8.47722 14.0574C8.52216 13.9896 8.57443 13.9263 8.63221 13.8685C8.68907 13.8107 8.75235 13.7594 8.82022 13.7135C8.88809 13.6686 8.95962 13.63 9.03483 13.5979C9.11003 13.5668 9.18798 13.5429 9.26777 13.5273C9.34756 13.5117 9.42919 13.5035 9.51081 13.5035Z" fill="#E6AE00"/>
    <path d="M29.5692 19.8486C29.4995 19.8486 29.4308 19.8421 29.3629 19.8284C29.2941 19.8146 29.2281 19.7944 29.1639 19.7678C29.0997 19.7412 29.0382 19.7082 28.9804 19.6697C28.9227 19.6303 28.8686 19.5863 28.82 19.5367C28.7704 19.4881 28.7264 19.434 28.6879 19.3762C28.6494 19.3185 28.6164 19.257 28.5898 19.1928C28.5632 19.1277 28.543 19.0617 28.5292 18.9929C28.5155 18.925 28.509 18.8553 28.509 18.7856C28.509 18.7022 28.4925 18.6205 28.4604 18.5426C28.4283 18.4646 28.3825 18.3968 28.3229 18.3371C28.2633 18.2775 28.1954 18.2317 28.1174 18.1987C28.0395 18.1666 27.9588 18.151 27.8744 18.151C27.7909 18.151 27.7102 18.1666 27.6323 18.1987C27.5543 18.2317 27.4865 18.2775 27.4268 18.3371C27.3672 18.3968 27.3214 18.4646 27.2893 18.5426C27.2572 18.6205 27.2407 18.7022 27.2407 18.7856C27.2416 18.9122 27.2517 19.0369 27.2728 19.1607C27.2929 19.2845 27.3232 19.4065 27.3636 19.5257C27.4039 19.645 27.4534 19.7596 27.5121 19.8706C27.5718 19.9815 27.6387 20.087 27.7148 20.1879C27.7909 20.2879 27.8744 20.3814 27.9652 20.4676C28.056 20.5538 28.1532 20.6327 28.2578 20.7033C28.3614 20.7748 28.4696 20.8363 28.5833 20.8895C28.6971 20.9427 28.8144 20.9867 28.9355 21.0206V21.3077C28.9355 21.3921 28.9511 21.4728 28.9832 21.5507C29.0162 21.6287 29.0621 21.6975 29.1208 21.7571C29.1804 21.8167 29.2492 21.8625 29.3271 21.8946C29.4042 21.9267 29.4849 21.9433 29.5692 21.9433C29.6536 21.9433 29.7343 21.9267 29.8123 21.8946C29.8893 21.8625 29.9581 21.8167 30.0177 21.7571C30.0773 21.6975 30.1232 21.6287 30.1553 21.5507C30.1874 21.4728 30.203 21.3921 30.203 21.3077V21.0206C30.3369 20.983 30.4671 20.9335 30.5918 20.8721C30.7175 20.8115 30.8367 20.7391 30.9486 20.6565C31.0614 20.574 31.165 20.4823 31.2613 20.3814C31.3567 20.2796 31.4429 20.1714 31.519 20.054C31.5952 19.9375 31.6603 19.8146 31.7153 19.6862C31.7694 19.5578 31.8116 19.4248 31.8419 19.2891C31.873 19.1525 31.8905 19.0149 31.8969 18.8755C31.9024 18.7361 31.8951 18.5976 31.8767 18.4591C31.8575 18.3206 31.8254 18.1849 31.7822 18.0528C31.7391 17.9198 31.6841 17.7924 31.6172 17.6695C31.5511 17.5475 31.4741 17.431 31.387 17.3228C31.2998 17.2137 31.2035 17.1137 31.0981 17.022C30.9935 16.9303 30.8807 16.8496 30.7606 16.778C30.6414 16.7065 30.5157 16.6469 30.3855 16.5983C30.2552 16.5497 30.1213 16.513 29.9838 16.4882C29.8471 16.4644 29.7086 16.4525 29.5692 16.4525C29.4995 16.4525 29.4308 16.446 29.362 16.4323C29.2941 16.4185 29.2281 16.3983 29.1639 16.3718C29.0988 16.3452 29.0382 16.3121 28.9804 16.2736C28.9218 16.2342 28.8686 16.1902 28.819 16.1416C28.7704 16.092 28.7264 16.0379 28.6879 15.9801C28.6484 15.9224 28.6164 15.8609 28.5898 15.7967C28.5632 15.7316 28.543 15.6656 28.5292 15.5968C28.5155 15.5289 28.509 15.4592 28.509 15.3895C28.509 15.3198 28.5155 15.251 28.5292 15.1822C28.543 15.1135 28.5632 15.0474 28.5898 14.9832C28.6164 14.9181 28.6484 14.8567 28.6879 14.7989C28.7264 14.7411 28.7704 14.687 28.819 14.6384C28.8686 14.5889 28.9218 14.5448 28.9804 14.5054C29.0382 14.4669 29.0988 14.4339 29.1639 14.4073C29.2281 14.3807 29.2941 14.3605 29.362 14.3468C29.4308 14.3339 29.4995 14.3266 29.5692 14.3266C29.6389 14.3266 29.7077 14.3339 29.7765 14.3468C29.8444 14.3605 29.9104 14.3807 29.9755 14.4073C30.0397 14.4339 30.1003 14.4669 30.1589 14.5054C30.2167 14.5448 30.2699 14.5889 30.3194 14.6384C30.368 14.687 30.4121 14.7411 30.4515 14.7989C30.49 14.8567 30.5221 14.9181 30.5487 14.9832C30.5753 15.0474 30.5955 15.1135 30.6093 15.1822C30.623 15.251 30.6294 15.3198 30.6294 15.3895C30.6294 15.4739 30.6459 15.5546 30.678 15.6326C30.7101 15.7105 30.756 15.7793 30.8156 15.8389C30.8752 15.8985 30.9431 15.9444 31.021 15.9765C31.099 16.0086 31.1797 16.0251 31.2641 16.0251C31.3475 16.0251 31.4282 16.0086 31.5062 15.9765C31.5841 15.9444 31.6529 15.8985 31.7116 15.8389C31.7712 15.7793 31.8171 15.7105 31.8492 15.6326C31.8813 15.5546 31.8978 15.4739 31.8978 15.3895C31.8969 15.2639 31.8868 15.1391 31.8666 15.0144C31.8455 14.8906 31.8153 14.7686 31.7749 14.6494C31.7346 14.5302 31.685 14.4155 31.6263 14.3046C31.5676 14.1927 31.4998 14.0872 31.4246 13.9872C31.3484 13.8873 31.265 13.7937 31.1733 13.7066C31.0825 13.6204 30.9853 13.5415 30.8816 13.4709C30.778 13.4003 30.6689 13.3379 30.5551 13.2847C30.4414 13.2315 30.324 13.1884 30.203 13.1536V12.8665C30.203 12.7821 30.1874 12.7005 30.1553 12.6226C30.1232 12.5455 30.0773 12.4767 30.0177 12.4171C29.9581 12.3575 29.8893 12.3117 29.8123 12.2796C29.7343 12.2465 29.6536 12.231 29.5692 12.231C29.4849 12.231 29.4042 12.2465 29.3271 12.2796C29.2492 12.3117 29.1804 12.3575 29.1208 12.4171C29.0621 12.4767 29.0162 12.5455 28.9832 12.6226C28.9511 12.7005 28.9355 12.7821 28.9355 12.8665V13.1536C28.8016 13.1912 28.6714 13.2407 28.5466 13.3022C28.421 13.3627 28.3027 13.4351 28.1899 13.5177C28.078 13.6002 27.9734 13.6919 27.8781 13.7928C27.7818 13.8946 27.6956 14.0028 27.6194 14.1202C27.5433 14.2367 27.4782 14.3596 27.4232 14.488C27.3691 14.6164 27.3269 14.7494 27.2966 14.8851C27.2664 15.0218 27.248 15.1593 27.2425 15.2987C27.2361 15.4381 27.2434 15.5766 27.2627 15.7151C27.2819 15.8536 27.3131 15.9893 27.3562 16.1214C27.4002 16.2544 27.4544 16.3818 27.5213 16.5047C27.5873 16.6267 27.6644 16.7432 27.7515 16.8514C27.8386 16.9605 27.9349 17.0605 28.0404 17.1522C28.1459 17.2439 28.2578 17.3246 28.3779 17.3962C28.4971 17.4677 28.6228 17.5273 28.753 17.5759C28.8841 17.6245 29.018 17.6612 29.1547 17.686C29.2923 17.7098 29.4298 17.7227 29.5692 17.7218C29.6389 17.7218 29.7077 17.7282 29.7765 17.7419C29.8444 17.7557 29.9104 17.7759 29.9755 17.8025C30.0397 17.8291 30.1003 17.8621 30.1589 17.9006C30.2167 17.94 30.2699 17.984 30.3194 18.0336C30.368 18.0822 30.4121 18.1363 30.4515 18.1941C30.49 18.2518 30.5221 18.3133 30.5487 18.3775C30.5753 18.4426 30.5955 18.5086 30.6093 18.5774C30.623 18.6462 30.6294 18.715 30.6294 18.7847C30.6294 18.8544 30.623 18.9232 30.6093 18.992C30.5955 19.0607 30.5753 19.1268 30.5487 19.1919C30.5221 19.2561 30.49 19.3175 30.4515 19.3753C30.4121 19.4331 30.368 19.4872 30.3194 19.5358C30.2699 19.5853 30.2167 19.6294 30.1589 19.6688C30.1003 19.7073 30.0397 19.7403 29.9755 19.7669C29.9104 19.7935 29.8444 19.8137 29.7765 19.8275C29.7077 19.8412 29.6389 19.8476 29.5692 19.8476V19.8486Z" fill="#E6AE00"/>
  </g>
  <defs>
    <clipPath id="clip0_614_4149">
      <rect width="39.003" height="40" fill="white" transform="translate(0.498047 0.778076)"/>
    </clipPath>
  </defs>
</svg>