<svg xmlns="http://www.w3.org/2000/svg" width="32" height="41" viewBox="0 0 32 41" fill="none">
  <mask id="mask0_614_3971" style="mask-type:luminance" maskUnits="userSpaceOnUse" x="0" y="0" width="32" height="41">
    <path d="M0.498047 0.778076H31.501V40.7781H0.498047V0.778076Z" fill="white"/>
  </mask>
  <g mask="url(#mask0_614_3971)">
    <path d="M28.5819 21.8246C28.5806 21.5643 28.606 21.3071 28.6595 21.0524C28.7124 20.797 28.792 20.5498 28.8977 20.3095C29.0035 20.0692 29.1333 19.8407 29.2872 19.6248C29.441 19.4089 29.6157 19.2093 29.8117 19.0259C29.9415 18.9038 30.0646 18.7756 30.1817 18.6422C30.2982 18.5089 30.4072 18.3706 30.5089 18.2267C30.6113 18.0834 30.7056 17.9357 30.7919 17.7836C30.8783 17.6309 30.9565 17.4751 31.0268 17.3161C31.097 17.1565 31.1593 16.9944 31.2121 16.8292C31.2657 16.664 31.3105 16.4969 31.3459 16.3279C31.3821 16.1583 31.4088 15.9881 31.4269 15.8166C31.445 15.6445 31.4537 15.4724 31.4537 15.3003C31.4537 15.1275 31.445 14.9554 31.4269 14.7839C31.4088 14.6118 31.3821 14.4416 31.3459 14.2726C31.3105 14.103 31.2657 13.9359 31.2121 13.7713C31.1593 13.6061 31.097 13.4434 31.0268 13.2844C30.9565 13.1248 30.8783 12.969 30.7919 12.8169C30.7056 12.6648 30.6113 12.5165 30.5089 12.3732C30.4072 12.2299 30.2982 12.0909 30.1817 11.9576C30.0646 11.8243 29.9415 11.6967 29.8117 11.5746C29.615 11.3913 29.4397 11.1922 29.2852 10.9763C29.1313 10.7604 29.0008 10.532 28.8951 10.2916C28.79 10.0513 28.7104 9.80349 28.6575 9.54815C28.6047 9.29343 28.5793 9.03559 28.5819 8.77586C28.5806 8.60313 28.5706 8.43165 28.5518 8.26017C28.5331 8.08869 28.505 7.91846 28.4682 7.74948C28.4314 7.58051 28.3866 7.41403 28.3324 7.24944C28.2782 7.08484 28.2153 6.92275 28.1444 6.76378C28.0734 6.60482 27.9945 6.44961 27.9068 6.29816C27.8198 6.14608 27.7248 5.99901 27.6225 5.85631C27.5194 5.713 27.4097 5.57531 27.2926 5.44263C27.1755 5.30933 27.0524 5.18228 26.9219 5.06087C26.7914 4.93946 26.655 4.8243 26.5131 4.71541C26.3706 4.60651 26.2227 4.5045 26.0702 4.40937C25.9169 4.31362 25.759 4.22537 25.5971 4.14464C25.4352 4.0639 25.2686 3.99068 25.0993 3.92497C24.9294 3.85925 24.7561 3.80168 24.5801 3.75224C24.4048 3.70279 24.2268 3.66086 24.0462 3.62769C23.8662 3.59452 23.6849 3.56949 23.5015 3.55259C23.3189 3.53632 23.1355 3.52818 22.9522 3.52818C22.6752 3.53006 22.4009 3.50628 22.1286 3.45684C21.8569 3.4074 21.5926 3.33292 21.3363 3.23404C21.0801 3.13453 20.8372 3.01312 20.607 2.86792C20.3769 2.72335 20.1648 2.55876 19.9694 2.37413C19.8396 2.25209 19.7031 2.13631 19.5613 2.02742C19.4187 1.9179 19.2709 1.81526 19.1183 1.7195C18.9651 1.62375 18.8079 1.53551 18.6453 1.45415C18.4833 1.37279 18.3174 1.29956 18.1475 1.23385C17.9775 1.16751 17.8042 1.10993 17.6282 1.05987C17.4523 1.0098 17.2743 0.967869 17.0943 0.934073C16.9137 0.900904 16.7323 0.875244 16.549 0.858347C16.3663 0.841449 16.183 0.833313 15.999 0.833313C15.815 0.833313 15.6317 0.841449 15.449 0.858347C15.2657 0.875244 15.0844 0.900904 14.9037 0.934073C14.7237 0.967869 14.5457 1.0098 14.3698 1.05987C14.1938 1.10993 14.0205 1.16751 13.8506 1.23385C13.6806 1.29956 13.5147 1.37279 13.3528 1.45415C13.1902 1.53551 13.0329 1.62375 12.8797 1.7195C12.7272 1.81526 12.5793 1.9179 12.4368 2.02742C12.2949 2.13631 12.1584 2.25209 12.0286 2.37413C11.8333 2.55813 11.6205 2.72273 11.3903 2.8673C11.1601 3.01187 10.9173 3.1339 10.661 3.23279C10.4047 3.33167 10.1411 3.40615 9.86947 3.45621C9.59715 3.50565 9.32282 3.53006 9.04582 3.52818C8.86182 3.52818 8.67849 3.53695 8.49582 3.55447C8.31316 3.57137 8.13117 3.59703 7.95118 3.63082C7.77053 3.66462 7.59255 3.70655 7.41658 3.75662C7.24128 3.80668 7.06798 3.86489 6.8987 3.93123C6.72875 3.99757 6.56282 4.07079 6.4009 4.15215C6.23831 4.23351 6.08108 4.32238 5.92852 4.41813C5.7753 4.51388 5.6281 4.61715 5.48625 4.72604C5.34374 4.83557 5.20791 4.95135 5.07811 5.07339C4.94763 5.19543 4.82452 5.3231 4.7081 5.4564C4.59168 5.5897 4.48195 5.72802 4.37958 5.87133C4.27787 6.01465 4.18286 6.16235 4.09655 6.31443C4.00957 6.46651 3.93129 6.62234 3.86036 6.78193C3.79011 6.9409 3.72788 7.10299 3.67502 7.26821C3.6215 7.43343 3.57667 7.60053 3.54054 7.76951C3.50441 7.93849 3.47697 8.10872 3.45891 8.28082C3.44084 8.4523 3.43147 8.62441 3.43147 8.79651C3.43281 9.05686 3.40672 9.31409 3.35319 9.5688C3.30033 9.82415 3.22071 10.0714 3.11499 10.3117C3.00995 10.552 2.88014 10.7804 2.72625 10.9963C2.57236 11.2123 2.39706 11.4119 2.20102 11.5953C2.07188 11.7173 1.94944 11.8456 1.83435 11.9789C1.7186 12.1122 1.61021 12.2512 1.50918 12.3945C1.40814 12.5378 1.31447 12.6855 1.22883 12.8376C1.14318 12.9896 1.06557 13.1455 0.996653 13.3051C0.927067 13.464 0.86618 13.6261 0.813322 13.7907C0.761133 13.9559 0.717642 14.1224 0.68218 14.2914C0.647387 14.4604 0.621293 14.63 0.603896 14.8015C0.5865 14.9729 0.578471 15.1444 0.57914 15.3165C0.579809 15.4886 0.589176 15.6601 0.607911 15.831C0.626646 16.0024 0.654078 16.1721 0.690878 16.3404C0.727009 16.5094 0.771838 16.6759 0.826035 16.8405C0.879562 17.0044 0.941787 17.1665 1.01271 17.3249C1.08297 17.4838 1.16192 17.639 1.2489 17.7905C1.33588 17.9419 1.43022 18.089 1.53259 18.2317C1.63497 18.3744 1.74403 18.5121 1.86112 18.6448C1.97754 18.7774 2.10065 18.9045 2.23046 19.0259C2.4265 19.2099 2.60046 19.4095 2.75435 19.6261C2.90758 19.842 3.03738 20.0704 3.1431 20.3101C3.24814 20.5504 3.32777 20.7976 3.38129 21.0524C3.43482 21.3077 3.46158 21.5649 3.46091 21.8246C3.46091 21.9767 3.46761 22.1288 3.48166 22.2803C3.49571 22.4323 3.51645 22.5832 3.54388 22.7327C3.57198 22.8829 3.60611 23.0319 3.64759 23.179C3.68974 23.326 3.73792 23.4712 3.79278 23.6146C3.84765 23.7579 3.90921 23.8987 3.97678 24.037C4.04503 24.1753 4.1193 24.3105 4.19959 24.4425C4.27988 24.5746 4.36619 24.7035 4.45853 24.8287C4.55086 24.9539 4.64922 25.0753 4.75226 25.1923C4.85597 25.31 4.96503 25.4226 5.07878 25.5309C5.19252 25.6392 5.31162 25.743 5.43473 25.8419C5.55852 25.9402 5.68631 26.0341 5.81812 26.1223C5.9506 26.2105 6.08643 26.2932 6.22627 26.3708C6.36611 26.4477 6.50929 26.5191 6.65582 26.5848C6.80236 26.6505 6.95156 26.71 7.10345 26.7638C7.25533 26.817 7.40922 26.8645 7.56579 26.9052C7.72169 26.9465 7.87959 26.981 8.0395 27.0091L2.37966 39.8195C2.36026 39.8695 2.34688 39.9208 2.34086 39.9734C2.33417 40.026 2.33417 40.0786 2.34086 40.1311C2.34755 40.1837 2.36093 40.2344 2.381 40.2845C2.40041 40.3339 2.4265 40.3808 2.45795 40.4246C2.49006 40.4685 2.52686 40.5079 2.56835 40.5436C2.6105 40.5792 2.656 40.6093 2.70551 40.6349C2.75569 40.66 2.80721 40.6794 2.86208 40.6931C2.91694 40.7069 2.97248 40.7144 3.02868 40.715H3.16317L16.0177 38.3713L28.8723 40.715H29.0068C29.1119 40.7125 29.2115 40.6894 29.3066 40.6468C29.4009 40.6043 29.4825 40.5454 29.5508 40.4703C29.5949 40.4228 29.6304 40.3708 29.6578 40.3139C29.6853 40.2569 29.704 40.1968 29.7134 40.1349C29.7227 40.0729 29.7221 40.011 29.712 39.949C29.7027 39.887 29.6833 39.8276 29.6552 39.7706L23.9813 27.0091C24.1412 26.981 24.2991 26.9472 24.4563 26.9065C24.6129 26.8658 24.7674 26.8189 24.92 26.7657C25.0719 26.7125 25.2218 26.653 25.369 26.5879C25.5155 26.5222 25.6593 26.4509 25.7999 26.3739C25.9404 26.2969 26.0769 26.2143 26.2093 26.1261C26.3418 26.0378 26.4703 25.9446 26.5941 25.8457C26.7185 25.7474 26.8376 25.6435 26.952 25.5353C27.0664 25.427 27.1762 25.3143 27.2799 25.1967C27.3843 25.0796 27.4826 24.9582 27.5756 24.8331C27.668 24.7079 27.7549 24.579 27.8359 24.4469C27.9169 24.3142 27.9918 24.1791 28.06 24.0408C28.1283 23.9018 28.1905 23.761 28.2454 23.6177C28.3009 23.4744 28.3498 23.3285 28.3919 23.1815C28.4334 23.0338 28.4689 22.8848 28.497 22.7346C28.5251 22.5844 28.5458 22.4336 28.5605 22.2815C28.5746 22.1294 28.5813 21.9767 28.5819 21.8246ZM22.9522 25.7843C22.5829 25.7837 22.2175 25.8163 21.8556 25.8832C21.4936 25.9502 21.1423 26.0491 20.8011 26.1811C20.4598 26.3138 20.136 26.4759 19.8289 26.668C19.5224 26.8602 19.2387 27.0786 18.9778 27.3239C18.8801 27.4153 18.7777 27.5029 18.6714 27.5849C18.5643 27.6675 18.4539 27.7445 18.3388 27.8171C18.2244 27.889 18.106 27.9554 17.9842 28.0167C17.8624 28.0781 17.7373 28.1338 17.6095 28.1832C17.4824 28.2326 17.3526 28.2764 17.2201 28.314C17.0876 28.3522 16.9538 28.3835 16.8186 28.4091C16.6828 28.4342 16.5463 28.4529 16.4092 28.4661C16.2713 28.4786 16.1335 28.4848 15.995 28.4848C15.8572 28.4848 15.7193 28.4786 15.5815 28.4661C15.4443 28.4529 15.3078 28.4342 15.172 28.4091C15.0369 28.3835 14.903 28.3522 14.7706 28.314C14.6381 28.2764 14.5083 28.2326 14.3805 28.1832C14.2534 28.1338 14.1282 28.0781 14.0065 28.0167C13.8847 27.9554 13.7663 27.889 13.6518 27.8171C13.5368 27.7445 13.4257 27.6675 13.3193 27.5849C13.2122 27.5029 13.1105 27.4153 13.0129 27.3239C12.7526 27.0786 12.4696 26.8602 12.1638 26.668C11.8573 26.4753 11.5342 26.3132 11.1936 26.1811C10.853 26.0491 10.5024 25.9496 10.1404 25.8826C9.77914 25.8163 9.41449 25.7831 9.04582 25.7843C8.90865 25.7831 8.77149 25.7762 8.635 25.7624C8.49783 25.7487 8.36268 25.7286 8.22819 25.7024C8.09303 25.6761 7.96055 25.6442 7.82941 25.606C7.6976 25.5672 7.56913 25.5234 7.44201 25.4733C7.31555 25.4232 7.19177 25.3669 7.07133 25.3056C6.95022 25.2442 6.83313 25.1773 6.71939 25.1053C6.60497 25.0327 6.49524 24.9557 6.38953 24.8731C6.28381 24.7911 6.18278 24.7041 6.08576 24.6121C5.98874 24.5208 5.89708 24.425 5.81076 24.3249C5.72378 24.2247 5.64215 24.1209 5.56654 24.0138C5.49027 23.9062 5.42001 23.7954 5.35578 23.6815C5.29155 23.5676 5.23267 23.4512 5.18048 23.3317C5.12829 23.2128 5.08212 23.0914 5.04265 22.9674C5.00317 22.8441 4.96972 22.719 4.94295 22.5926C4.91619 22.4661 4.89612 22.3385 4.88273 22.2102C4.86935 22.0819 4.86266 21.9536 4.86266 21.8246C4.864 21.4786 4.82921 21.1362 4.75828 20.797C4.68669 20.4578 4.58097 20.1286 4.44046 19.8088C4.29929 19.4896 4.12666 19.1861 3.92125 18.8988C3.71651 18.6116 3.48366 18.3462 3.22272 18.1021C3.12436 18.0108 3.03203 17.915 2.94438 17.8149C2.85606 17.7148 2.77376 17.6102 2.69681 17.5026C2.61987 17.3949 2.54894 17.2842 2.48404 17.1696C2.41847 17.0551 2.35959 16.9381 2.30673 16.8185C2.25387 16.699 2.20704 16.577 2.16689 16.4531C2.12675 16.3285 2.09329 16.2033 2.06586 16.0757C2.0391 15.9486 2.01902 15.821 2.00497 15.6914C1.99159 15.5625 1.9849 15.4336 1.9849 15.3034C1.9849 15.1738 1.99159 15.0443 2.00497 14.9154C2.01902 14.7864 2.0391 14.6581 2.06586 14.5311C2.09329 14.4041 2.12675 14.2783 2.16689 14.1543C2.20704 14.0304 2.25387 13.9084 2.30673 13.7888C2.35959 13.6687 2.41847 13.5517 2.48404 13.4378C2.54894 13.3232 2.61987 13.2118 2.69681 13.1042C2.77376 12.9965 2.85606 12.8926 2.94438 12.7925C3.03203 12.6924 3.12436 12.5966 3.22272 12.5046C3.48366 12.2605 3.71718 11.9946 3.92192 11.7067C4.12733 11.4188 4.29995 11.1146 4.44113 10.7948C4.58164 10.4744 4.68803 10.1446 4.75895 9.80474C4.82987 9.46491 4.86467 9.12195 4.86266 8.77586C4.86333 8.64631 4.87002 8.51739 4.88407 8.38847C4.89745 8.26017 4.91819 8.1325 4.94496 8.00545C4.97239 7.87841 5.00585 7.75324 5.04599 7.62995C5.08614 7.50603 5.13297 7.38462 5.18583 7.26508C5.23869 7.14555 5.29757 7.02914 5.36247 6.91524C5.42804 6.80133 5.49897 6.69056 5.57524 6.58291C5.65219 6.47527 5.73449 6.37201 5.82214 6.27187C5.90912 6.17174 6.00212 6.07661 6.09914 5.98524C6.19683 5.89386 6.2992 5.80687 6.40558 5.72489C6.51197 5.6429 6.62304 5.56592 6.73745 5.49458C6.85187 5.42261 6.9703 5.35627 7.09207 5.29556C7.21318 5.23423 7.33763 5.17915 7.46542 5.12971C7.59255 5.08027 7.72236 5.03709 7.85417 4.99954C7.98598 4.96199 8.1198 4.93069 8.25495 4.90566C8.39011 4.88 8.52593 4.86123 8.6631 4.84871C8.80026 4.83619 8.93809 4.82993 9.07593 4.82993C9.44393 4.83056 9.80925 4.79802 10.1706 4.73105C10.5319 4.66471 10.8831 4.5652 11.2237 4.43315C11.5643 4.3011 11.8874 4.13838 12.1932 3.94625C12.4997 3.75411 12.7827 3.53569 13.0423 3.29036C13.14 3.19837 13.2424 3.11137 13.3487 3.02939C13.4558 2.94678 13.5669 2.8698 13.6813 2.7972C13.7964 2.72523 13.9148 2.65827 14.0366 2.59756C14.1583 2.53623 14.2828 2.48053 14.4106 2.43109C14.5384 2.38102 14.6682 2.33784 14.8007 2.29966C14.9325 2.26211 15.0663 2.23082 15.2021 2.20516C15.3373 2.18012 15.4738 2.16072 15.6116 2.14821C15.7488 2.13569 15.8866 2.12943 16.0251 2.12943C16.1636 2.12943 16.3014 2.13569 16.4386 2.14821C16.5764 2.16072 16.7129 2.18012 16.8481 2.20516C16.9839 2.23082 17.1177 2.26211 17.2495 2.29966C17.382 2.33784 17.5118 2.38102 17.6396 2.43109C17.7674 2.48053 17.8919 2.53623 18.0136 2.59756C18.1354 2.65827 18.2538 2.72523 18.3689 2.7972C18.4833 2.8698 18.5944 2.94678 18.7015 3.02939C18.8079 3.11137 18.9102 3.19837 19.0079 3.29036C19.2655 3.53569 19.5465 3.75474 19.851 3.94812C20.1547 4.14151 20.4759 4.30485 20.8145 4.43878C21.153 4.57271 21.5016 4.6741 21.8616 4.74357C22.2216 4.81304 22.5849 4.84871 22.9522 4.85059C23.09 4.85059 23.2272 4.85747 23.3644 4.86999C23.5009 4.88313 23.6374 4.90253 23.7718 4.92757C23.907 4.95322 24.0401 4.98452 24.172 5.02207C24.3038 5.05962 24.4329 5.10343 24.56 5.15287C24.6872 5.20231 24.8116 5.25738 24.9327 5.31872C25.0545 5.37942 25.1722 5.44576 25.2867 5.51773C25.4011 5.5897 25.5115 5.66668 25.6179 5.74867C25.7242 5.83065 25.826 5.91702 25.9236 6.00839C26.0207 6.09977 26.113 6.19552 26.2006 6.29503C26.2883 6.39516 26.3699 6.49843 26.4462 6.60607C26.5231 6.71372 26.5941 6.82386 26.659 6.93777C26.7239 7.05167 26.7827 7.1687 26.8356 7.28761C26.8885 7.40715 26.9346 7.52856 26.9748 7.65185C27.0149 7.77577 27.0484 7.90094 27.0751 8.02736C27.1026 8.15378 27.1226 8.28145 27.1367 8.41037C27.1501 8.53867 27.1574 8.66759 27.1574 8.79651C27.1561 9.14323 27.1909 9.48619 27.2618 9.82602C27.3327 10.1659 27.4385 10.4957 27.5796 10.8155C27.7201 11.1359 27.8928 11.4394 28.0982 11.7273C28.3036 12.0152 28.5364 12.2812 28.7981 12.5259C28.8964 12.6173 28.9894 12.713 29.0777 12.8132C29.1661 12.9127 29.2484 13.0166 29.326 13.1242C29.4029 13.2319 29.4745 13.3433 29.5401 13.4572C29.6056 13.5717 29.6652 13.6887 29.7181 13.8083C29.7716 13.9284 29.8184 14.0505 29.8586 14.1744C29.8994 14.2983 29.9328 14.4241 29.9603 14.5517C29.987 14.6788 30.0078 14.8071 30.0212 14.936C30.0345 15.0656 30.0419 15.1945 30.0419 15.3247C30.0419 15.4542 30.0345 15.5838 30.0212 15.7133C30.0078 15.8422 29.987 15.9705 29.9603 16.0976C29.9328 16.2252 29.8994 16.3504 29.8586 16.475C29.8184 16.5989 29.7716 16.7209 29.7181 16.8405C29.6652 16.9606 29.6056 17.0776 29.5401 17.1915C29.4745 17.3061 29.4029 17.4169 29.326 17.5245C29.2484 17.6321 29.1661 17.736 29.0777 17.8362C28.9894 17.9363 28.8964 18.0321 28.7981 18.1234C28.5398 18.3663 28.3089 18.631 28.1062 18.917C27.9035 19.203 27.7322 19.5047 27.5924 19.822C27.4532 20.1393 27.3481 20.4666 27.2772 20.8039C27.2063 21.1406 27.1715 21.4811 27.1722 21.8246C27.1722 21.9542 27.1655 22.0837 27.1521 22.2127C27.1387 22.3416 27.118 22.4699 27.0912 22.5969C27.0644 22.724 27.031 22.8498 26.9908 22.9737C26.9507 23.0982 26.9039 23.2203 26.851 23.3398C26.7981 23.46 26.7393 23.577 26.6744 23.6909C26.6088 23.8054 26.5379 23.9168 26.4609 24.0245C26.3846 24.1321 26.3023 24.2366 26.2147 24.3368C26.127 24.4369 26.034 24.5327 25.9363 24.6247C25.8387 24.716 25.7363 24.803 25.6292 24.8856C25.5229 24.9676 25.4118 25.0452 25.2967 25.1172C25.1816 25.1892 25.0632 25.2555 24.9414 25.3168C24.8196 25.3782 24.6945 25.4332 24.5674 25.4833C24.4396 25.5328 24.3091 25.5766 24.1773 25.6141C24.0448 25.6517 23.911 25.683 23.7752 25.7086C23.64 25.7337 23.5035 25.7524 23.3657 25.7656C23.2279 25.7781 23.09 25.7843 22.9522 25.7843ZM15.3165 33.6487V37.1471L10.008 38.1266L12.0433 32.8651C12.0594 32.8244 12.0708 32.7831 12.0781 32.7406C12.0855 32.698 12.0882 32.6555 12.0862 32.6123C12.0842 32.5691 12.0781 32.5265 12.0674 32.4846C12.0561 32.4427 12.0413 32.4026 12.0219 32.3632C12.0025 32.3244 11.9791 32.2875 11.9517 32.2524C11.9242 32.218 11.8941 32.1861 11.86 32.1573C11.8259 32.1279 11.7891 32.1028 11.7496 32.0803C11.7101 32.0584 11.6693 32.0403 11.6258 32.0252C11.5489 31.9977 11.4693 31.9839 11.387 31.9833C11.3154 31.9858 11.2458 31.9977 11.1775 32.019C11.1093 32.0403 11.0464 32.0703 10.9875 32.1085C10.9286 32.1473 10.8764 32.1923 10.8316 32.2449C10.7868 32.2975 10.7507 32.3551 10.7239 32.417L8.39747 38.4207L4.1842 39.1899L9.53091 27.128C10.0066 27.1762 10.4609 27.297 10.8932 27.4898C11.3247 27.6831 11.7108 27.9379 12.0507 28.2545C12.1805 28.3766 12.317 28.4924 12.4589 28.6025C12.6007 28.712 12.7486 28.8147 12.9011 28.911C13.0543 29.0068 13.2116 29.0957 13.3735 29.177C13.5361 29.259 13.702 29.3322 13.872 29.3986C14.0419 29.4649 14.2145 29.5231 14.3905 29.5732C14.5672 29.6233 14.7451 29.6652 14.9258 29.699C15.1058 29.7328 15.2878 29.7584 15.4711 29.7753C15.6538 29.7922 15.8371 29.8004 16.0211 29.8004C16.2051 29.8004 16.3891 29.7922 16.5718 29.7753C16.7551 29.7584 16.9371 29.7328 17.1171 29.699C17.2977 29.6652 17.4757 29.6233 17.6517 29.5732C17.8276 29.5231 18.0009 29.4649 18.1709 29.3986C18.3408 29.3322 18.5068 29.259 18.6687 29.177C18.8313 29.0957 18.9885 29.0068 19.1417 28.911C19.2943 28.8147 19.4422 28.712 19.584 28.6025C19.7258 28.4924 19.8617 28.3766 19.9921 28.2545C20.3307 27.9385 20.7154 27.6844 21.1463 27.491C21.5772 27.2976 22.0302 27.1768 22.5046 27.128L27.8586 39.1899L23.638 38.4207L21.3116 32.417C21.2875 32.3538 21.2534 32.2956 21.2099 32.2418C21.1664 32.1886 21.1149 32.1423 21.056 32.1035C20.9978 32.0647 20.9342 32.0352 20.866 32.0146C20.7971 31.9939 20.7275 31.9839 20.6552 31.9833C20.5709 31.9846 20.4886 31.9983 20.4097 32.0252C20.3662 32.0403 20.3247 32.0584 20.2852 32.0803C20.2457 32.1028 20.2096 32.1279 20.1755 32.1573C20.1414 32.1861 20.1106 32.218 20.0838 32.2524C20.0564 32.2875 20.033 32.3244 20.0136 32.3632C19.9942 32.4026 19.9788 32.4427 19.9681 32.4846C19.9574 32.5265 19.9507 32.5691 19.9493 32.6123C19.9473 32.6555 19.95 32.698 19.9574 32.7406C19.964 32.7831 19.9761 32.8244 19.9921 32.8651L22.0275 38.1266L16.7263 37.154V33.6555C16.731 33.6092 16.731 33.5629 16.7256 33.5172C16.7203 33.4709 16.7103 33.4252 16.6949 33.3814C16.6795 33.337 16.6594 33.2951 16.6346 33.2544C16.6092 33.2143 16.5805 33.1768 16.547 33.1424C16.5142 33.1079 16.4774 33.0766 16.4373 33.0497C16.3971 33.0222 16.3543 32.999 16.3095 32.9803C16.264 32.9615 16.2171 32.9471 16.1683 32.9377C16.1201 32.9277 16.0713 32.9227 16.0211 32.9227C15.9716 32.9227 15.9227 32.9277 15.8746 32.9377C15.8257 32.9471 15.7789 32.9615 15.7334 32.9803C15.6886 32.999 15.6457 33.0222 15.6056 33.0497C15.5654 33.0766 15.5286 33.1079 15.4952 33.1424C15.4624 33.1768 15.433 33.2143 15.4082 33.2544C15.3834 33.2951 15.3634 33.337 15.348 33.3814C15.3326 33.4252 15.3226 33.4709 15.3172 33.5172C15.3119 33.5629 15.3119 33.6092 15.3165 33.6555V33.6487Z" fill="#E6AE00"/>
  </g>
  <path d="M20.5695 11.099C20.4591 11.0371 20.34 11.007 20.2115 11.0083C20.0877 11.0083 19.972 11.0364 19.8642 11.094C19.7558 11.1516 19.6709 11.2305 19.6073 11.33L14.8728 18.7887L11.532 14.8284C11.4651 14.7502 11.3828 14.6895 11.2858 14.6469C11.1895 14.6037 11.0871 14.5825 10.98 14.5837C10.8181 14.5818 10.6743 14.6281 10.5478 14.7233C10.5117 14.7502 10.4782 14.7802 10.4481 14.8134C10.418 14.8466 10.3912 14.8822 10.3692 14.9204C10.3464 14.9586 10.3277 14.998 10.3136 15.0399C10.2996 15.0813 10.2895 15.1238 10.2849 15.167C10.2795 15.2102 10.2788 15.2534 10.2829 15.2972C10.2869 15.3403 10.2949 15.3829 10.3083 15.4248C10.321 15.4668 10.3384 15.5068 10.3598 15.5456C10.3812 15.5838 10.4066 15.6201 10.4361 15.6539L14.4031 20.349C14.472 20.4247 14.5543 20.4841 14.6507 20.5267C14.747 20.5692 14.8481 20.5918 14.9544 20.5937H14.9993C15.115 20.5868 15.2228 20.5549 15.3218 20.4979C15.4208 20.441 15.4998 20.3659 15.5586 20.272L20.815 12.0296C20.8619 11.952 20.8913 11.8694 20.904 11.7812C20.9167 11.6923 20.912 11.6053 20.8886 11.519C20.8659 11.4326 20.8271 11.3531 20.7715 11.2805C20.7167 11.2079 20.6491 11.1478 20.5695 11.099Z" fill="#E6AE00"/>
  <path d="M16.0265 5.73346C15.692 5.73346 15.3581 5.74848 15.0249 5.77915C14.6924 5.81044 14.3618 5.85612 14.0333 5.91746C13.7055 5.97879 13.3809 6.05514 13.0611 6.14589C12.7406 6.23726 12.4262 6.34303 12.117 6.46319C11.8079 6.58335 11.5062 6.71728 11.2111 6.86498C10.916 7.0133 10.6296 7.17415 10.3513 7.34875C10.073 7.52336 9.80466 7.70987 9.54572 7.90888C9.28745 8.1079 9.03989 8.31881 8.80303 8.54098C8.56684 8.76253 8.34203 8.99534 8.12992 9.23754C7.91782 9.48037 7.71843 9.73196 7.53309 9.99356C7.34709 10.2545 7.17513 10.523 7.01723 10.8003C6.85999 11.0769 6.7168 11.3604 6.58901 11.6502C6.46054 11.9405 6.34813 12.2359 6.25112 12.5364C6.1541 12.8368 6.07247 13.1409 6.00757 13.4488C5.942 13.7567 5.89315 14.0665 5.86037 14.3788C5.82758 14.6917 5.81152 15.0047 5.81152 15.3188C5.81152 15.6324 5.82758 15.9459 5.86037 16.2582C5.89315 16.5705 5.942 16.8809 6.00757 17.1889C6.07247 17.4968 6.1541 17.8009 6.25112 18.1013C6.34813 18.4017 6.46054 18.6965 6.58901 18.9869C6.7168 19.2767 6.85999 19.5602 7.01723 19.8374C7.17513 20.114 7.34709 20.3831 7.53309 20.6441C7.71843 20.9051 7.91782 21.1567 8.12992 21.3995C8.34203 21.6423 8.56684 21.8745 8.80303 22.0967C9.03989 22.3182 9.28745 22.5292 9.54572 22.7282C9.80466 22.9272 10.073 23.1143 10.3513 23.2883C10.6296 23.4629 10.916 23.6244 11.2111 23.7721C11.5062 23.9204 11.8079 24.0543 12.117 24.1745C12.4262 24.2946 12.7406 24.4004 13.0611 24.4912C13.3809 24.5825 13.7055 24.6589 14.0333 24.7196C14.3618 24.7809 14.6924 24.8272 15.0249 24.8579C15.3581 24.8886 15.692 24.9042 16.0265 24.9042C16.3611 24.9042 16.695 24.8886 17.0275 24.8579C17.3607 24.8272 17.6912 24.7809 18.0191 24.7196C18.3476 24.6589 18.6715 24.5825 18.9919 24.4912C19.3118 24.4004 19.6262 24.2946 19.9354 24.1745C20.2445 24.0543 20.5469 23.9204 20.842 23.7721C21.1371 23.6244 21.4234 23.4629 21.7018 23.2883C21.9801 23.1143 22.2484 22.9272 22.5067 22.7282C22.7656 22.5292 23.0132 22.3182 23.25 22.0967C23.4862 21.8745 23.7104 21.6423 23.9231 21.3995C24.1352 21.1567 24.334 20.9051 24.52 20.6441C24.706 20.3831 24.8779 20.114 25.0352 19.8374C25.1931 19.5602 25.3363 19.2767 25.4641 18.9869C25.5919 18.6965 25.7049 18.4017 25.802 18.1013C25.899 17.8009 25.9799 17.4968 26.0455 17.1889C26.1104 16.8809 26.1599 16.5705 26.1927 16.2582C26.2255 15.9459 26.2415 15.6324 26.2415 15.3188C26.2409 15.0047 26.2241 14.6917 26.1914 14.3795C26.1579 14.0672 26.1084 13.7574 26.0428 13.4495C25.9773 13.1422 25.8956 12.838 25.7986 12.5376C25.7009 12.2372 25.5885 11.9424 25.46 11.6527C25.3323 11.3629 25.1891 11.0794 25.0312 10.8028C24.8733 10.5261 24.7013 10.2577 24.5153 9.99669C24.33 9.73571 24.1306 9.48412 23.9185 9.2413C23.7064 8.9991 23.4815 8.76691 23.2454 8.54474C23.0092 8.32319 22.7616 8.11228 22.5027 7.91326C22.2444 7.71425 21.9761 7.52712 21.6984 7.35314C21.4201 7.17853 21.1337 7.01706 20.8386 6.86936C20.5442 6.72104 20.2425 6.58711 19.9334 6.46694C19.6242 6.34616 19.3098 6.24039 18.9899 6.14902C18.6701 6.05764 18.3463 5.98129 18.0184 5.91996C17.6906 5.858 17.36 5.81169 17.0275 5.7804C16.6943 5.74973 16.3611 5.73346 16.0265 5.73346ZM16.0265 23.5818C15.7382 23.5818 15.4504 23.5687 15.1634 23.5418C14.8764 23.5155 14.5913 23.4754 14.3083 23.4229C14.0253 23.3703 13.7463 23.3046 13.4699 23.2257C13.1943 23.1475 12.9233 23.0561 12.6563 22.9528C12.39 22.849 12.1297 22.7338 11.8755 22.6061C11.6212 22.4785 11.3737 22.3395 11.1341 22.1893C10.8946 22.0385 10.6631 21.8777 10.4403 21.7062C10.2168 21.5341 10.0034 21.3526 9.79997 21.1617C9.5959 20.9702 9.40253 20.7699 9.2192 20.5609C9.03654 20.3512 8.86459 20.1341 8.70467 19.9094C8.54409 19.6841 8.39622 19.4525 8.2604 19.2141C8.12457 18.975 8.00146 18.7309 7.89106 18.4806C7.78066 18.2309 7.68364 17.9762 7.59933 17.7171C7.5157 17.4586 7.44611 17.1964 7.38991 16.9304C7.33371 16.665 7.29088 16.3978 7.26278 16.1287C7.23468 15.8589 7.22063 15.5892 7.22063 15.3188C7.22063 15.0478 7.23468 14.7781 7.26278 14.509C7.29088 14.2393 7.33371 13.972 7.38991 13.7067C7.44611 13.4413 7.5157 13.1791 7.59933 12.92C7.68364 12.6609 7.78066 12.4068 7.89106 12.1565C8.00146 11.9068 8.12457 11.6621 8.2604 11.4236C8.39622 11.1845 8.54409 10.953 8.70467 10.7277C8.86459 10.503 9.03654 10.2858 9.2192 10.0768C9.40253 9.86714 9.5959 9.66687 9.79997 9.47599C10.0034 9.28448 10.2168 9.10299 10.4403 8.93151C10.6631 8.7594 10.8946 8.59856 11.1341 8.44836C11.3737 8.29753 11.6212 8.15859 11.8755 8.03155C12.1297 7.90388 12.39 7.7881 12.6563 7.68483C12.9233 7.58094 13.1943 7.49019 13.4699 7.41134C13.7463 7.33311 14.0253 7.2674 14.3083 7.2142C14.5913 7.16163 14.8764 7.1222 15.1634 7.09529C15.4504 7.069 15.7382 7.05586 16.0265 7.05586C16.3149 7.05586 16.6026 7.069 16.8897 7.09529C17.1767 7.1222 17.4617 7.16163 17.7441 7.2142C18.0271 7.2674 18.3068 7.33311 18.5825 7.41134C18.8588 7.49019 19.1298 7.58094 19.3961 7.68483C19.663 7.7881 19.9233 7.90388 20.1776 8.03155C20.4318 8.15859 20.6787 8.29753 20.9189 8.44836C21.1585 8.59856 21.39 8.7594 21.6128 8.93151C21.8356 9.10299 22.049 9.28448 22.2531 9.47599C22.4572 9.66687 22.6505 9.86714 22.8339 10.0768C23.0165 10.2858 23.1878 10.503 23.3484 10.7277C23.5083 10.953 23.6568 11.1845 23.7927 11.4236C23.9285 11.6621 24.0516 11.9068 24.162 12.1565C24.2724 12.4068 24.3694 12.6609 24.4531 12.92C24.5367 13.1791 24.607 13.4413 24.6632 13.7067C24.7194 13.972 24.7615 14.2393 24.7903 14.509C24.8184 14.7781 24.8324 15.0478 24.8324 15.3188C24.8318 15.5892 24.8171 15.8589 24.7889 16.1281C24.7602 16.3972 24.7174 16.6644 24.6605 16.9298C24.6043 17.1951 24.534 17.4567 24.4497 17.7158C24.3661 17.9743 24.2684 18.229 24.158 18.4787C24.0476 18.7284 23.9245 18.9725 23.788 19.2109C23.6522 19.4494 23.5043 19.681 23.3437 19.9063C23.1838 20.1309 23.0118 20.3481 22.8292 20.5571C22.6459 20.7662 22.4525 20.9658 22.2491 21.1573C22.045 21.3488 21.8316 21.5303 21.6088 21.7018C21.386 21.8733 21.1551 22.0341 20.9156 22.1849C20.6754 22.3351 20.4285 22.4741 20.1749 22.6017C19.9206 22.7294 19.6604 22.8452 19.3941 22.9491C19.1278 23.0524 18.8568 23.1437 18.5811 23.2226C18.3055 23.3014 18.0258 23.3672 17.7434 23.4203C17.4604 23.4735 17.176 23.5136 16.889 23.5405C16.602 23.5674 16.3149 23.5812 16.0265 23.5818Z" fill="#E6AE00"/>
</svg>