<svg xmlns="http://www.w3.org/2000/svg" width="34" height="34" viewBox="0 0 34 34" fill="none">
  <mask id="mask0_614_4082" style="mask-type:luminance" maskUnits="userSpaceOnUse" x="2" y="2" width="5" height="5">
    <path d="M2.57812 2.94995H6.44598V6.75159H2.57812V2.94995Z" fill="white"/>
  </mask>
  <g mask="url(#mask0_614_4082)">
    <mask id="mask1_614_4082" style="mask-type:luminance" maskUnits="userSpaceOnUse" x="2" y="3" width="5" height="4">
      <path d="M3.42162 3.01051C3.20735 3.01143 3.00504 3.09419 2.8533 3.24409C2.85238 3.245 2.85146 3.24592 2.85146 3.24592C2.53696 3.55859 2.53972 4.06529 2.85606 4.3752L4.99598 6.45994C5.14863 6.60983 5.35279 6.69168 5.56797 6.69076C5.78316 6.68984 5.98455 6.60708 6.13629 6.45718C6.13721 6.45626 6.13813 6.45534 6.13905 6.45442C6.29078 6.30361 6.37447 6.10313 6.37355 5.88979C6.37263 5.67644 6.2871 5.47688 6.13353 5.32607L3.99361 3.24133C3.84096 3.09143 3.63773 3.00959 3.42162 3.01051Z" fill="white"/>
    </mask>
    <g mask="url(#mask1_614_4082)">
      <mask id="mask2_614_4082" style="mask-type:luminance" maskUnits="userSpaceOnUse" x="2" y="3" width="5" height="4">
        <path d="M3.42943 3.01099C3.21516 3.01191 3.01285 3.09468 2.86112 3.24457C2.8602 3.24549 2.85928 3.24641 2.85928 3.24641C2.54477 3.55908 2.54753 4.06578 2.86388 4.37569L5.00379 6.46043C5.15645 6.61032 5.3606 6.69217 5.57579 6.69125C5.79097 6.69033 5.99237 6.60756 6.1441 6.45767C6.14502 6.45675 6.14594 6.45583 6.14686 6.45491C6.29859 6.3041 6.38228 6.10362 6.38136 5.89027C6.38044 5.67693 6.29492 5.47737 6.14134 5.32656L4.00142 3.24181C3.84877 3.09192 3.64554 3.01007 3.42943 3.01099Z" fill="white"/>
      </mask>
      <g mask="url(#mask2_614_4082)">
        <path d="M2.53906 3.0105V6.69259H6.37657V3.0105H2.53906Z" fill="#E6AE00"/>
      </g>
    </g>
  </g>
  <mask id="mask3_614_4082" style="mask-type:luminance" maskUnits="userSpaceOnUse" x="7" y="0" width="3" height="6">
    <path d="M8.49393 0.777588H8.7174V0.784945H8.49393V0.777588ZM8.44703 0.784945H8.77165V0.793221H8.44703V0.784945ZM8.41577 0.793221H8.80292V0.800578H8.41577V0.793221ZM8.38542 0.800578H8.83419V0.807935H8.38542V0.800578ZM8.35415 0.807935H8.85718V0.816211H8.35415V0.807935ZM8.33116 0.816211H8.88017V0.823568H8.33116V0.816211ZM8.31553 0.823568H8.90316V0.831845H8.31553V0.823568ZM8.29254 0.831845H8.92615V0.839201H8.29254V0.831845ZM8.27691 0.839201H8.94178V0.847478H8.27691V0.839201ZM8.26127 0.847478H8.95741V0.854835H8.26127V0.847478ZM8.24564 0.854835H8.97305V0.863111H8.24564V0.854835ZM8.22265 0.863111H8.98868V0.870468H8.22265V0.863111ZM8.21438 0.870468H9.00431V0.878744H8.21438V0.870468ZM8.19966 0.878744H9.01903V0.886101H8.19966V0.878744ZM8.18403 0.886101H9.0273V0.893458H8.18403V0.886101ZM8.17575 0.893458H9.04294V0.901734H8.17575V0.893458ZM8.16104 0.901734H9.05765V0.909091H8.16104V0.901734ZM8.1454 0.909091H9.06593V0.917368H8.1454V0.909091ZM8.13713 0.917368H9.08156V0.924725H8.13713V0.917368ZM8.12977 0.924725H9.08892V0.933001H8.12977V0.924725ZM8.11414 0.933001H9.09627V0.940358H8.11414V0.933001ZM8.10678 0.940358H9.11283V0.947715H8.10678V0.940358ZM8.09851 0.947715H9.12018V0.955991H8.09851V0.947715ZM8.08379 0.955991H9.12754V0.963348H8.08379V0.955991ZM8.07551 0.963348H9.13582V0.971624H8.07551V0.963348ZM8.06816 0.971624H9.14317V0.978981H8.06816V0.971624ZM8.05988 0.978981H9.15881V0.987258H8.05988V0.978981ZM8.05252 0.987258H9.16616V0.994614H8.05252V0.987258ZM8.04425 0.994614H9.17444V1.00197H8.04425V0.994614ZM8.03689 1.00197H9.1818V1.01025H8.03689V1.00197ZM8.02953 1.01025H9.19007V1.0176H8.02953V1.01025ZM8.02126 1.0176H9.19743V1.02588H8.02126V1.0176ZM8.0139 1.02588H9.20479V1.03324H8.0139V1.02588ZM8.00563 1.03324H9.21306V1.04151H8.00563V1.03324ZM7.99827 1.04151H9.22042V1.04887H7.99827V1.04151ZM7.99091 1.04887H9.2287V1.05715H7.99091V1.04887ZM7.98263 1.05715H9.2287V1.0645H7.98263V1.05715ZM7.97528 1.0645H9.23605V1.07186H7.97528V1.0645ZM7.97528 1.07186H9.24433V1.08014H7.97528V1.07186ZM7.967 1.08014H9.25169V1.08749H7.967V1.08014ZM7.95964 1.08749H9.25904V1.09577H7.95964V1.08749ZM7.95229 1.09577H9.25904V1.10313H7.95229V1.09577ZM7.95229 1.10313H9.26732V1.1114H7.95229V1.10313ZM7.94401 1.1114H9.27468V1.11876H7.94401V1.1114ZM7.93574 1.11876H9.28295V1.12612H7.93574V1.11876ZM7.92838 1.12612H9.28295V1.13439H7.92838V1.12612ZM7.92838 1.13439H9.29031V1.14175H7.92838V1.13439ZM7.92102 1.14175H9.29031V1.15003H7.92102V1.14175ZM7.91366 1.15003H9.29767V1.15738H7.91366V1.15003ZM7.91366 1.15738H9.30594V1.16566H7.91366V1.15738ZM7.90539 1.16566H9.30594V1.17302H7.90539V1.16566ZM7.90539 1.17302H9.3133V1.18037H7.90539V1.17302ZM7.89711 1.18037H9.32158V1.18865H7.89711V1.18037ZM7.88975 1.18865H9.32158V1.19601H7.88975V1.18865ZM7.88975 1.19601H9.32893V1.20428H7.88975V1.19601ZM7.8824 1.20428H9.32893V1.21164H7.8824V1.20428ZM7.8824 1.21164H9.33629V1.21992H7.8824V1.21164ZM7.87412 1.21992H9.33629V1.22727H7.87412V1.21992ZM7.87412 1.22727H9.34457V1.23463H7.87412V1.22727ZM7.86676 1.23463H9.34457V1.24291H7.86676V1.23463ZM7.86676 1.24291H9.35192V1.25118H7.86676V1.24291ZM7.85849 1.25118H9.35192V1.25854H7.85849V1.25118ZM7.85849 1.25854H9.3602V1.27417H7.85849V1.25854ZM7.85113 1.27417H9.3602V1.28153H7.85113V1.27417ZM7.85113 1.28153H9.36756V1.29716H7.85113V1.28153ZM7.84377 1.29716H9.36756V1.30544H7.84377V1.29716ZM7.84377 1.30544H9.37583V1.3128H7.84377V1.30544ZM7.8355 1.3128H9.37583V1.32015H7.8355V1.3128ZM7.8355 1.32015H9.38319V1.33579H7.8355V1.32015ZM7.82814 1.33579H9.38319V1.35142H7.82814V1.33579ZM7.82814 1.35142H9.39055V1.36705H7.82814V1.35142ZM7.81987 1.36705H9.39055V1.37441H7.81987V1.36705ZM7.81987 1.37441H9.39882V1.39832H7.81987V1.37441ZM7.81251 1.39832H9.39882V1.40568H7.81251V1.39832ZM7.81251 1.40568H9.40618V1.43694H7.81251V1.40568ZM7.80515 1.43694H9.40618V1.45258H7.80515V1.43694ZM7.80515 1.45258H9.41446V1.48384H7.80515V1.45258ZM7.79688 1.48384H9.41446V1.52247H7.79688V1.48384ZM7.79688 1.52247H9.42181V2.28298H7.79688V1.52247ZM7.80515 2.28298H9.42181V2.34459H7.80515V2.28298ZM7.80515 2.34459H9.42917V3.32305H7.80515V2.34459ZM7.81251 3.32305H9.42917V3.38466H7.81251V3.32305ZM7.81251 3.38466H9.43745V4.32358H7.81251V3.38466ZM7.81987 4.32358H9.43745V4.38611H7.81987V4.32358ZM7.81987 4.38611H9.42917V4.4091H7.81987V4.38611ZM7.82814 4.4091H9.42917V4.44773H7.82814V4.4091ZM7.82814 4.44773H9.42181V4.45508H7.82814V4.44773ZM7.8355 4.45508H9.42181V4.47899H7.8355V4.45508ZM7.8355 4.47899H9.41446V4.48635H7.8355V4.47899ZM7.84377 4.48635H9.41446V4.50198H7.84377V4.48635ZM7.84377 4.50198H9.40618V4.51762H7.84377V4.50198ZM7.85113 4.51762H9.40618V4.52589H7.85113V4.51762ZM7.85113 4.52589H9.39882V4.54061H7.85113V4.52589ZM7.85849 4.54061H9.39882V4.54888H7.85849V4.54061ZM7.85849 4.54888H9.39055V4.56452H7.85849V4.54888ZM7.86676 4.56452H9.39055V4.57187H7.86676V4.56452ZM7.86676 4.57187H9.38319V4.58751H7.86676V4.57187ZM7.87412 4.58751H9.38319V4.60314H7.87412V4.58751ZM7.8824 4.60314H9.37583V4.61877H7.8824V4.60314ZM7.88975 4.61877H9.36756V4.63441H7.88975V4.61877ZM7.89711 4.63441H9.3602V4.64176H7.89711V4.63441ZM7.89711 4.64176H9.35192V4.64912H7.89711V4.64176ZM7.90539 4.64912H9.35192V4.6574H7.90539V4.64912ZM7.90539 4.6574H9.34457V4.67303H7.90539V4.6574ZM7.91366 4.67303H9.33629V4.68039H7.91366V4.67303ZM7.92102 4.68039H9.33629V4.68866H7.92102V4.68039ZM7.92102 4.68866H9.32893V4.69602H7.92102V4.68866ZM7.92838 4.69602H9.32893V4.7043H7.92838V4.69602ZM7.92838 4.7043H9.32158V4.71165H7.92838V4.7043ZM7.93574 4.71165H9.32158V4.71993H7.93574V4.71165ZM7.94401 4.71993H9.3133V4.72729H7.94401V4.71993ZM7.94401 4.72729H9.30594V4.73464H7.94401V4.72729ZM7.95229 4.73464H9.30594V4.74292H7.95229V4.73464ZM7.95964 4.74292H9.29767V4.75028H7.95964V4.74292ZM7.95964 4.75028H9.29031V4.75855H7.95964V4.75028ZM7.967 4.75855H9.29031V4.76591H7.967V4.75855ZM7.97528 4.76591H9.28295V4.77419H7.97528V4.76591ZM7.98263 4.77419H9.27468V4.78154H7.98263V4.77419ZM7.98263 4.78154H9.26732V4.7889H7.98263V4.78154ZM7.99091 4.7889H9.26732V4.79718H7.99091V4.7889ZM7.99827 4.79718H9.25904V4.80453H7.99827V4.79718ZM8.00563 4.80453H9.25169V4.81281H8.00563V4.80453ZM8.0139 4.81281H9.24433V4.82017H8.0139V4.81281ZM8.02126 4.82017H9.23605V4.8358H8.02126V4.82017ZM8.02953 4.8358H9.2287V4.84316H8.02953V4.8358ZM8.03689 4.84316H9.22042V4.85143H8.03689V4.84316ZM8.04425 4.85143H9.21306V4.85971H8.04425V4.85143ZM8.05252 4.85971H9.20479V4.86707H8.05252V4.85971ZM8.05988 4.86707H9.19743V4.87442H8.05988V4.86707ZM8.06816 4.87442H9.19007V4.8827H8.06816V4.87442ZM8.08379 4.8827H9.1818V4.89006H8.08379V4.8827ZM8.09115 4.89006H9.16616V4.89833H8.09115V4.89006ZM8.09851 4.89833H9.15881V4.90569H8.09851V4.89833ZM8.10678 4.90569H9.15145V4.91397H8.10678V4.90569ZM8.11414 4.91397H9.13582V4.92132H8.11414V4.91397ZM8.12241 4.92132H9.12754V4.92868H8.12241V4.92132ZM8.13713 4.92868H9.12018V4.93696H8.13713V4.92868ZM8.1454 4.93696H9.11283V4.94431H8.1454V4.93696ZM8.16104 4.94431H9.09627V4.95259H8.16104V4.94431ZM8.16839 4.95259H9.08892V4.95995H8.16839V4.95259ZM8.17575 4.95995H9.0742V4.96822H8.17575V4.95995ZM8.19138 4.96822H9.05765V4.97558H8.19138V4.96822ZM8.20702 4.97558H9.05029V4.98294H8.20702V4.97558ZM8.21438 4.98294H9.03466V4.99121H8.21438V4.98294ZM8.23001 4.99121H9.01903V4.99857H8.23001V4.99121ZM8.24564 4.99857H9.00431V5.00685H8.24564V4.99857ZM8.26127 5.00685H8.98868V5.0142H8.26127V5.00685ZM8.27691 5.0142H8.97305V5.02248H8.27691V5.0142ZM8.29254 5.02248H8.95741V5.02984H8.29254V5.02248ZM8.30726 5.02984H8.94178V5.03719H8.30726V5.02984ZM8.33116 5.03719H8.91879V5.04547H8.33116V5.03719ZM8.35415 5.04547H8.8958V5.05375H8.35415V5.04547ZM8.37714 5.05375H8.87281V5.0611H8.37714V5.05375ZM8.40014 5.0611H8.84154V5.06846H8.40014V5.0611ZM8.4314 5.06846H8.81855V5.07674H8.4314V5.06846ZM8.46267 5.07674H8.79556V5.08409H8.46267V5.07674ZM8.51601 5.08409H8.73303V5.09237H8.51601V5.08409ZM8.59417 5.09237H8.67877V5.09973H8.59417V5.09237Z" fill="white"/>
  </mask>
  <g mask="url(#mask3_614_4082)">
    <mask id="mask4_614_4082" style="mask-type:luminance" maskUnits="userSpaceOnUse" x="7" y="0" width="3" height="6">
      <path d="M9.4448 1.57268C9.44296 1.13219 9.07879 0.776305 8.63279 0.778144C8.1877 0.779983 7.82629 1.13955 7.82813 1.58004L7.84836 4.29839C7.8502 4.73796 8.21437 5.09476 8.65945 5.09293C8.88108 5.09201 9.08247 5.0028 9.22777 4.85935C9.37491 4.71405 9.46595 4.51266 9.46503 4.29103L9.4448 1.57268Z" fill="white"/>
    </mask>
    <g mask="url(#mask4_614_4082)">
      <path d="M7.8125 0.778137V5.09476H9.45215V0.778137H7.8125Z" fill="#E6AE00"/>
    </g>
  </g>
  <mask id="mask5_614_4082" style="mask-type:luminance" maskUnits="userSpaceOnUse" x="0" y="8" width="5" height="2">
    <path d="M1.0399 8.15747H1.88317V8.16483H1.0399V8.15747ZM0.992998 8.16483H2.95083V8.1731H0.992998V8.16483ZM0.954375 8.1731H3.92561V8.18046H0.954375V8.1731ZM0.924028 8.18046H4.00286V8.18874H0.924028V8.18046ZM0.892762 8.18874H4.05712V8.19609H0.892762V8.18874ZM0.869772 8.19609H4.08838V8.20345H0.869772V8.19609ZM0.845862 8.20345H4.11873V8.21173H0.845862V8.20345ZM0.822872 8.21173H4.14264V8.21908H0.822872V8.21173ZM0.807239 8.21908H4.16563V8.22736H0.807239V8.21908ZM0.792525 8.22736H4.18862V8.23472H0.792525V8.22736ZM0.776892 8.23472H4.21161V8.24299H0.776892V8.23472ZM0.761258 8.24299H4.22724V8.25035H0.761258V8.24299ZM0.745625 8.25035H4.24288V8.25771H0.745625V8.25035ZM0.729992 8.25771H4.25851V8.26598H0.729992V8.25771ZM0.714359 8.26598H4.27414V8.27426H0.714359V8.26598ZM0.707002 8.27426H4.28886V8.28162H0.707002V8.27426ZM0.691368 8.28162H4.29713V8.28897H0.691368V8.28162ZM0.675735 8.28897H4.31277V8.29725H0.675735V8.28897ZM0.668378 8.29725H4.32748V8.30461H0.668378V8.29725ZM0.661022 8.30461H4.33576V8.31288H0.661022V8.30461ZM0.645388 8.31288H4.35139V8.32024H0.645388V8.31288ZM0.637112 8.32024H4.35875V8.32852H0.637112V8.32024ZM0.629755 8.32852H4.37438V8.33587H0.629755V8.32852ZM0.614122 8.33587H4.38174V8.34323H0.614122V8.33587ZM0.606765 8.34323H4.39001V8.35151H0.606765V8.34323ZM0.598488 8.35151H4.40565V8.35886H0.598488V8.35151ZM0.591132 8.35886H4.413V8.36714H0.591132V8.35886ZM0.582855 8.36714H4.42036V8.3745H0.582855V8.36714ZM0.575498 8.3745H4.42864V8.38277H0.575498V8.3745ZM0.568142 8.38277H4.43599V8.39013H0.568142V8.38277ZM0.559865 8.39013H4.44427V8.39749H0.559865V8.39013ZM0.552508 8.39749H4.45898V8.40576H0.552508V8.39749ZM0.544232 8.40576H4.46726V8.41312H0.544232V8.40576ZM0.536875 8.41312H4.47554V8.4214H0.536875V8.41312ZM0.529518 8.4214H4.48289V8.42875H0.529518V8.4214ZM0.521242 8.42875H4.48289V8.43703H0.521242V8.42875ZM0.513885 8.43703H4.49025V8.44439H0.513885V8.43703ZM0.505609 8.44439H4.49761V8.45174H0.505609V8.44439ZM0.498252 8.45174H4.50588V8.46002H0.498252V8.45174ZM0.498252 8.46002H4.51416V8.46738H0.498252V8.46002ZM0.490895 8.46738H4.52152V8.47565H0.490895V8.46738ZM0.482618 8.47565H4.52887V8.48301H0.482618V8.47565ZM0.474342 8.48301H4.52887V8.49129H0.474342V8.48301ZM0.474342 8.49129H4.53715V8.49864H0.474342V8.49129ZM0.466985 8.49864H4.54451V8.50692H0.466985V8.49864ZM0.459628 8.50692H4.55278V8.51428H0.459628V8.50692ZM0.459628 8.51428H4.56014V8.52163H0.459628V8.51428ZM0.452271 8.52163H4.56014V8.52991H0.452271V8.52163ZM0.443995 8.52991H4.5675V8.53727H0.443995V8.52991ZM0.443995 8.53727H4.57577V8.54554H0.443995V8.53727ZM0.435719 8.54554H4.57577V8.5529H0.435719V8.54554ZM0.428362 8.5529H4.58313V8.56853H0.428362V8.5529ZM0.421005 8.56853H4.59141V8.57589H0.421005V8.56853ZM0.421005 8.57589H4.59876V8.58417H0.421005V8.57589ZM0.412729 8.58417H4.59876V8.59152H0.412729V8.58417ZM0.412729 8.59152H4.60612V8.5998H0.412729V8.59152ZM0.405372 8.5998H4.60612V8.60716H0.405372V8.5998ZM0.405372 8.60716H4.6144V8.61543H0.405372V8.60716ZM0.397095 8.61543H4.6144V8.62279H0.397095V8.61543ZM0.397095 8.62279H4.62175V8.63015H0.397095V8.62279ZM0.389738 8.63015H4.62175V8.63842H0.389738V8.63015ZM0.389738 8.63842H4.63003V8.64578H0.389738V8.63842ZM0.382382 8.64578H4.63003V8.65406H0.382382V8.64578ZM0.382382 8.65406H4.63739V8.66969H0.382382V8.65406ZM0.374105 8.66969H4.64566V8.69268H0.374105V8.66969ZM0.366748 8.69268H4.65302V8.70831H0.366748V8.69268ZM0.358472 8.70831H4.65302V8.71567H0.358472V8.70831ZM0.358472 8.71567H4.66038V8.7313H0.358472V8.71567ZM0.358472 8.7313H4.66865V8.73958H0.358472V8.7313ZM0.351115 8.73958H4.66865V8.76257H0.351115V8.73958ZM0.351115 8.76257H4.67601V8.76993H0.351115V8.76257ZM0.343758 8.76993H4.67601V8.79384H0.343758V8.76993ZM0.343758 8.79384H4.68429V8.80119H0.343758V8.79384ZM0.335482 8.80119H4.68429V8.82418H0.335482V8.80119ZM0.335482 8.82418H4.69164V8.84809H0.335482V8.82418ZM0.328125 8.84809H4.69164V8.87844H0.328125V8.84809ZM0.328125 8.87844H4.699V9.06512H0.328125V8.87844ZM0.335482 9.06512H4.699V9.07248H0.335482V9.06512ZM0.335482 9.07248H4.69164V9.11938H0.335482V9.07248ZM0.343758 9.11938H4.69164V9.12765H0.343758V9.11938ZM0.343758 9.12765H4.68429V9.15064H0.343758V9.12765ZM0.351115 9.15064H4.68429V9.158H0.351115V9.15064ZM0.351115 9.158H4.67601V9.18191H0.351115V9.158ZM0.358472 9.18191H4.66865V9.2049H0.358472V9.18191ZM0.366748 9.2049H4.66865V9.21226H0.366748V9.2049ZM0.366748 9.21226H4.66038V9.22789H0.366748V9.21226ZM0.374105 9.22789H4.66038V9.23617H0.374105V9.22789ZM0.374105 9.23617H4.65302V9.24352H0.374105V9.23617ZM0.382382 9.24352H4.65302V9.25916H0.382382V9.24352ZM0.382382 9.25916H4.64566V9.26651H0.382382V9.25916ZM0.389738 9.26651H4.64566V9.28307H0.389738V9.26651ZM0.397095 9.28307H4.63739V9.29778H0.397095V9.28307ZM0.405372 9.29778H4.63003V9.31341H0.405372V9.29778ZM0.412729 9.31341H4.62175V9.32905H0.412729V9.31341ZM0.421005 9.32905H4.6144V9.34468H0.421005V9.32905ZM0.428362 9.34468H4.60612V9.36031H0.428362V9.34468ZM0.435719 9.36031H4.59876V9.36767H0.435719V9.36031ZM0.443995 9.36767H4.59141V9.3833H0.443995V9.36767ZM0.452271 9.3833H4.58313V9.39894H0.452271V9.3833ZM0.459628 9.39894H4.57577V9.40629H0.459628V9.39894ZM0.466985 9.40629H4.57577V9.41457H0.466985V9.40629ZM0.466985 9.41457H4.5675V9.42193H0.466985V9.41457ZM0.474342 9.42193H4.5675V9.4302H0.474342V9.42193ZM0.482618 9.4302H4.56014V9.43756H0.482618V9.4302ZM0.490895 9.43756H4.55278V9.44584H0.490895V9.43756ZM0.490895 9.44584H4.54451V9.45319H0.490895V9.44584ZM0.498252 9.45319H4.53715V9.46055H0.498252V9.45319ZM0.505609 9.46055H4.53715V9.46883H0.505609V9.46055ZM0.513885 9.46883H4.52887V9.47618H0.513885V9.46883ZM0.521242 9.47618H4.52152V9.48446H0.521242V9.47618ZM0.529518 9.48446H4.51416V9.49182H0.529518V9.48446ZM0.536875 9.49182H4.51416V9.50009H0.536875V9.49182ZM0.544232 9.50009H4.50588V9.50745H0.544232V9.50009ZM0.544232 9.50745H4.49761V9.51573H0.544232V9.50745ZM0.552508 9.51573H4.49025V9.52308H0.552508V9.51573ZM0.559865 9.52308H4.48289V9.53044H0.559865V9.52308ZM0.568142 9.53044H4.47554V9.53872H0.568142V9.53044ZM0.582855 9.53872H4.46726V9.54607H0.582855V9.53872ZM0.591132 9.54607H4.45898V9.55435H0.591132V9.54607ZM0.598488 9.55435H4.45163V9.56171H0.598488V9.55435ZM0.606765 9.56171H4.44427V9.56998H0.606765V9.56171ZM0.614122 9.56998H4.43599V9.57734H0.614122V9.56998ZM0.622398 9.57734H4.42864V9.58562H0.622398V9.57734ZM0.637112 9.58562H4.413V9.59297H0.637112V9.58562ZM0.645388 9.59297H4.40565V9.60033H0.645388V9.59297ZM0.652745 9.60033H4.39737V9.60861H0.652745V9.60033ZM0.668378 9.60861H4.38174V9.61596H0.668378V9.60861ZM0.675735 9.61596H4.37438V9.62424H0.675735V9.61596ZM0.691368 9.62424H4.36702V9.6316H0.691368V9.62424ZM0.699645 9.6316H4.35875V9.63987H0.699645V9.6316ZM0.714359 9.63987H4.34311V9.64723H0.714359V9.63987ZM0.729992 9.64723H4.32748V9.65459H0.729992V9.64723ZM0.738268 9.65459H4.31277V9.66286H0.738268V9.65459ZM0.753902 9.66286H4.30449V9.67022H0.753902V9.66286ZM0.768615 9.67022H4.28886V9.6785H0.768615V9.67022ZM0.784248 9.6785H4.27414V9.68585H0.784248V9.6785ZM0.799882 9.68585H4.25851V9.69413H0.799882V9.68585ZM0.822872 9.69413H4.24288V9.70149H0.822872V9.69413ZM0.838505 9.70149H4.22724V9.70976H0.838505V9.70149ZM0.861495 9.70976H4.21161V9.71712H0.861495V9.70976ZM0.884485 9.71712H4.19598V9.72448H0.884485V9.71712ZM0.908395 9.72448H4.17299V9.73275H0.908395V9.72448ZM0.938742 9.73275H4.14264V9.74011H0.938742V9.73275ZM0.977365 9.74011H4.11873V9.74838H0.977365V9.74011ZM1.02426 9.74838H4.09574V9.75574H1.02426V9.74838ZM1.14841 9.75574H4.06539V9.76402H1.14841V9.75574ZM2.21607 9.76402H4.02585V9.77138H2.21607V9.76402ZM3.28373 9.77138H3.96424V9.77873H3.28373V9.77138Z" fill="white"/>
  </mask>
  <g mask="url(#mask5_614_4082)">
    <mask id="mask6_614_4082" style="mask-type:luminance" maskUnits="userSpaceOnUse" x="0" y="8" width="5" height="2">
      <path d="M1.13141 8.1582C0.686322 8.15729 0.322159 8.51317 0.320319 8.95366C0.31848 9.39323 0.679885 9.7528 1.12405 9.75464L3.87919 9.77487C4.10265 9.77579 4.30588 9.68567 4.45302 9.54037C4.59924 9.39691 4.68936 9.1992 4.69028 8.98033C4.69212 8.53984 4.33071 8.18028 3.88654 8.17844L1.13141 8.1582Z" fill="white"/>
    </mask>
    <g mask="url(#mask6_614_4082)">
      <path d="M0.320312 8.15765V9.77616H4.69119V8.15765H0.320312Z" fill="#E6AE00"/>
    </g>
  </g>
  <mask id="mask7_614_4082" style="mask-type:luminance" maskUnits="userSpaceOnUse" x="11" y="2" width="4" height="4">
    <path d="M11.25 2.09644H15.0001V5.899H11.25V2.09644Z" fill="white"/>
  </mask>
  <g mask="url(#mask7_614_4082)">
    <mask id="mask8_614_4082" style="mask-type:luminance" maskUnits="userSpaceOnUse" x="11" y="2" width="4" height="4">
      <path d="M14.1661 2.15308C13.95 2.15308 13.7504 2.23861 13.595 2.3885L11.4845 4.50175C11.3319 4.65257 11.2491 4.85396 11.25 5.06731C11.2509 5.27974 11.3355 5.48021 11.4891 5.63011C11.8045 5.93909 12.3158 5.93817 12.6303 5.62735C12.6303 5.62735 12.6313 5.62643 12.6322 5.62551L14.7436 3.51226C15.0572 3.19959 15.0553 2.69381 14.739 2.3839C14.5854 2.23401 14.3822 2.15216 14.1661 2.15308Z" fill="white"/>
    </mask>
    <g mask="url(#mask8_614_4082)">
      <mask id="mask9_614_4082" style="mask-type:luminance" maskUnits="userSpaceOnUse" x="11" y="2" width="4" height="4">
        <path d="M14.1661 2.1518C13.95 2.1518 13.7504 2.23733 13.595 2.38722L11.4845 4.50047C11.3319 4.65128 11.2491 4.85268 11.25 5.06603C11.2509 5.27845 11.3355 5.47893 11.4891 5.62882C11.8045 5.93781 12.3158 5.93689 12.6303 5.62607C12.6303 5.62607 12.6313 5.62515 12.6322 5.62423L14.7436 3.51098C15.0572 3.19831 15.0553 2.69253 14.739 2.38262C14.5854 2.23273 14.3822 2.15088 14.1661 2.1518Z" fill="white"/>
      </mask>
      <g mask="url(#mask9_614_4082)">
        <path d="M11.25 2.15076V5.93769H15.0581V2.15076H11.25Z" fill="#E6AE00"/>
      </g>
    </g>
  </g>
  <mask id="mask10_614_4082" style="mask-type:luminance" maskUnits="userSpaceOnUse" x="1" y="11" width="5" height="5">
    <path d="M1.79688 11.5081H5.58196V15.2748H1.79688V11.5081Z" fill="white"/>
  </mask>
  <g mask="url(#mask10_614_4082)">
    <mask id="mask11_614_4082" style="mask-type:luminance" maskUnits="userSpaceOnUse" x="1" y="11" width="5" height="5">
      <path d="M4.20713 11.7494C4.20621 11.7494 4.20529 11.7503 4.20437 11.7512L2.09388 13.8645C1.94123 14.0153 1.85846 14.2167 1.85938 14.4291C1.8603 14.6425 1.94491 14.8429 2.09756 14.9928C2.25113 15.1427 2.45437 15.2246 2.67047 15.2246C2.88566 15.2237 3.08705 15.14 3.23879 14.9901C3.23971 14.9901 3.24063 14.9892 3.24155 14.9882L5.35204 12.875C5.50469 12.7242 5.58746 12.5228 5.58654 12.3104C5.58562 12.097 5.50101 11.8965 5.34744 11.7466C5.19479 11.5967 4.99155 11.514 4.77545 11.5149C4.56026 11.5158 4.35887 11.5995 4.20713 11.7494Z" fill="white"/>
    </mask>
    <g mask="url(#mask11_614_4082)">
      <mask id="mask12_614_4082" style="mask-type:luminance" maskUnits="userSpaceOnUse" x="1" y="11" width="5" height="5">
        <path d="M4.21494 11.7484C4.21402 11.7484 4.2131 11.7493 4.21218 11.7503L2.10169 13.8635C1.94904 14.0143 1.86628 14.2157 1.8672 14.4281C1.86811 14.6415 1.95272 14.842 2.10537 14.9919C2.25895 15.1418 2.46218 15.2236 2.67829 15.2236C2.89347 15.2227 3.09487 15.139 3.2466 14.9891C3.24752 14.9891 3.24844 14.9882 3.24936 14.9873L5.35985 12.874C5.5125 12.7232 5.59527 12.5218 5.59435 12.3094C5.59343 12.096 5.50883 11.8956 5.35525 11.7457C5.2026 11.5958 4.99937 11.513 4.78326 11.5139C4.56807 11.5148 4.36668 11.5985 4.21494 11.7484Z" fill="white"/>
      </mask>
      <g mask="url(#mask12_614_4082)">
        <path d="M1.86719 11.5134V15.224H5.59618V11.5134H1.86719Z" fill="#E6AE00"/>
      </g>
    </g>
  </g>
  <mask id="mask13_614_4082" style="mask-type:luminance" maskUnits="userSpaceOnUse" x="6" y="6" width="28" height="28">
    <path d="M6.14062 6.44214H33.6708V33.6183H6.14062V6.44214Z" fill="white"/>
  </mask>
  <g mask="url(#mask13_614_4082)">
    <path d="M30.6721 15.526C30.7273 15.7449 30.7218 15.9711 30.6639 16.1808C30.6059 16.3904 30.4956 16.5854 30.3374 16.7408C30.2629 16.8153 30.1783 16.8806 30.0854 16.9367L26.3426 19.3709L25.5426 19.8518C25.2851 20.0063 25.2419 20.3585 25.4552 20.5691H25.4561C25.9389 21.0464 26.407 21.5384 26.8585 22.0451L32.0423 27.8505C32.2272 28.0335 32.2281 28.3296 32.0423 28.5117L28.4945 32.0154C28.3097 32.1975 28.0099 32.1975 27.825 32.0154L21.9451 26.8969C21.432 26.4509 20.9335 25.9893 20.4498 25.5111C20.2365 25.3005 19.8797 25.3428 19.7233 25.5975L19.2369 26.3874L16.7705 30.0824C16.7144 30.1744 16.6482 30.258 16.5737 30.3316C16.2573 30.6434 15.7865 30.7694 15.3433 30.6608C14.8991 30.5532 14.5533 30.2286 14.4172 29.7946L7.78688 9.6718C7.64342 9.21568 7.76849 8.72185 8.10966 8.38436C8.35795 8.13974 8.68993 8.00824 9.02834 8.00824C9.15709 8.00824 9.28583 8.02663 9.41366 8.06525L29.7939 14.6119C30.2335 14.7462 30.5618 15.0883 30.6721 15.526ZM30.2574 13.1286L9.87806 6.58193C8.8573 6.27019 7.75377 6.54055 6.99786 7.28635C6.24287 8.03215 5.96974 9.12096 6.28517 10.1298L12.9146 30.2525C13.2153 31.2117 13.9813 31.928 14.9653 32.169C15.1934 32.2242 15.426 32.2518 15.6568 32.2518C16.4109 32.2518 17.1475 31.9612 17.6864 31.4296C17.8483 31.2687 17.9926 31.0875 18.1149 30.8898L20.3809 27.5176L26.7749 33.0527C27.5381 33.8059 28.7814 33.8068 29.5447 33.0527L33.0935 29.549C33.8567 28.795 33.8567 27.5682 33.0935 26.8141L27.4866 20.5011L30.902 18.2627C31.1025 18.1432 31.2864 18.0007 31.4492 17.8388C32.1527 17.1454 32.4396 16.1155 32.1968 15.1526C31.9531 14.1815 31.2285 13.4247 30.2574 13.1286Z" fill="#E6AE00"/>
  </g>
  <path d="M30.6703 15.5263C30.7255 15.7452 30.72 15.9714 30.6621 16.1811C30.6041 16.3907 30.4938 16.5857 30.3356 16.7411C30.2611 16.8156 30.1765 16.8809 30.0836 16.937L26.3408 19.3712L25.5408 19.8521C25.2833 20.0066 25.2401 20.3588 25.4543 20.5694L26.179 21.2858L32.0406 27.8508C32.2254 28.0338 32.2263 28.3299 32.0406 28.512L28.4927 32.0157C28.3079 32.1978 28.0081 32.1978 27.8232 32.0157L21.1736 26.2277L20.448 25.5114C20.2347 25.3008 19.8788 25.3431 19.7215 25.5978L19.2351 26.3877L16.7687 30.0827C16.7126 30.1747 16.6464 30.2584 16.5719 30.3319C16.2556 30.6437 15.7847 30.7697 15.3415 30.6611C14.8973 30.5535 14.5515 30.2289 14.4154 29.7949L7.78508 9.67211C7.64163 9.21598 7.76669 8.72216 8.10787 8.38466C8.35616 8.14005 8.68814 8.00854 9.02655 8.00854C9.15529 8.00854 9.28404 8.02694 9.41186 8.06556L29.7921 14.6122C30.2317 14.7465 30.56 15.0886 30.6703 15.5263Z" fill="white"/>
</svg>