<svg xmlns="http://www.w3.org/2000/svg" width="40" height="41" viewBox="0 0 40 41" fill="none">
  <path d="M23.3876 16.4632C23.1793 16.2544 22.8667 16.2022 22.6585 16.411L18.4918 19.8537C18.2836 19.7493 18.0754 19.6971 17.815 19.6971C16.9815 19.6971 16.3047 20.3751 16.3047 21.2097C16.3047 22.0443 16.9815 22.7223 17.815 22.7223C18.6484 22.7223 19.3253 22.0443 19.3253 21.2097C19.3253 21.0009 19.2731 20.7921 19.2209 20.5839L23.3354 17.1934C23.5436 17.0368 23.5958 16.6714 23.3876 16.4632ZM17.815 21.7311C17.5546 21.7311 17.3464 21.5229 17.3464 21.2619C17.3464 21.0009 17.5546 20.7921 17.815 20.7921C18.0754 20.7921 18.2836 21.0009 18.2836 21.2619C18.2836 21.4707 18.0754 21.7311 17.815 21.7311Z" fill="#E6AE00"/>
  <path d="M11.6534 20.0087C11.4452 19.3307 10.8722 18.8093 10.1431 18.8093C9.30967 18.8093 8.63281 19.4873 8.63281 20.3219C8.63281 21.1565 9.30967 21.8345 10.1431 21.8345C10.7678 21.8345 11.237 21.4697 11.4974 20.9999L14.6218 21.5219H14.7262C14.9866 21.5219 15.1949 21.3653 15.2471 21.1043C15.2993 20.8433 15.0905 20.5307 14.8306 20.4785L11.6534 20.0087ZM10.1431 20.8433C9.8827 20.8433 9.67448 20.6351 9.67448 20.3741C9.67448 20.1131 9.8827 19.9049 10.1431 19.9049C10.4035 19.9049 10.6118 20.1131 10.6118 20.3741C10.6118 20.6351 10.4035 20.8433 10.1431 20.8433Z" fill="#E6AE00"/>
  <mask id="mask0_614_4160" style="mask-type:luminance" maskUnits="userSpaceOnUse" x="3" y="6" width="34" height="28">
    <path d="M3.32812 6.29175H36.6615V33.4159H3.32812V6.29175Z" fill="white"/>
  </mask>
  <g mask="url(#mask0_614_4160)">
    <path d="M5.93172 30.2858H14.7859V32.3726H13.7442C13.4316 32.3726 13.2234 32.5814 13.2234 32.894C13.2234 33.2071 13.4316 33.4159 13.7442 33.4159H26.2437C26.5563 33.4159 26.7645 33.2071 26.7645 32.894C26.7645 32.5814 26.5563 32.3726 26.2437 32.3726H25.202V30.2858H34.0556C35.6181 30.2858 36.6598 29.399 36.6598 28.0431V8.89989C36.6598 7.49114 35.5143 6.29175 34.0556 6.29175H5.93172C4.52581 6.29175 3.32812 7.43894 3.32812 8.89989V28.0431C3.32812 29.3469 4.36979 30.2858 5.93172 30.2858ZM24.1603 32.3726H15.8276V30.2858H24.1603V32.3726ZM4.36979 8.89989C4.36979 8.06474 5.04665 7.33455 5.93172 7.33455H34.0556C34.889 7.33455 35.6181 8.01311 35.6181 8.89989V28.0431C35.6181 28.9298 34.8368 29.243 34.0556 29.243H5.93172C5.20267 29.243 4.36979 28.9298 4.36979 28.0431V8.89989Z" fill="#E6AE00"/>
  </g>
  <path d="M5.92448 26.1119H34.0483C34.6214 26.1119 35.09 25.5905 35.09 25.0163V8.89884C35.09 8.32467 34.6214 7.85547 34.0483 7.85547H33.0067C32.6946 7.85547 32.4858 8.06369 32.4858 8.37687C32.4858 8.69005 32.6946 8.89884 33.0067 8.89884H33.0589L26.3924 13.4888C26.132 13.28 25.7678 13.1239 25.403 13.1239C24.5695 13.1239 23.8927 13.8019 23.8927 14.6365C23.8927 15.4711 24.5695 16.1491 25.403 16.1491C26.2364 16.1491 26.9133 15.4711 26.9133 14.6365V14.3755L34.0483 9.47244V25.0685H6.6019L8.73687 22.9301C8.94565 22.7213 8.94565 22.4087 8.73687 22.1999C8.52865 21.9912 8.21603 21.9912 8.00781 22.1999L5.92448 24.2861V8.89884H29.8822C30.1943 8.89884 30.4031 8.69005 30.4031 8.37687C30.4031 8.06369 30.1943 7.85547 29.8822 7.85547H5.92448C5.35202 7.85547 4.88281 8.32467 4.88281 8.89884V25.0163C4.88281 25.5905 5.35202 26.1119 5.92448 26.1119ZM25.403 15.1579C25.1425 15.1579 24.9343 14.9491 24.9343 14.6887C24.9343 14.4277 25.1425 14.2189 25.403 14.2189C25.6634 14.2189 25.8716 14.4277 25.8716 14.6887C25.9238 14.8969 25.6634 15.1579 25.403 15.1579Z" fill="#E6AE00"/>
  <path d="M19.5701 27.2601C19.4657 27.3645 19.4141 27.5211 19.4141 27.6249C19.4141 27.7815 19.4657 27.8859 19.5701 27.9903C19.6745 28.0947 19.7783 28.1469 19.9349 28.1469C20.0909 28.1469 20.1947 28.0947 20.2991 27.9903C20.4035 27.8859 20.4552 27.7815 20.4552 27.6249C20.4552 27.4689 20.4035 27.3645 20.2991 27.2601C20.1431 27.0513 19.7783 27.0513 19.5701 27.2601Z" fill="#E6AE00"/>
</svg>