<svg xmlns="http://www.w3.org/2000/svg" width="30" height="31" viewBox="0 0 30 31" fill="none">
  <path d="M10.7812 26.0906H6.09375C5.59662 26.0901 5.12 25.8924 4.76847 25.5409C4.41695 25.1893 4.21925 24.7127 4.21875 24.2156V11.0906C4.21925 10.5934 4.41695 10.1168 4.76847 9.7653C5.12 9.41378 5.59662 9.21607 6.09375 9.21558H10.7812C11.2784 9.21607 11.755 9.41378 12.1065 9.7653C12.458 10.1168 12.6558 10.5934 12.6562 11.0906V24.2156C12.6558 24.7127 12.458 25.1893 12.1065 25.5409C11.755 25.8924 11.2784 26.0901 10.7812 26.0906ZM6.09375 11.0906V24.2156H10.7822L10.7812 11.0906H6.09375ZM23.9062 22.3406H19.2188C18.7216 22.3401 18.245 22.1424 17.8935 21.7909C17.5419 21.4393 17.3442 20.9627 17.3438 20.4656V7.34058C17.3442 6.84345 17.5419 6.36682 17.8935 6.0153C18.245 5.66378 18.7216 5.46607 19.2188 5.46558H23.9062C24.4034 5.46607 24.88 5.66378 25.2315 6.0153C25.5831 6.36682 25.7808 6.84345 25.7812 7.34058V20.4656C25.7808 20.9627 25.5831 21.4393 25.2315 21.7909C24.88 22.1424 24.4034 22.3401 23.9062 22.3406ZM19.2188 7.34058V20.4656H23.9072L23.9062 7.34058H19.2188Z" fill="#E6AE00"/>
  <path d="M8.4375 29.8406C8.18886 29.8406 7.9504 29.7418 7.77459 29.566C7.59877 29.3902 7.5 29.1517 7.5 28.9031V25.1531C7.5 24.9044 7.59877 24.666 7.77459 24.4902C7.9504 24.3143 8.18886 24.2156 8.4375 24.2156C8.68614 24.2156 8.9246 24.3143 9.10041 24.4902C9.27623 24.666 9.375 24.9044 9.375 25.1531V28.9031C9.375 29.1517 9.27623 29.3902 9.10041 29.566C8.9246 29.7418 8.68614 29.8406 8.4375 29.8406ZM8.4375 11.0906C8.18886 11.0906 7.9504 10.9918 7.77459 10.816C7.59877 10.6402 7.5 10.4017 7.5 10.1531V2.65308C7.5 2.40444 7.59877 2.16598 7.77459 1.99016C7.9504 1.81435 8.18886 1.71558 8.4375 1.71558C8.68614 1.71558 8.9246 1.81435 9.10041 1.99016C9.27623 2.16598 9.375 2.40444 9.375 2.65308V10.1531C9.375 10.4017 9.27623 10.6402 9.10041 10.816C8.9246 10.9918 8.68614 11.0906 8.4375 11.0906ZM21.5625 7.34058C21.3139 7.34058 21.0754 7.2418 20.8996 7.06599C20.7238 6.89017 20.625 6.65172 20.625 6.40308V2.65308C20.625 2.40444 20.7238 2.16598 20.8996 1.99016C21.0754 1.81435 21.3139 1.71558 21.5625 1.71558C21.8111 1.71558 22.0496 1.81435 22.2254 1.99016C22.4012 2.16598 22.5 2.40444 22.5 2.65308V6.40308C22.5 6.65172 22.4012 6.89017 22.2254 7.06599C22.0496 7.2418 21.8111 7.34058 21.5625 7.34058ZM21.5625 29.8406C21.3139 29.8406 21.0754 29.7418 20.8996 29.566C20.7238 29.3902 20.625 29.1517 20.625 28.9031V21.4031C20.625 21.1544 20.7238 20.916 20.8996 20.7402C21.0754 20.5643 21.3139 20.4656 21.5625 20.4656C21.8111 20.4656 22.0496 20.5643 22.2254 20.7402C22.4012 20.916 22.5 21.1544 22.5 21.4031V28.9031C22.5 29.1517 22.4012 29.3902 22.2254 29.566C22.0496 29.7418 21.8111 29.8406 21.5625 29.8406Z" fill="#E6AE00"/>
</svg>