<svg xmlns="http://www.w3.org/2000/svg" width="40" height="41" viewBox="0 0 40 41" fill="none">
  <mask id="mask0_614_4033" style="mask-type:luminance" maskUnits="userSpaceOnUse" x="3" y="14" width="22" height="23">
    <path d="M3.31836 14.4241H24.9162V36.598H3.31836V14.4241Z" fill="white"/>
  </mask>
  <g mask="url(#mask0_614_4033)">
    <path d="M7.16112 15.6575C6.968 15.6575 6.78543 15.7452 6.58967 15.9166C6.55869 15.9456 6.19684 16.2903 6.00438 16.4735L5.8831 16.5889C4.87466 17.534 4.41921 19.2365 4.72042 20.9285C4.81863 21.4795 4.97616 22.0496 5.18971 22.6237C6.26868 25.5304 8.3205 28.0607 9.85228 29.671C11.3768 31.2924 13.7865 33.4819 16.6247 34.7191C17.1849 34.963 17.7445 35.1508 18.2876 35.2787C19.9571 35.6709 21.6774 35.3064 22.6707 34.3487L22.8045 34.2221C22.995 34.0409 23.3344 33.7192 23.3845 33.6705C23.9672 33.0687 23.6574 32.55 22.4354 31.3042L22.119 30.978C21.3281 30.1561 20.0046 28.7726 18.9045 28.909C18.6158 28.9433 18.3008 29.1634 17.9679 29.3961C17.6404 29.6255 17.2693 29.8858 16.8376 30.0229C15.6848 30.3874 14.5135 30.1481 13.5433 29.3467C12.9725 28.8747 12.3925 28.3237 11.8646 27.7523C11.3326 27.2026 10.8146 26.5922 10.3756 25.9964C9.62884 24.9814 9.45154 23.7969 9.87864 22.6613C10.0381 22.2368 10.3163 21.8789 10.5628 21.5632C10.8119 21.2422 11.0479 20.9397 11.098 20.6523C11.2865 19.5575 9.98542 18.1582 9.20833 17.3225L8.90118 16.989C8.08652 16.0945 7.59548 15.6575 7.16112 15.6575ZM19.6368 36.5996C19.064 36.5996 18.513 36.5303 18.022 36.415C17.4116 36.2713 16.7848 36.0604 16.16 35.7888C13.1413 34.4732 10.6043 32.1723 9.00796 30.4738C7.40367 28.7871 5.24772 26.1236 4.09888 23.031C3.8616 22.391 3.68496 21.753 3.57489 21.1335C3.28092 19.4857 3.52413 17.2018 5.08755 15.7386L5.2029 15.6279C5.41118 15.4295 5.80928 15.0505 5.82444 15.0373C7.41818 13.6341 8.82802 15.179 9.76066 16.2013L10.0599 16.5269C10.984 17.5215 12.5322 19.1858 12.2449 20.8507C12.1453 21.4274 11.7914 21.8809 11.4796 22.2816C11.2661 22.5558 11.0644 22.8142 10.9675 23.0732C10.6808 23.8358 10.8001 24.6076 11.3122 25.303C11.7209 25.858 12.2033 26.4275 12.7089 26.9501C13.2111 27.4932 13.7529 28.0073 14.2835 28.4457C14.9492 28.996 15.7118 29.1562 16.4869 28.9103C16.7492 28.8273 17.0182 28.6388 17.3022 28.4397C17.7181 28.1484 18.1887 27.8195 18.7674 27.751C20.4416 27.5526 22.0156 29.1898 22.9568 30.1679L23.2659 30.4863C24.2341 31.4743 25.698 32.9672 24.2124 34.491C24.2117 34.4917 24.2117 34.4917 24.2111 34.4924C24.1972 34.5062 23.8136 34.8707 23.6047 35.0697L23.4755 35.191C22.4005 36.2271 20.961 36.5996 19.6368 36.5996Z" fill="#E6AE00"/>
  </g>
  <mask id="mask1_614_4033" style="mask-type:luminance" maskUnits="userSpaceOnUse" x="19" y="4" width="3" height="5">
    <path d="M19.8652 4.20142H21.2151V8.18114H19.8652V4.20142Z" fill="white"/>
  </mask>
  <g mask="url(#mask1_614_4033)">
    <path d="M20.5091 8.11684C20.1881 8.11684 19.9277 7.85583 19.9277 7.53353V4.78766C19.9277 4.46535 20.1881 4.20435 20.5091 4.20435C20.8307 4.20435 21.0917 4.46535 21.0917 4.78766V7.53353C21.0917 7.85583 20.8307 8.11684 20.5091 8.11684Z" fill="#E6AE00"/>
  </g>
  <path d="M18.0866 8.5831C17.8177 8.5831 17.5764 8.39525 17.5184 8.12106L16.9483 5.43517C16.8817 5.12012 17.0821 4.81033 17.3965 4.7431C17.7102 4.67521 18.02 4.87756 18.0866 5.19262L18.6567 7.8785C18.7233 8.19356 18.5223 8.50334 18.2079 8.57057C18.1677 8.57914 18.1268 8.5831 18.0866 8.5831Z" fill="#E6AE00"/>
  <path d="M15.8201 9.54402C15.5974 9.54402 15.3845 9.41483 15.2882 9.19799L14.173 6.6894C14.0432 6.39478 14.175 6.05006 14.4683 5.9189C14.7629 5.78839 15.1063 5.92087 15.2368 6.21484L16.3514 8.72342C16.4819 9.01739 16.3494 9.36211 16.0554 9.49327C15.979 9.52754 15.8986 9.54402 15.8201 9.54402Z" fill="#E6AE00"/>
  <path d="M13.7852 10.957C13.6046 10.957 13.4273 10.874 13.3139 10.7171L11.7031 8.49458C11.5139 8.23357 11.5719 7.86908 11.8316 7.67992C12.0926 7.49009 12.4558 7.54876 12.6449 7.80845L14.2545 10.031C14.4437 10.2913 14.3863 10.6565 14.126 10.8456C14.0231 10.9208 13.9032 10.957 13.7852 10.957Z" fill="#E6AE00"/>
  <path d="M12.1074 12.7613C11.969 12.7613 11.8299 12.7119 11.7185 12.6117L9.6825 10.7741C9.4439 10.5579 9.42479 10.1894 9.63966 9.95018C9.85453 9.71092 10.2223 9.69181 10.4616 9.90668L12.4969 11.7449C12.7362 11.9605 12.7553 12.3289 12.5404 12.5682C12.4251 12.696 12.2669 12.7613 12.1074 12.7613Z" fill="#E6AE00"/>
  <path d="M28.3198 32.7639C28.097 32.7639 27.8848 32.6347 27.7879 32.4172L26.6733 29.9086C26.5428 29.6147 26.6753 29.2693 26.9686 29.1381C27.2626 29.0076 27.6059 29.1401 27.7365 29.4341L28.851 31.9427C28.9815 32.2373 28.8497 32.582 28.5564 32.7132C28.4786 32.7474 28.3982 32.7639 28.3198 32.7639Z" fill="#E6AE00"/>
  <path d="M30.8392 31.0632C30.6593 31.0632 30.4813 30.9795 30.368 30.8226L28.7578 28.6007C28.5686 28.3397 28.6266 27.9752 28.8863 27.7861C29.1473 27.5963 29.5105 27.6549 29.699 27.9153L31.3092 30.1365C31.4984 30.3975 31.4403 30.762 31.1807 30.9518C31.0772 31.0269 30.9572 31.0632 30.8392 31.0632Z" fill="#E6AE00"/>
  <path d="M32.9514 28.8749C32.813 28.8749 32.6732 28.8255 32.5625 28.7246L30.5265 26.887C30.2879 26.6722 30.2681 26.3031 30.4837 26.0631C30.6985 25.8245 31.067 25.8048 31.3056 26.0203L33.3409 27.8579C33.5795 28.0734 33.5993 28.4425 33.3844 28.6811C33.2691 28.8097 33.1109 28.8749 32.9514 28.8749Z" fill="#E6AE00"/>
  <path d="M34.5607 26.2942C34.4625 26.2942 34.363 26.2692 34.2707 26.2158L31.8979 24.8428C31.6198 24.6814 31.5249 24.3248 31.6857 24.046C31.8459 23.7665 32.2005 23.6709 32.4799 23.8324L34.8521 25.2054C35.1309 25.3662 35.2258 25.7234 35.0656 26.0022C34.9575 26.1894 34.7624 26.2942 34.5607 26.2942Z" fill="#E6AE00"/>
  <path d="M35.6072 23.4343C35.5479 23.4343 35.4872 23.4251 35.4272 23.4053L32.8224 22.5564C32.5159 22.4569 32.3492 22.128 32.4487 21.8215C32.5469 21.5157 32.8758 21.3482 33.1816 21.4471L35.7871 22.296C36.0929 22.3956 36.2597 22.7245 36.1608 23.031C36.0811 23.2775 35.8524 23.4343 35.6072 23.4343Z" fill="#E6AE00"/>
  <mask id="mask2_614_4033" style="mask-type:luminance" maskUnits="userSpaceOnUse" x="32" y="18" width="5" height="3">
    <path d="M32.6934 18.8108H36.6672V20.4981H32.6934V18.8108Z" fill="white"/>
  </mask>
  <g mask="url(#mask2_614_4033)">
    <path d="M36.0319 20.4197C36.0114 20.4197 35.991 20.4184 35.9706 20.4164L33.2458 20.129C32.9261 20.0954 32.6948 19.8087 32.7277 19.4877C32.7613 19.1674 33.0481 18.9373 33.3677 18.969L36.0918 19.2563C36.4115 19.29 36.6435 19.5767 36.6099 19.897C36.5783 20.1969 36.3258 20.4197 36.0319 20.4197Z" fill="#E6AE00"/>
  </g>
  <path d="M33.0948 17.6692C32.8015 17.6692 32.5484 17.4471 32.5168 17.1472C32.4838 16.8268 32.7152 16.5395 33.0349 16.5059L35.7596 16.2185C36.0806 16.1868 36.3647 16.4175 36.399 16.7379C36.4319 17.0582 36.2006 17.3456 35.8809 17.3792L33.1568 17.6659C33.1357 17.6679 33.1153 17.6692 33.0948 17.6692Z" fill="#E6AE00"/>
  <path d="M32.3849 15.3047C32.139 15.3047 31.9116 15.1478 31.8312 14.9013C31.7323 14.5948 31.8991 14.2659 32.2049 14.1658L34.8097 13.3175C35.1162 13.2186 35.4438 13.386 35.5433 13.6918C35.6422 13.9983 35.4754 14.3272 35.1696 14.4268L32.5641 15.2757C32.5048 15.2955 32.4435 15.3047 32.3849 15.3047Z" fill="#E6AE00"/>
  <path d="M31.1897 13.1386C30.9886 13.1386 30.7935 13.0345 30.6848 12.8473C30.5253 12.5678 30.6202 12.2119 30.8983 12.0504L33.2705 10.6775C33.5486 10.516 33.9045 10.6122 34.066 10.891C34.2262 11.1699 34.1306 11.5264 33.8525 11.6879L31.4803 13.0608C31.3887 13.1136 31.2885 13.1386 31.1897 13.1386Z" fill="#E6AE00"/>
  <path d="M29.572 11.2699C29.4125 11.2699 29.2537 11.2046 29.1397 11.0768C28.9248 10.8369 28.9439 10.4684 29.1825 10.2529L31.2185 8.41528C31.4571 8.19975 31.8249 8.21821 32.0398 8.45812C32.2546 8.69738 32.2355 9.06649 31.9969 9.28202L29.9609 11.1196C29.8495 11.2198 29.7104 11.2699 29.572 11.2699Z" fill="#E6AE00"/>
  <path d="M27.6102 9.77742C27.4916 9.77742 27.3723 9.74116 27.2694 9.66603C27.0091 9.47686 26.9517 9.11237 27.1402 8.85136L28.7498 6.62949C28.939 6.3698 29.3028 6.31114 29.5631 6.50096C29.8235 6.68947 29.8808 7.05462 29.6923 7.31563L28.0815 9.5375C27.9674 9.69437 27.7908 9.77742 27.6102 9.77742Z" fill="#E6AE00"/>
  <path d="M25.3768 8.72809C25.2977 8.72809 25.2173 8.71161 25.1402 8.67734C24.8469 8.54618 24.7144 8.20146 24.8456 7.9075L25.9595 5.39825C26.0906 5.10363 26.434 4.97246 26.728 5.10231C27.0213 5.23347 27.1538 5.57885 27.0226 5.87281L25.9087 8.3814C25.8118 8.59891 25.5996 8.72809 25.3768 8.72809Z" fill="#E6AE00"/>
  <path d="M22.9789 8.16601C22.9387 8.16601 22.8978 8.1614 22.8576 8.15217C22.5432 8.0856 22.3422 7.77648 22.4094 7.46076L22.9783 4.77487C23.0455 4.45916 23.3546 4.25681 23.669 4.32536C23.9827 4.39259 24.1831 4.70171 24.1165 5.01743L23.5471 7.70331C23.4891 7.97751 23.2472 8.16601 22.9789 8.16601Z" fill="#E6AE00"/>
  <path d="M14.4714 22.2481C14.4694 22.078 14.4661 21.9356 14.4635 21.819C14.4609 21.703 14.4595 21.5791 14.4595 21.4479C14.4595 21.3167 14.4609 21.1421 14.4635 20.9232C14.4773 20.4718 14.5868 20.0901 14.7911 19.779C14.9961 19.4679 15.2966 19.2036 15.6947 18.9874L16.2385 18.6921C16.4296 18.5887 16.5522 18.4628 16.6056 18.3171C16.6584 18.1708 16.6887 18.0337 16.6972 17.9052C16.7078 17.7569 16.7144 17.5974 16.7157 17.4247C16.7164 17.2526 16.7137 17.0918 16.7051 16.9409C16.686 16.6456 16.4883 16.4986 16.1119 16.4986C15.9215 16.4986 15.783 16.5368 15.6993 16.6133C15.6143 16.6898 15.5695 16.7893 15.5642 16.9125C15.5583 17.1254 15.5543 17.3238 15.5517 17.5071C15.5491 17.6903 15.5543 17.89 15.5682 18.1055H14.48C14.4714 17.9223 14.4655 17.7503 14.4615 17.5868C14.4576 17.4247 14.4582 17.2718 14.4635 17.13C14.4853 16.5856 14.625 16.1961 14.8827 15.9608C15.1404 15.7255 15.5504 15.6082 16.1119 15.6082C16.7071 15.6082 17.1316 15.7255 17.3867 15.9608C17.6411 16.1961 17.7795 16.5856 17.8013 17.13C17.8125 17.4029 17.8125 17.6613 17.8013 17.9052C17.7854 18.3422 17.6734 18.6941 17.4664 18.9604C17.2588 19.2273 16.9892 19.4521 16.6564 19.6353L16.0388 19.9715C15.8641 20.0677 15.7435 20.2101 15.6763 20.4006C15.6097 20.5904 15.5761 20.7644 15.5761 20.9232V21.2923H17.7235V22.2481H14.4714Z" fill="#E6AE00"/>
  <path d="M19.1633 19.5737H20.0874L20.2304 18.0077L20.357 16.642H20.1283L19.7031 18.0077L19.1633 19.5737ZM20.0874 22.2484V20.5215H18.1074V19.6232L19.6537 15.6863H21.1183V19.5737H21.838V20.5215H21.1183V22.2484H20.0874Z" fill="#E6AE00"/>
  <path d="M26.1476 22.2484L28.0247 16.642H25.6855V15.6863H29.1208V16.6664L27.2885 22.2484H26.1476Z" fill="#E6AE00"/>
  <path d="M23.2962 22.9834L25.2782 15.2H24.2144L22.2324 22.9834H23.2962Z" fill="#E6AE00"/>
</svg>