<svg xmlns="http://www.w3.org/2000/svg" width="32" height="41" viewBox="0 0 32 41" fill="none">
  <mask id="mask0_614_3982" style="mask-type:luminance" maskUnits="userSpaceOnUse" x="2" y="0" width="28" height="25">
    <path d="M2.23145 0.778137H29.5576V24.2836H2.23145V0.778137Z" fill="white"/>
  </mask>
  <g mask="url(#mask0_614_3982)">
    <path d="M15.8591 24.1467C8.39904 24.1467 2.32812 18.9072 2.32812 12.4621C2.32812 6.01772 8.39904 0.782349 15.8591 0.782349C23.3184 0.782349 29.3893 6.02264 29.3893 12.4621C29.3893 18.9023 23.3184 24.1467 15.8591 24.1467ZM15.8591 1.89373C8.95664 1.89373 3.33733 6.63615 3.33733 12.4621C3.33733 18.2888 8.95216 23.0353 15.8591 23.0353C22.7653 23.0353 28.3801 18.2937 28.3801 12.4621C28.3801 6.63123 22.7616 1.89373 15.8591 1.89373Z" fill="#E6AE00"/>
  </g>
  <path d="M15.8545 28.3641C8.20107 28.3641 1.97266 22.0313 1.97266 14.2492C1.97266 12.7113 2.21451 11.2005 2.69075 9.75608C2.78778 9.46655 3.07442 9.31973 3.33643 9.42226C3.59918 9.52889 3.73205 9.84467 3.63949 10.1334C3.20356 11.4531 2.98186 12.836 2.98186 14.2442C2.98186 21.4137 8.75793 27.2486 15.8545 27.2486C22.9503 27.2486 28.7308 21.4137 28.7308 14.2442C28.7308 12.9114 28.533 11.5909 28.1374 10.3294C28.0485 10.0399 28.1859 9.72492 28.4524 9.62239C28.7151 9.52479 29.001 9.6757 29.0943 9.96934C29.5258 11.3465 29.7437 12.7867 29.7437 14.2442C29.7437 22.0264 23.5153 28.36 15.8582 28.36L15.8545 28.3641Z" fill="#E6AE00"/>
  <path d="M8.08601 25.8451C7.80739 25.8451 7.58105 25.5966 7.58105 25.2898V21.4004C7.58105 21.0945 7.80739 20.8452 8.08601 20.8452C8.36463 20.8452 8.59096 21.0945 8.59096 21.4004V25.2898C8.59096 25.5966 8.36463 25.8451 8.08601 25.8451Z" fill="#E6AE00"/>
  <path d="M15.9434 28.3642C15.6648 28.3642 15.4385 28.1156 15.4385 27.8089V23.5914C15.4385 23.2846 15.6648 23.0353 15.9434 23.0353C16.2221 23.0353 16.4484 23.2846 16.4484 23.5914V27.8089C16.4484 28.1156 16.2221 28.3642 15.9434 28.3642Z" fill="#E6AE00"/>
  <path d="M11.8428 27.738C11.5635 27.738 11.3379 27.4895 11.3379 27.1827V23.0497C11.3379 22.7429 11.5635 22.4936 11.8428 22.4936C12.1215 22.4936 12.3478 22.7429 12.3478 23.0497V27.1827C12.3478 27.4895 12.1215 27.738 11.8428 27.738Z" fill="#E6AE00"/>
  <path d="M22.6759 26.4767C22.3972 26.4767 22.1709 26.2273 22.1709 25.9206V21.9516C22.1709 21.6448 22.3972 21.3963 22.6759 21.3963C22.9545 21.3963 23.1808 21.6448 23.1808 21.9516V25.9206C23.1808 26.2273 22.9545 26.4767 22.6759 26.4767Z" fill="#E6AE00"/>
  <path d="M25.086 24.6224C24.8066 24.6224 24.5811 24.3739 24.5811 24.0671V20.3204C24.5811 20.0137 24.8066 19.7643 25.086 19.7643C25.3646 19.7643 25.591 20.0137 25.591 20.3204V24.0671C25.591 24.3739 25.3646 24.6224 25.086 24.6224Z" fill="#E6AE00"/>
  <path d="M17.698 32.2759C10.7597 32.2759 4.97471 27.7911 4.24468 21.8446C4.2081 21.5427 4.40143 21.2622 4.67613 21.2179C4.95082 21.1777 5.20536 21.3918 5.24567 21.6937C5.90778 27.0939 11.2643 31.1605 17.698 31.1605C24.605 31.1605 30.2198 26.418 30.2198 20.5872C30.2198 18.8672 29.7152 17.1604 28.7664 15.6446C28.6089 15.3912 28.6657 15.0451 28.8956 14.8712C29.1262 14.6981 29.4405 14.7605 29.598 15.0139C30.6677 16.7117 31.2327 18.64 31.2327 20.5872C31.2327 27.0266 25.1618 32.271 17.7025 32.271L17.698 32.2759Z" fill="#E6AE00"/>
  <mask id="mask1_614_3982" style="mask-type:luminance" maskUnits="userSpaceOnUse" x="3" y="17" width="29" height="20">
    <path d="M3.75586 17.5649H31.6217V36.6724H3.75586V17.5649Z" fill="white"/>
  </mask>
  <g mask="url(#mask1_614_3982)">
    <path d="M17.709 36.4891C10.0556 36.4891 3.82715 30.1554 3.82715 22.3733C3.82715 22.0535 3.83984 21.7287 3.85999 21.4137C3.88015 21.1069 4.122 20.8756 4.40043 20.8978C4.67885 20.9199 4.88935 21.1865 4.8692 21.4933C4.8483 21.782 4.84083 22.0797 4.84083 22.3733C4.84083 29.5419 10.6169 35.3777 17.7134 35.3777C24.8092 35.3777 30.5898 29.5419 30.5898 22.3733C30.5898 21.0356 30.392 19.72 29.9963 18.4577C29.9075 18.169 30.0449 17.8532 30.3113 17.7515C30.5741 17.649 30.8607 17.8048 30.9533 18.0935C31.3855 19.4715 31.6035 20.9068 31.6035 22.3692C31.6035 30.1513 25.375 36.4841 17.7172 36.4841L17.709 36.4891Z" fill="#E6AE00"/>
  </g>
  <path d="M9.93952 33.9734C9.6609 33.9734 9.43457 33.724 9.43457 33.4181V29.5287C9.43457 29.2219 9.6609 28.9734 9.93952 28.9734C10.2181 28.9734 10.4445 29.2219 10.4445 29.5287V33.4181C10.4445 33.724 10.2181 33.9734 9.93952 33.9734Z" fill="#E6AE00"/>
  <path d="M17.7862 36.4892C17.5076 36.4892 17.2812 36.2399 17.2812 35.9331V31.7156C17.2812 31.4089 17.5076 31.1603 17.7862 31.1603C18.0648 31.1603 18.2912 31.4089 18.2912 31.7156V35.9331C18.2912 36.2399 18.0648 36.4892 17.7862 36.4892Z" fill="#E6AE00"/>
  <path d="M13.6856 35.8669C13.407 35.8669 13.1807 35.6184 13.1807 35.3116V31.1778C13.1807 30.8718 13.407 30.6225 13.6856 30.6225C13.9642 30.6225 14.1906 30.8718 14.1906 31.1778V35.3116C14.1906 35.6184 13.9642 35.8669 13.6856 35.8669Z" fill="#E6AE00"/>
  <path d="M24.5186 34.6047C24.2393 34.6047 24.0137 34.3562 24.0137 34.0495V30.0805C24.0137 29.7737 24.2393 29.5252 24.5186 29.5252C24.7972 29.5252 25.0228 29.7737 25.0228 30.0805V34.0495C25.0228 34.3562 24.7972 34.6047 24.5186 34.6047Z" fill="#E6AE00"/>
  <path d="M26.9385 32.7519C26.6599 32.7519 26.4336 32.5026 26.4336 32.1958V28.4491C26.4336 28.1432 26.6599 27.8939 26.9385 27.8939C27.2172 27.8939 27.4435 28.1432 27.4435 28.4491V32.1958C27.4435 32.5026 27.2172 32.7519 26.9385 32.7519Z" fill="#E6AE00"/>
  <path d="M14.2575 36.5779C6.79748 36.5779 0.726562 31.3385 0.726562 24.8941C0.726562 22.6271 1.4775 20.4273 2.89874 18.5383C3.0764 18.3029 3.39514 18.2668 3.60862 18.4629C3.82285 18.6581 3.85495 19.0091 3.6773 19.2445C2.40608 20.9333 1.73577 22.8895 1.73577 24.8941C1.73577 30.7249 7.35508 35.4674 14.2575 35.4674C14.536 35.4674 14.7621 35.7159 14.7621 36.0226C14.7621 36.3294 14.536 36.5779 14.2575 36.5779Z" fill="#E6AE00"/>
  <mask id="mask2_614_3982" style="mask-type:luminance" maskUnits="userSpaceOnUse" x="0" y="21" width="27" height="20">
    <path d="M0.376953 21.763H26.8768V40.777H0.376953V21.763Z" fill="white"/>
  </mask>
  <g mask="url(#mask2_614_3982)">
    <path d="M14.2588 40.7948C6.60537 40.7948 0.376953 34.462 0.376953 26.6799C0.376953 25.142 0.618804 23.6312 1.09504 22.1868C1.19208 21.8973 1.47872 21.7463 1.74147 21.853C2.00348 21.9596 2.13709 22.2754 2.04379 22.5641C1.60786 23.8838 1.38616 25.2708 1.38616 26.675C1.38616 33.8444 7.16222 39.6793 14.2588 39.6793C18.7756 39.6793 23.0177 37.24 25.3309 33.3153C25.4966 33.0348 25.6497 32.7461 25.7915 32.4615C25.9243 32.1908 26.2311 32.0932 26.473 32.2401C26.7193 32.386 26.8081 32.724 26.6753 32.9955C26.5215 33.3063 26.3521 33.6221 26.1744 33.9239C23.676 38.1595 19.1107 40.7948 14.2588 40.7948Z" fill="#E6AE00"/>
  </g>
  <path d="M6.4864 38.2751C6.20778 38.2751 5.98145 38.0266 5.98145 37.7198V33.8304C5.98145 33.5245 6.20778 33.2751 6.4864 33.2751C6.76577 33.2751 6.99135 33.5245 6.99135 33.8304V37.7198C6.99135 38.0266 6.76577 38.2751 6.4864 38.2751Z" fill="#E6AE00"/>
  <mask id="mask3_614_3982" style="mask-type:luminance" maskUnits="userSpaceOnUse" x="13" y="35" width="3" height="6">
    <path d="M13.6934 35.4122H15.031V40.778H13.6934V35.4122Z" fill="white"/>
  </mask>
  <g mask="url(#mask3_614_3982)">
    <path d="M14.3292 40.7952C14.0506 40.7952 13.8242 40.5467 13.8242 40.2399V36.0224C13.8242 35.7157 14.0506 35.4672 14.3292 35.4672C14.6078 35.4672 14.8341 35.7157 14.8341 36.0224V40.2399C14.8341 40.5467 14.6078 40.7952 14.3292 40.7952Z" fill="#E6AE00"/>
  </g>
  <path d="M10.2325 40.1737C9.95387 40.1737 9.72754 39.9244 9.72754 39.6184V35.4846C9.72754 35.1778 9.95387 34.9293 10.2325 34.9293C10.5111 34.9293 10.7374 35.1778 10.7374 35.4846V39.6184C10.7374 39.9244 10.5111 40.1737 10.2325 40.1737Z" fill="#E6AE00"/>
  <path d="M21.0665 38.9079C20.7879 38.9079 20.5615 38.6586 20.5615 38.3518V35.5074C20.5615 35.2006 20.7879 34.9521 21.0665 34.9521C21.3451 34.9521 21.5714 35.2006 21.5714 35.5074V38.3518C21.5714 38.6586 21.3451 38.9079 21.0665 38.9079Z" fill="#E6AE00"/>
  <path d="M16.6265 17.6177C13.8893 17.6177 11.6611 15.0538 11.6611 11.9067C11.6611 8.76035 13.8893 6.19147 16.6265 6.19147C17.3849 6.19147 18.112 6.38258 18.7898 6.75987C19.0398 6.89766 19.1369 7.23149 19.0115 7.50708C18.8868 7.78267 18.5837 7.88929 18.3337 7.7515C17.797 7.45376 17.2237 7.30203 16.6221 7.30203C14.4424 7.30203 12.6666 9.36894 12.6666 11.9067C12.6666 14.4444 14.4424 16.5064 16.6221 16.5064C17.2036 16.5064 17.7686 16.3604 18.2971 16.0758C18.5479 15.938 18.8502 16.0536 18.9712 16.3292C19.0966 16.6048 18.9913 16.9378 18.7413 17.0715C18.0709 17.4357 17.3566 17.6177 16.6183 17.6177H16.6265Z" fill="#E6AE00"/>
  <path d="M17.7317 11.0267H10.6276C10.3492 11.0267 10.123 10.7782 10.123 10.4714C10.123 10.1647 10.3492 9.91614 10.6276 9.91614H17.7317C18.0108 9.91614 18.2363 10.1647 18.2363 10.4714C18.2363 10.7782 18.0108 11.0267 17.7317 11.0267Z" fill="#E6AE00"/>
  <path d="M17.7317 13.8844H10.6276C10.3492 13.8844 10.123 13.6358 10.123 13.3291C10.123 13.0223 10.3492 12.7738 10.6276 12.7738H17.7317C18.0108 12.7738 18.2363 13.0223 18.2363 13.3291C18.2363 13.6358 18.0108 13.8844 17.7317 13.8844Z" fill="#E6AE00"/>
</svg>