<svg xmlns="http://www.w3.org/2000/svg" width="20" height="41" viewBox="0 0 20 41" fill="none">
  <mask id="mask0_614_4074" style="mask-type:luminance" maskUnits="userSpaceOnUse" x="0" y="0" width="20" height="41">
    <path d="M0.536133 0.778076H19.4647V40.7781H0.536133V0.778076Z" fill="white"/>
  </mask>
  <g mask="url(#mask0_614_4074)">
    <path d="M14.717 0.837895C14.5896 0.841189 14.4704 0.875774 14.358 0.942474C14.2463 1.00917 14.1549 1.10058 14.083 1.21668L0.685781 22.8438C0.603346 22.9764 0.558381 23.1222 0.550138 23.2819C0.541894 23.4425 0.57262 23.5932 0.640816 23.7348C0.709012 23.8764 0.804937 23.9884 0.930088 24.0708C1.05524 24.1539 1.19088 24.1951 1.33627 24.1951H8.24657L5.2939 39.5895C5.27516 39.6884 5.27216 39.788 5.28565 39.8876C5.29839 39.9881 5.32687 40.082 5.37034 40.1717C5.41305 40.2607 5.46926 40.3389 5.53746 40.4072C5.60565 40.4748 5.68209 40.5275 5.76752 40.5662C5.85296 40.604 5.94139 40.6255 6.03356 40.6296C6.12499 40.6337 6.21492 40.6205 6.3026 40.59C6.39028 40.5596 6.47122 40.5143 6.54391 40.4525C6.61735 40.3916 6.67881 40.3183 6.72827 40.2335L19.3378 18.6063C19.4158 18.4729 19.457 18.3272 19.4615 18.1691C19.4667 18.0118 19.4345 17.8636 19.3656 17.7244C19.2966 17.5861 19.1999 17.4766 19.0763 17.3959C18.9526 17.3152 18.8185 17.2748 18.6746 17.2748H12.5534L15.5053 1.88039C15.5173 1.81698 15.5233 1.75193 15.5218 1.68687C15.5211 1.62182 15.5128 1.55759 15.4986 1.49501C15.4844 1.4316 15.4641 1.37067 15.4372 1.31303C15.4109 1.25456 15.3787 1.20021 15.3405 1.15081C15.3023 1.10058 15.2603 1.05529 15.2131 1.01576C15.1659 0.976235 15.1157 0.943297 15.0617 0.916123C15.0077 0.888949 14.9515 0.869186 14.8931 0.856011C14.8354 0.842836 14.7762 0.836248 14.717 0.837895ZM13.141 5.81237L10.8103 17.9624C10.7983 18.025 10.7931 18.0892 10.7938 18.1534C10.7946 18.2177 10.8021 18.2811 10.8163 18.3437C10.8298 18.4062 10.85 18.4664 10.8755 18.524C10.9017 18.5816 10.9332 18.6352 10.9699 18.6846C11.0074 18.7348 11.0486 18.7801 11.0943 18.8196C11.1408 18.8591 11.1902 18.8929 11.2435 18.9209C11.2959 18.9481 11.3514 18.9695 11.4083 18.9835C11.4653 18.9975 11.523 19.0049 11.5814 19.0049H17.2357L7.72273 35.3183L9.98895 23.5075C10.0009 23.4449 10.0062 23.3807 10.0054 23.3165C10.0047 23.2523 9.99719 23.1889 9.98295 23.1263C9.96946 23.0637 9.94923 23.0036 9.92375 22.9459C9.89752 22.8883 9.86604 22.8348 9.82932 22.7845C9.79185 22.7351 9.75063 22.6898 9.70492 22.6503C9.65846 22.6108 9.609 22.577 9.55654 22.549C9.50333 22.5219 9.44862 22.5004 9.39092 22.4865C9.33396 22.4725 9.27626 22.465 9.2178 22.465H2.82534L13.141 5.81237Z" fill="#E6AE00"/>
  </g>
</svg>