<svg xmlns="http://www.w3.org/2000/svg" width="52" height="52" viewBox="0 0 52 52" fill="none">
  <path opacity="0.931" fill-rule="evenodd" clip-rule="evenodd" d="M23.5878 2.60902C33.6047 2.17435 41.2049 6.203 46.3886 14.695C49.3632 20.3081 50.0742 26.1987 48.5214 32.3668C46.2081 40.063 41.3161 45.3951 33.8456 48.3629C25.5235 51.0835 17.8725 49.8309 10.8925 44.6051C3.37612 38.0007 0.718571 29.791 2.91982 19.9762C5.10082 12.5822 9.72191 7.35166 16.7831 4.2848C18.9898 3.41994 21.2579 2.86135 23.5878 2.60902ZM25.3144 4.23402C33.764 4.43678 40.2133 8.09303 44.662 15.2028C48.0698 21.5082 48.4761 28.0082 45.8808 34.7028C41.8415 43.1536 35.1214 47.6223 25.7206 48.109C17.6943 47.7958 11.482 44.3089 7.08389 37.6481C3.4546 31.4267 2.87909 24.9267 5.35732 18.1481C8.37431 11.1029 13.6048 6.6511 21.0487 4.79261C22.4728 4.50466 23.8947 4.31847 25.3144 4.23402Z" fill="#E5AE00"/>
  <path opacity="0.941" fill-rule="evenodd" clip-rule="evenodd" d="M32.4375 25.2577C35.2815 25.2407 38.1252 25.2577 40.9688 25.3085C41.9749 25.6037 42.6012 26.2639 42.8477 27.289C42.9154 29.0155 42.9154 30.7421 42.8477 32.4686C42.6397 33.5907 41.9795 34.2848 40.8672 34.5507C38.0912 34.6184 35.3151 34.6184 32.5391 34.5507C31.5395 34.2959 30.9132 33.6696 30.6602 32.6718C30.5924 30.8098 30.5924 28.9478 30.6602 27.0858C30.9327 26.1533 31.5252 25.5439 32.4375 25.2577ZM32.8438 26.9843C32.4606 27.1656 32.2914 27.4702 32.336 27.8983C35.2813 27.8983 38.2266 27.8983 41.1719 27.8983C41.1978 27.4928 41.0286 27.2051 40.6641 27.035C38.0575 26.9843 35.4508 26.9673 32.8438 26.9843ZM32.336 29.6249C32.3191 30.5396 32.336 31.4536 32.3867 32.3671C32.434 32.5124 32.5187 32.6308 32.6407 32.7225C34.0025 32.8393 35.3736 32.8901 36.7539 32.8749C38.0573 32.8579 39.3607 32.8411 40.6641 32.8241C40.8902 32.6995 41.0425 32.5132 41.1211 32.2655C41.1719 31.386 41.1888 30.5057 41.1719 29.6249C38.2266 29.6249 35.2813 29.6249 32.336 29.6249Z" fill="#E5AE00"/>
  <path opacity="0.936" fill-rule="evenodd" clip-rule="evenodd" d="M22.6641 6.58236C27.1698 6.40416 30.2335 8.40155 31.8555 12.5745C33.017 17.0859 31.646 20.5728 27.7422 23.0355C28.4036 23.3124 29.0807 23.5494 29.7734 23.7464C33.3078 20.2407 37.3026 19.6482 41.7578 21.9691C44.4552 23.7914 45.8095 26.3473 45.8203 29.637C45.41 35.2778 42.38 38.2909 36.7305 38.6761C27.7089 38.5937 18.6868 38.543 9.66407 38.5238C8.64168 38.28 7.98152 37.6538 7.6836 36.6449C7.61588 34.8167 7.61588 32.9886 7.6836 31.1605C8.19577 28.5278 9.66842 26.6489 12.1016 25.5238C14.5514 24.7241 16.9889 23.8947 19.4141 23.0355C15.9294 20.9404 14.4567 17.8597 14.9961 13.7933C15.9476 9.67183 18.5037 7.26818 22.6641 6.58236ZM22.6641 8.30892C20.9264 8.62788 19.4538 9.44038 18.2461 10.7464C16.2948 13.2999 16.0578 16.0083 17.5352 18.8714C19.7198 22.0464 22.6482 23.0112 26.3203 21.766C29.5193 20.1589 30.8904 17.5691 30.4336 13.9964C29.3578 10.0629 26.768 8.16709 22.6641 8.30892ZM36.0703 22.3245C34.4714 22.5311 33.0495 23.1575 31.8047 24.2035C29.2728 26.9725 28.8496 30.0363 30.5352 33.3949C32.8085 36.6466 35.8384 37.6453 39.625 36.391C42.8487 34.8021 44.3214 32.2123 44.043 28.6214C43.113 24.3543 40.4555 22.2553 36.0703 22.3245ZM22.5625 24.0511C19.3601 24.9321 16.1779 25.9307 13.0156 27.0472C11.0858 27.8763 9.88402 29.315 9.41016 31.3636C9.26354 32.8506 9.22968 34.3401 9.3086 35.8324C9.34037 36.2858 9.56041 36.6075 9.96875 36.7972C17.0781 36.8649 24.1875 36.8649 31.2969 36.7972C30.8093 36.4114 30.3522 35.9882 29.9258 35.5277C27.5098 32.3403 27.1543 28.938 28.8594 25.3206C26.8516 24.4463 24.7527 24.0232 22.5625 24.0511Z" fill="#E5AE00"/>
</svg>