<svg xmlns="http://www.w3.org/2000/svg" width="52" height="52" viewBox="0 0 52 52" fill="none">
  <g clip-path="url(#clip0_579_4809)">
    <path opacity="0.942" fill-rule="evenodd" clip-rule="evenodd" d="M25.3398 -0.0510254C25.7461 -0.0510254 26.1523 -0.0510254 26.5586 -0.0510254C34.7036 2.88428 42.8624 5.81268 51.0352 8.73413C51.4321 8.97846 51.7368 9.30008 51.9492 9.69897C51.9492 10.1052 51.9492 10.5115 51.9492 10.9177C51.7335 11.4887 51.3273 11.878 50.7305 12.0857C49.3499 12.557 47.9788 13.048 46.6172 13.5583C46.7768 14.9653 46.8108 16.3872 46.7188 17.824C46.5816 18.2998 46.2939 18.6553 45.8555 18.8904C44.8135 19.0521 43.764 19.086 42.707 18.9919C42.0742 18.7926 41.6849 18.3694 41.5391 17.7224C41.5219 16.9416 41.4711 16.1629 41.3867 15.3865C40.612 15.6843 39.8333 15.972 39.0508 16.2498C38.9668 18.2228 38.916 20.2033 38.8984 22.1912C38.6445 22.7159 38.2552 23.1052 37.7305 23.3591C36.1762 24.0524 34.5512 24.4926 32.8555 24.6794C28.2513 25.2888 23.6471 25.2888 19.043 24.6794C17.3469 24.4925 15.7219 24.0524 14.168 23.3591C13.6432 23.1052 13.2539 22.7159 13 22.1912C12.9824 20.2033 12.9316 18.2228 12.8477 16.2498C8.87899 14.8479 4.91805 13.426 0.964844 11.9841C0.462853 11.7702 0.124311 11.4148 -0.0507812 10.9177C-0.0507812 10.5115 -0.0507812 10.1052 -0.0507812 9.69897C0.161638 9.30008 0.466325 8.97846 0.863281 8.73413C9.05143 5.85268 17.2103 2.9243 25.3398 -0.0510254ZM25.7461 1.7771C31.5604 3.72656 37.3495 5.75781 43.1133 7.87085C43.2487 9.32658 43.2487 10.7823 43.1133 12.238C42.5997 12.4972 42.1596 12.8527 41.793 13.3044C40.8828 13.636 39.9687 13.9577 39.0508 14.2693C39.6173 11.9978 38.8048 10.5252 36.6133 9.85132C33.9583 9.10446 31.25 8.69821 28.4883 8.63257C25.535 8.51356 22.5897 8.61512 19.6523 8.93726C17.6596 9.09685 15.7637 9.60466 13.9648 10.4607C13.5364 10.7199 13.2147 11.0753 13 11.5271C12.9829 12.443 12.9322 13.3571 12.8477 14.2693C9.18756 12.9759 5.53131 11.6725 1.87891 10.3591C9.84849 7.50539 17.8042 4.64471 25.7461 1.7771ZM45.043 8.58179C46.7033 9.16349 48.3621 9.75594 50.0195 10.3591C48.3707 10.9384 46.7287 11.5309 45.0938 12.1365C45.043 10.9521 45.026 9.76716 45.043 8.58179ZM23.4102 10.4099C27.2718 10.2471 31.0973 10.5348 34.8867 11.2732C35.6669 11.4427 36.3948 11.7304 37.0703 12.1365C37.1549 14.6085 37.138 17.0799 37.0195 19.5505C35.5061 19.0075 33.9489 18.652 32.3477 18.4841C27.2488 17.9052 22.1707 18.0406 17.1133 18.8904C16.3179 19.0637 15.5393 19.2837 14.7773 19.5505C14.7604 17.0789 14.7773 14.6076 14.8281 12.1365C15.5036 11.7304 16.2315 11.4427 17.0117 11.2732C19.1384 10.8255 21.2712 10.5378 23.4102 10.4099ZM43.9258 13.863C44.3619 13.8324 44.6835 14.0016 44.8906 14.3708C44.9414 15.3181 44.9583 16.2661 44.9414 17.2146C44.3998 17.2146 43.858 17.2146 43.3164 17.2146C43.2995 16.2999 43.3164 15.3859 43.3672 14.4724C43.5053 14.2162 43.6915 14.013 43.9258 13.863ZM23.1055 19.9568C26.9285 19.7727 30.7201 20.0266 34.4805 20.7185C35.3887 20.8632 36.2352 21.1679 37.0195 21.6326C36.1839 22.0617 35.3036 22.3664 34.3789 22.5466C28.6167 23.5895 22.8614 23.5557 17.1133 22.4451C16.3241 22.2949 15.5793 22.024 14.8789 21.6326C15.6633 21.1679 16.5097 20.8632 17.418 20.7185C19.3132 20.3463 21.2091 20.0924 23.1055 19.9568Z" fill="#E5AE00"/>
    <path opacity="0.944" fill-rule="evenodd" clip-rule="evenodd" d="M51.9492 33.1599C51.9492 35.2589 51.9492 37.3578 51.9492 39.4568C51.8293 40.9208 51.5754 42.3765 51.1875 43.824C50.9673 44.758 50.4426 45.452 49.6133 45.906C46.7784 45.5347 43.9346 45.1962 41.082 44.8904C38.4429 44.6296 35.8023 44.4604 33.1602 44.3826C33.7319 45.6785 34.2904 46.9819 34.8359 48.2927C35.1121 49.9458 34.4181 50.7413 32.7539 50.6794C32.4589 50.5741 32.171 50.4556 31.8906 50.324C31.6434 51.0631 31.1864 51.6048 30.5195 51.949C30.1133 51.949 29.707 51.949 29.3008 51.949C28.9732 51.775 28.6854 51.5381 28.4375 51.238C27.9156 49.977 27.3739 48.7245 26.8125 47.4802C26.2906 48.7412 25.7489 49.9938 25.1875 51.238C24.9396 51.5381 24.6518 51.775 24.3242 51.949C23.918 51.949 23.5117 51.949 23.1055 51.949C22.844 51.8087 22.5901 51.6394 22.3438 51.4412C22.1213 51.078 21.9182 50.7055 21.7344 50.324C20.6251 50.9898 19.6771 50.8205 18.8906 49.8162C18.7391 49.3174 18.7052 48.8096 18.7891 48.2927C19.3346 46.9819 19.8931 45.6785 20.4648 44.3826C17.5812 44.3659 14.7035 44.5014 11.832 44.7888C8.63707 45.0954 5.45477 45.4679 2.28516 45.906C1.45582 45.452 0.931074 44.758 0.710938 43.824C0.323185 42.377 0.0692791 40.9213 -0.0507812 39.4568C-0.0507812 37.3578 -0.0507812 35.2589 -0.0507812 33.1599C0.0818609 31.621 0.369621 30.0976 0.8125 28.5896C1.04912 27.8132 1.50615 27.2207 2.18359 26.8123C4.48395 27.0601 6.78604 27.3308 9.08984 27.6248C18.4528 28.5699 27.8304 28.7391 37.2227 28.1326C41.4006 27.7837 45.5647 27.3436 49.7148 26.8123C50.3923 27.2207 50.8493 27.8132 51.0859 28.5896C51.5289 30.0978 51.8166 31.6212 51.9492 33.1599ZM48.4961 28.6912C48.7423 28.6599 48.9792 28.6938 49.207 28.7927C49.7163 30.3763 50.004 32.0013 50.0703 33.6677C50.2323 36.5611 50.0969 39.4387 49.6641 42.3005C49.5432 42.8518 49.3909 43.3935 49.207 43.9255C49.1224 43.9594 49.0377 43.9933 48.9531 44.0271C43.4439 43.22 37.9087 42.6783 32.3477 42.4021C33.0889 40.7994 33.1396 39.1744 32.5 37.5271C32.1097 36.7456 31.6696 36.0007 31.1797 35.2927C31.1605 33.6815 30.9743 32.0905 30.6211 30.5193C30.6321 30.4236 30.6659 30.339 30.7227 30.2654C36.6973 30.1371 42.6218 29.6124 48.4961 28.6912ZM4.41797 28.8943C9.87522 29.6594 15.3596 30.0995 20.8711 30.2146C21.4044 32.3488 21.6245 34.5156 21.5312 36.7146C20.5122 38.5572 20.4276 40.4362 21.2773 42.3513C15.6664 42.5678 10.0805 43.0587 4.51953 43.824C4.48568 43.7732 4.45182 43.7224 4.41797 43.6716C4.99333 41.2703 5.26416 38.8328 5.23047 36.3591C5.25499 33.8352 4.98416 31.3469 4.41797 28.8943ZM2.48828 29.3005C2.8162 30.2102 3.03625 31.1581 3.14844 32.1443C3.64054 35.9432 3.43741 39.701 2.53906 43.4177C1.74265 40.0683 1.50567 36.6829 1.82812 33.2615C1.96058 31.9251 2.18063 30.6048 2.48828 29.3005ZM22.8008 30.3162C24.7643 30.3162 26.7279 30.3162 28.6914 30.3162C29.0391 31.5879 29.2084 32.8744 29.1992 34.1755C27.1465 33.389 25.1999 33.5922 23.3594 34.7849C23.3029 33.2776 23.1166 31.788 22.8008 30.3162ZM26.5586 35.4958C29.2825 35.6637 30.8059 37.1026 31.1289 39.8123C30.8412 42.4021 29.4023 43.8409 26.8125 44.1287C24.2236 43.8417 22.7847 42.403 22.4961 39.8123C22.7624 37.329 24.1165 35.8902 26.5586 35.4958ZM22.4961 44.2302C23.3477 44.9777 24.3295 45.4855 25.4414 45.7537C24.9184 47.2042 24.3259 48.6261 23.6641 50.0193C23.4609 49.5453 23.2578 49.0714 23.0547 48.5974C22.7798 48.2384 22.4243 48.1199 21.9883 48.2419C21.5576 48.415 21.1344 48.6013 20.7188 48.8005C21.2493 47.2635 21.8417 45.7401 22.4961 44.2302ZM31.0273 44.2302C31.7313 45.7119 32.4083 47.2184 33.0586 48.7498C32.5894 48.6043 32.1154 48.4351 31.6367 48.2419C31.2007 48.1199 30.8452 48.2384 30.5703 48.5974C30.3983 49.0634 30.1783 49.5035 29.9102 49.9177C29.2953 48.5812 28.7197 47.227 28.1836 45.8552C29.2628 45.5195 30.2108 44.9778 31.0273 44.2302Z" fill="#E5AE00"/>
  </g>
  <defs>
    <clipPath id="clip0_579_4809">
      <rect width="52" height="52" fill="white"/>
    </clipPath>
  </defs>
</svg>