<svg xmlns="http://www.w3.org/2000/svg" width="52" height="52" viewBox="0 0 52 52" fill="none">
  <path opacity="0.994" fill-rule="evenodd" clip-rule="evenodd" d="M7.0586 2.69107C7.81203 2.61874 8.33676 2.92343 8.63282 3.60513C8.68359 5.22978 8.70052 6.85478 8.6836 8.48013C10.3838 8.55875 11.484 9.4051 11.9844 11.0192C12.0521 19.4151 12.0521 27.8108 11.9844 36.2067C11.4789 37.8225 10.3787 38.6688 8.6836 38.7458C8.70052 40.405 8.68359 42.0638 8.63282 43.7223C8.12976 44.5732 7.43575 44.7594 6.55078 44.2809C6.30768 44.0827 6.15534 43.8288 6.09375 43.5192C6.04298 41.9284 6.02605 40.3372 6.04297 38.7458C4.28196 38.6266 3.18169 37.7126 2.74219 36.0036C2.67448 27.7432 2.67448 19.4827 2.74219 11.2223C3.18286 9.51196 4.28313 8.5979 6.04297 8.48013C6.02605 6.88863 6.04298 5.29748 6.09375 3.7067C6.23085 3.18053 6.55247 2.84198 7.0586 2.69107ZM5.83985 11.1208C6.88987 11.1039 7.93935 11.1208 8.98828 11.1715C9.14063 11.2561 9.25912 11.3747 9.34375 11.527C9.41146 19.5843 9.41146 27.6416 9.34375 35.6989C9.29297 35.885 9.17448 36.0036 8.98828 36.0544C7.90495 36.1221 6.82162 36.1221 5.73828 36.0544C5.58098 35.9311 5.46249 35.7787 5.38282 35.5973C5.3151 27.6077 5.3151 19.6182 5.38282 11.6286C5.48692 11.4065 5.63926 11.2371 5.83985 11.1208Z" fill="#E5AE00"/>
  <path opacity="0.995" fill-rule="evenodd" clip-rule="evenodd" d="M44.1729 2.69139C44.8539 2.60711 45.3786 2.84409 45.7471 3.40232C45.8944 4.88459 45.9451 6.37417 45.8994 7.87107C47.6609 7.99073 48.7612 8.9048 49.2002 10.6133C49.268 19.5169 49.268 28.4205 49.2002 37.3242C48.823 39.0382 47.7566 39.9862 46.001 40.1679C45.9164 41.5547 45.8656 42.9427 45.8487 44.332C45.4316 45.3063 44.7377 45.5602 43.7666 45.0937C43.5516 44.9179 43.3993 44.6978 43.3096 44.4336C43.2926 43.0105 43.2419 41.5886 43.1573 40.1679C41.5358 40.019 40.4694 39.1726 39.958 37.6289C39.8903 28.556 39.8903 19.483 39.958 10.4101C40.4787 8.82431 41.579 7.97796 43.2588 7.87107C43.2419 6.44879 43.2588 5.02692 43.3096 3.60545C43.4784 3.18292 43.7661 2.87823 44.1729 2.69139ZM43.0557 10.5117C44.0719 10.4948 45.0875 10.5117 46.1026 10.5625C46.3227 10.6471 46.475 10.7994 46.5596 11.0195C46.6273 19.6861 46.6273 28.3529 46.5596 37.0195C46.447 37.2546 46.2607 37.407 46.001 37.4765C45.0531 37.5443 44.1051 37.5443 43.1573 37.4765C42.9188 37.4414 42.7326 37.3229 42.5987 37.1211C42.5309 28.3867 42.5309 19.6523 42.5987 10.9179C42.7405 10.7585 42.8929 10.623 43.0557 10.5117Z" fill="#E5AE00"/>
  <path opacity="0.984" fill-rule="evenodd" clip-rule="evenodd" d="M19.3819 12.1366C20.032 12.0315 20.5567 12.2346 20.9561 12.746C21.1012 13.8213 21.152 14.9047 21.1084 15.996C22.6375 16.0752 23.704 16.8201 24.3076 18.2304C24.424 20.5614 24.4748 22.8974 24.46 25.2382C24.443 27.4387 24.4262 29.6392 24.4092 31.8398C23.9377 33.5057 22.8374 34.352 21.1084 34.3788C21.1253 35.395 21.1084 36.4107 21.0576 37.4257C20.5842 38.317 19.8901 38.537 18.9756 38.0858C18.8183 37.9625 18.6999 37.8102 18.6201 37.6288C18.475 36.5535 18.4242 35.4701 18.4678 34.3788C16.7181 34.3082 15.6179 33.4281 15.167 31.7382C15.0993 27.371 15.0993 23.0038 15.167 18.6366C15.651 16.9846 16.7512 16.1045 18.4678 15.996C18.4509 15.0137 18.4678 14.0319 18.5186 13.0507C18.6927 12.6231 18.9804 12.3184 19.3819 12.1366ZM18.2647 18.6366C19.2809 18.6198 20.2965 18.6366 21.3115 18.6874C21.4929 18.7671 21.6453 18.8856 21.7686 19.0429C21.8363 23.1392 21.8363 27.2356 21.7686 31.3319C21.7178 31.5181 21.5993 31.6366 21.4131 31.6874C20.3297 31.7551 19.2465 31.7551 18.1631 31.6874C17.9769 31.6366 17.8584 31.5181 17.8076 31.3319C17.7399 27.2694 17.7399 23.2069 17.8076 19.1444C17.9117 18.9223 18.0641 18.753 18.2647 18.6366Z" fill="#E5AE00"/>
  <path opacity="0.988" fill-rule="evenodd" clip-rule="evenodd" d="M31.6758 17.0117C32.5227 16.8468 33.1153 17.1515 33.4532 17.9257C33.4703 18.6728 33.5211 19.4176 33.6055 20.1601C35.3154 20.33 36.3818 21.2441 36.8047 22.9023C36.8725 29.707 36.8725 36.5117 36.8047 43.3164C36.3539 45.0062 35.2537 45.8864 33.5039 45.957C33.5452 46.8118 33.4944 47.6582 33.3516 48.496C32.8369 49.2444 32.1767 49.3967 31.3711 48.9531C31.1561 48.7773 31.0038 48.5572 30.9141 48.2929C30.8633 47.515 30.8464 46.7364 30.8633 45.957C29.1343 45.9302 28.0341 45.0838 27.5625 43.4179C27.4948 36.5455 27.4948 29.6732 27.5625 22.8007C28.0294 21.2001 29.0958 20.3199 30.7617 20.1601C30.8461 19.4176 30.8969 18.6728 30.9141 17.9257C31.078 17.5421 31.3319 17.2374 31.6758 17.0117ZM30.7617 22.8007C31.7102 22.7839 32.6582 22.8007 33.6055 22.8515C33.883 22.8919 34.0691 23.0443 34.1641 23.3085C34.2318 29.8424 34.2318 36.3763 34.1641 42.9101C34.1133 43.0963 33.9948 43.2148 33.8086 43.2656C32.7253 43.3333 31.642 43.3333 30.5586 43.2656C30.3725 43.2148 30.2539 43.0963 30.2032 42.9101C30.1354 36.3763 30.1354 29.8424 30.2032 23.3085C30.3156 23.0432 30.5017 22.8739 30.7617 22.8007Z" fill="#E5AE00"/>
</svg>