<svg width="734" height="85" viewBox="0 0 734 85" fill="none" xmlns="http://www.w3.org/2000/svg">
<g clip-path="url(#clip0_1973_2037)">
<path d="M19.4002 42.6L9.8002 52.1L0.200195 42.6L9.8002 33L19.4002 42.6ZM42.8002 19.3L59.2002 35.7L68.8002 26.2L52.4002 9.79999L42.8002 0.299988L33.2002 9.79999L16.7002 26.2L26.3002 35.7L42.8002 19.3ZM75.8002 33L66.2002 42.5L75.8002 52L85.4002 42.5L75.8002 33ZM42.8002 65.7L26.3002 49.4L16.6002 58.9L33.0002 75.2L42.6002 84.7L52.2002 75.2L68.7002 58.9L59.1002 49.4L42.8002 65.7ZM42.8002 52.1L52.4002 42.6L42.8002 33L33.2002 42.5L42.8002 52.1ZM144.2 53V52.9C144.2 46.7 140.8 43.6 135.5 41.5C138.9 39.6 141.6 36.7 141.6 31.5V31.4C141.6 24.1 135.7 19.4 126.2 19.4H104.5V65.7H126.7C137.3 65.7 144.2 61.5 144.2 53ZM131.4 33.2C131.4 36.7 128.6 38.1 124 38.1H114.5V28.3H124.6C128.9 28.3 131.3 30 131.3 33.1V33.2H131.4ZM134 51.8C134 55.3 131.3 56.8 126.7 56.8H114.5V46.6H126.4C131.7 46.6 134 48.5 134 51.6V51.8ZM165.7 65.7V19.3H155.5V65.6H165.7V65.7ZM220.9 65.7V19.3H210.8V47.9L188.9 19.3H179.4V65.6H189.5V36.3L212.1 65.8H220.8V65.7H220.9ZM277.8 65.7L257.8 19H248.3L228.3 65.7H238.7L243 55.3H262.7L267 65.7H277.8ZM259.2 46.3H246.8L253 31.2L259.2 46.3ZM326.7 65.7V19.3H316.6V47.9L294.7 19.3H285.2V65.6H295.3V36.3L318 65.8H326.7V65.7ZM379.8 58.2L373.3 51.6C369.6 54.9 366.3 57 361.1 57C353.1 57 347.6 50.4 347.6 42.5V42.4C347.6 34.5 353.3 28 361.1 28C365.7 28 369.4 30 373 33.2L379.5 25.7C375.2 21.4 369.9 18.6 361.1 18.6C346.8 18.6 336.8 29.4 336.8 42.6V42.7C336.8 56 347 66.5 360.7 66.5C369.6 66.5 374.9 63.4 379.8 58.2ZM423.5 65.7V56.6H398.2V46.9H420.2V37.8H398.2V28.4H423.2V19.3H388V65.6H423.5V65.7Z" fill="black"/>
<path d="M459.7 31.4C459.7 35 461.8 36.6 470.7 38.7C480.5 41.1 485.6 44.6 485.6 52.3C485.6 61 478.8 66.2 469.1 66.2C462 66.2 455.4 63.8 449.8 58.8L454.7 53C459.1 56.8 463.5 59 469.3 59C474.3 59 477.5 56.7 477.5 53.1C477.5 49.7 475.7 48 467.1 46C457.3 43.6 451.7 40.7 451.7 32.1C451.7 24 458.3 18.6 467.5 18.6C474.2 18.6 479.6 20.6 484.3 24.4L479.9 30.5C475.7 27.4 471.6 25.7 467.4 25.7C462.4 25.9 459.7 28.3 459.7 31.4Z" fill="black"/>
<path d="M536.6 56.7L541.9 61.2L536.7 67L531.2 62.1C527.3 64.8 522.6 66.5 517.1 66.5C502.9 66.5 493 55.7 493 42.7C493 29.7 503 18.7 517.2 18.7C531.4 18.7 541.3 29.5 541.3 42.5C541.3 47.7 539.6 52.6 536.6 56.7ZM525.1 56.7L517.2 50L522.4 44.1L530.4 51.4C532 49 532.8 45.9 532.8 42.7C532.8 33.7 526.3 26.2 517.1 26.2C507.9 26.2 501.5 33.5 501.5 42.6C501.5 51.7 508 59.1 517.2 59.1C520.2 58.9 522.9 58 525.1 56.7Z" fill="black"/>
<path d="M589.9 19.4V45.6C589.9 59.4 582.1 66.3 570 66.3C558 66.3 550.3 59.4 550.3 46V19.4H558.4V45.7C558.4 54.3 562.8 58.9 570.1 58.9C577.3 58.9 581.7 54.5 581.7 46V19.4H589.9Z" fill="black"/>
<path d="M623.2 19L643.5 65.5H635L630.3 54.3H608.5L603.7 65.5H595.4L615.7 19H623.2ZM627.3 47.2L619.3 28.7L611.4 47.2H627.3Z" fill="black"/>
<path d="M690.7 65.6H681.1L669.7 49.5H659.5V65.6H651.4V19.4H672C682.6 19.4 689.2 25 689.2 34.1C689.2 41.8 684.6 46.4 678.2 48.2L690.7 65.6ZM681 34.5C681 29.4 677.4 26.8 671.4 26.8H659.6V42.3H671.5C677.3 42.3 681 39.2 681 34.5Z" fill="black"/>
<path d="M733.4 19.4V26.7H707.3V38.7H730.5V46H707.3V58.4H733.8V65.7H699.2V19.4H733.4Z" fill="black"/>
</g>
<defs>
<clipPath id="clip0_1973_2037">
<rect width="734" height="85" fill="white"/>
</clipPath>
</defs>
</svg>
